<svg width="75" height="75" viewBox="0 0 75 75" fill="none" xmlns="http://www.w3.org/2000/svg">
<path d="M74.1412 3.29479L74.1417 3.29837C74.1495 3.35635 74.1554 3.41427 74.1593 3.47241C74.1623 3.52007 74.169 3.56799 74.1725 3.59262L74.1737 3.60183C74.1767 3.62359 74.1772 3.63096 74.1773 3.63185V25.3174C74.1773 26.7514 73.0132 27.9155 71.5792 27.9155C70.1452 27.9155 68.9811 26.7514 68.9811 25.3174V11.1098V9.90266L68.1275 10.7562L49.6351 29.2487L49.3187 29.5651L49.5981 29.9145C53.4744 34.7616 55.5888 40.7206 55.5888 47.004C55.5888 62.1017 43.3037 74.3867 28.206 74.3867C13.1083 74.3867 0.823242 62.1017 0.823242 47.004C0.823242 31.9063 13.1083 19.6212 28.206 19.6212C34.4924 19.6212 40.4529 21.7373 45.2955 25.6103L45.6449 25.8898L45.9613 25.5734L64.4522 7.08244L65.3058 6.22888H64.0987H49.8926C48.4586 6.22888 47.2945 5.0648 47.2945 3.6308C47.2945 2.1968 48.4586 1.03271 49.8926 1.03271H71.5792C71.8024 1.03271 72.0246 1.07317 72.2628 1.13782L72.2628 1.13784L72.267 1.13893C72.3163 1.15186 72.3632 1.16639 72.4121 1.1838L72.4121 1.18385L72.4193 1.18632C72.6373 1.26022 72.8329 1.34975 73.0033 1.46129C73.0185 1.47163 73.0325 1.47996 73.0443 1.48651C73.2129 1.6034 73.3672 1.75043 73.5209 1.92399L73.5254 1.92902C73.5548 1.96128 73.5829 1.99608 73.6232 2.04594L73.6271 2.05067C73.7659 2.23079 73.8815 2.41352 73.9661 2.60541C73.9708 2.62098 73.9771 2.63954 73.9858 2.66004C74.0619 2.85015 74.1114 3.06128 74.1412 3.29479ZM43.9002 31.3028L43.8989 31.3015C39.7065 27.1237 34.1283 24.8174 28.206 24.8174C15.9709 24.8174 6.01941 34.7688 6.01941 47.004C6.01941 59.2391 15.9709 69.1906 28.206 69.1906C40.4411 69.1906 50.3926 59.2391 50.3926 47.004C50.3926 41.0816 48.086 35.5034 43.9002 31.3028Z" fill="#8465EC" stroke="#FBFBFB"/>
</svg>
