<svg width="47" height="75" viewBox="0 0 47 75" fill="none" xmlns="http://www.w3.org/2000/svg">
<g id="Group">
<path id="Vector" d="M23.5 0.532593C36.467 0.532593 46.9802 11.0459 46.9802 24.0128C46.9802 36.3204 37.5099 46.4169 25.4567 47.4128V61.1898H33.2834C33.8024 61.1898 34.3001 61.396 34.667 61.7629C35.034 62.1299 35.2401 62.6276 35.2401 63.1465C35.2401 63.6655 35.034 64.1632 34.667 64.5301C34.3001 64.8971 33.8024 65.1032 33.2834 65.1032H25.4567V72.9299C25.4567 73.4489 25.2505 73.9466 24.8836 74.3135C24.5166 74.6805 24.0189 74.8866 23.5 74.8866C22.4962 74.8866 21.5433 74.104 21.5433 72.9299V65.1032H13.7166C13.1976 65.1032 12.6999 64.8971 12.333 64.5301C11.966 64.1632 11.7599 63.6655 11.7599 63.1465C11.7599 62.6276 11.966 62.1299 12.333 61.7629C12.6999 61.396 13.1976 61.1898 13.7166 61.1898H21.5433V47.4128C10.1398 46.4736 0.0197754 36.9798 0.0197754 24.0128C0.0197754 11.0459 10.533 0.532593 23.5 0.532593ZM23.5 4.44596C12.6932 4.44596 3.93315 13.206 3.93315 24.0128C3.93315 34.8196 12.6932 43.5797 23.5 43.5797C34.3068 43.5797 43.0669 34.8196 43.0669 24.0128C43.0669 13.206 34.3068 4.44596 23.5 4.44596Z" fill="#8465EC"/>
</g>
</svg>
