<svg width="59" height="59" viewBox="0 0 59 59" fill="none" xmlns="http://www.w3.org/2000/svg">
<g id="Group">
<path id="Vector" d="M1.04644 58.1604C1.2392 58.3534 1.46812 58.5065 1.72009 58.611C1.97206 58.7154 2.24215 58.7692 2.51491 58.7692C2.78768 58.7692 3.05777 58.7154 3.30974 58.611C3.56171 58.5065 3.79062 58.3534 3.98339 58.1604L29.4923 32.6515L55.0117 58.1604C55.4011 58.5499 55.9294 58.7687 56.4801 58.7687C57.0309 58.7687 57.5592 58.5499 57.9486 58.1604C58.3381 57.771 58.5569 57.2427 58.5569 56.692C58.5569 56.1412 58.3381 55.613 57.9486 55.2235L32.4293 29.7145L57.9382 4.19521C58.3277 3.80575 58.5465 3.27752 58.5465 2.72673C58.5465 2.17595 58.3277 1.64772 57.9382 1.25826C57.5488 0.868792 57.0205 0.649994 56.4698 0.649994C55.919 0.649994 55.3908 0.868792 55.0013 1.25826L29.4923 26.7776L3.97301 1.26863C3.57595 0.928599 3.0652 0.750917 2.54282 0.771094C2.02045 0.791271 1.52492 1.00782 1.15527 1.37747C0.785622 1.74712 0.569072 2.24265 0.548895 2.76502C0.528718 3.2874 0.706401 3.79815 1.04644 4.19521L26.5554 29.7145L1.04644 55.2339C0.659856 55.6228 0.442871 56.1488 0.442871 56.6972C0.442871 57.2455 0.659856 57.7716 1.04644 58.1604Z" fill="#8465EC"/>
</g>
</svg>
