<svg width="8" height="13" viewBox="0 0 8 13" fill="none" xmlns="http://www.w3.org/2000/svg">
<path id="Vector" d="M2.04031 6.5544L7.24131 1.20946C7.28414 1.16639 7.31799 1.11525 7.34092 1.05901C7.36384 1.00276 7.37539 0.942533 7.37488 0.881798C7.37438 0.821064 7.36183 0.761032 7.33798 0.705178C7.31412 0.649323 7.27942 0.598755 7.23589 0.556398C7.19236 0.514042 7.14086 0.480739 7.08438 0.458417C7.02789 0.436095 6.96754 0.425197 6.90681 0.426353C6.84608 0.427509 6.78619 0.440697 6.7306 0.465153C6.675 0.489609 6.62481 0.524848 6.58292 0.56883L1.07078 6.23408C0.987354 6.31983 0.940674 6.43476 0.940674 6.5544C0.940674 6.67404 0.987354 6.78896 1.07078 6.87471L6.58292 12.54C6.62481 12.5839 6.675 12.6192 6.7306 12.6436C6.78619 12.6681 6.84608 12.6813 6.90681 12.6824C6.96754 12.6836 7.02789 12.6727 7.08438 12.6504C7.14086 12.6281 7.19236 12.5948 7.23589 12.5524C7.27942 12.51 7.31412 12.4595 7.33798 12.4036C7.36183 12.3478 7.37438 12.2877 7.37488 12.227C7.37539 12.1663 7.36384 12.106 7.34092 12.0498C7.31799 11.9935 7.28414 11.9424 7.24131 11.8993L2.04031 6.5544Z" fill="black"/>
</svg>
