<svg width="401" height="167" viewBox="0 0 401 167" fill="none" xmlns="http://www.w3.org/2000/svg">
<rect x="0.937012" y="0.254364" width="400" height="166" rx="8" fill="#F6E8C3" fill-opacity="0.6"/>
<path d="M93.3028 14.7462L89.1268 27.3462H86.6428L83.5288 18.0222L80.3608 27.3462H77.8588L73.6828 14.7462H76.1128L79.2448 24.3222L82.5028 14.7462H84.6628L87.8488 24.3762L91.0708 14.7462H93.3028ZM100.711 17.6262C101.923 17.6262 102.895 17.9802 103.627 18.6882C104.359 19.3962 104.725 20.4462 104.725 21.8382V27.3462H102.475V22.1262C102.475 21.2862 102.277 20.6562 101.881 20.2362C101.485 19.8042 100.921 19.5882 100.189 19.5882C99.3608 19.5882 98.7068 19.8402 98.2268 20.3442C97.7468 20.8362 97.5068 21.5502 97.5068 22.4862V27.3462H95.2568V13.9902H97.5068V18.8502C97.8788 18.4542 98.3348 18.1542 98.8748 17.9502C99.4268 17.7342 100.039 17.6262 100.711 17.6262ZM111.251 17.6262C112.667 17.6262 113.747 17.9682 114.491 18.6522C115.247 19.3242 115.625 20.3442 115.625 21.7122V27.3462H113.501V26.1762C113.225 26.5962 112.829 26.9202 112.313 27.1482C111.809 27.3642 111.197 27.4722 110.477 27.4722C109.757 27.4722 109.127 27.3522 108.587 27.1122C108.047 26.8602 107.627 26.5182 107.327 26.0862C107.039 25.6422 106.895 25.1442 106.895 24.5922C106.895 23.7282 107.213 23.0382 107.849 22.5222C108.497 21.9942 109.511 21.7302 110.891 21.7302H113.375V21.5862C113.375 20.9142 113.171 20.3982 112.763 20.0382C112.367 19.6782 111.773 19.4982 110.981 19.4982C110.441 19.4982 109.907 19.5822 109.379 19.7502C108.863 19.9182 108.425 20.1522 108.065 20.4522L107.183 18.8142C107.687 18.4302 108.293 18.1362 109.001 17.9322C109.709 17.7282 110.459 17.6262 111.251 17.6262ZM110.945 25.8342C111.509 25.8342 112.007 25.7082 112.439 25.4562C112.883 25.1922 113.195 24.8202 113.375 24.3402V23.2242H111.053C109.757 23.2242 109.109 23.6502 109.109 24.5022C109.109 24.9102 109.271 25.2342 109.595 25.4742C109.919 25.7142 110.369 25.8342 110.945 25.8342ZM124.291 26.8242C124.027 27.0402 123.703 27.2022 123.319 27.3102C122.947 27.4182 122.551 27.4722 122.131 27.4722C121.075 27.4722 120.259 27.1962 119.683 26.6442C119.107 26.0922 118.819 25.2882 118.819 24.2322V19.6062H117.235V17.8062H118.819V15.6102H121.069V17.8062H123.643V19.6062H121.069V24.1782C121.069 24.6462 121.183 25.0062 121.411 25.2582C121.639 25.4982 121.969 25.6182 122.401 25.6182C122.905 25.6182 123.325 25.4862 123.661 25.2222L124.291 26.8242ZM139.504 24.4302H133.204L131.962 27.3462H129.55L135.22 14.7462H137.524L143.212 27.3462H140.764L139.504 24.4302ZM138.73 22.5942L136.354 17.0862L133.996 22.5942H138.73ZM147.481 27.4722C146.701 27.4722 145.939 27.3702 145.195 27.1662C144.451 26.9622 143.857 26.7042 143.413 26.3922L144.277 24.6822C144.709 24.9702 145.225 25.2042 145.825 25.3842C146.437 25.5522 147.037 25.6362 147.625 25.6362C148.969 25.6362 149.641 25.2822 149.641 24.5742C149.641 24.2382 149.467 24.0042 149.119 23.8722C148.783 23.7402 148.237 23.6142 147.481 23.4942C146.689 23.3742 146.041 23.2362 145.537 23.0802C145.045 22.9242 144.613 22.6542 144.241 22.2702C143.881 21.8742 143.701 21.3282 143.701 20.6322C143.701 19.7202 144.079 18.9942 144.835 18.4542C145.603 17.9022 146.635 17.6262 147.931 17.6262C148.591 17.6262 149.251 17.7042 149.911 17.8602C150.571 18.0042 151.111 18.2022 151.531 18.4542L150.667 20.1642C149.851 19.6842 148.933 19.4442 147.913 19.4442C147.253 19.4442 146.749 19.5462 146.401 19.7502C146.065 19.9422 145.897 20.2002 145.897 20.5242C145.897 20.8842 146.077 21.1422 146.437 21.2982C146.809 21.4422 147.379 21.5802 148.147 21.7122C148.915 21.8322 149.545 21.9702 150.037 22.1262C150.529 22.2822 150.949 22.5462 151.297 22.9182C151.657 23.2902 151.837 23.8182 151.837 24.5022C151.837 25.4022 151.447 26.1222 150.667 26.6622C149.887 27.2022 148.825 27.4722 147.481 27.4722ZM159.552 26.8242C159.288 27.0402 158.964 27.2022 158.58 27.3102C158.208 27.4182 157.812 27.4722 157.392 27.4722C156.336 27.4722 155.52 27.1962 154.944 26.6442C154.368 26.0922 154.08 25.2882 154.08 24.2322V19.6062H152.496V17.8062H154.08V15.6102H156.33V17.8062H158.904V19.6062H156.33V24.1782C156.33 24.6462 156.444 25.0062 156.672 25.2582C156.9 25.4982 157.23 25.6182 157.662 25.6182C158.166 25.6182 158.586 25.4862 158.922 25.2222L159.552 26.8242ZM163.545 19.1382C164.193 18.1302 165.333 17.6262 166.965 17.6262V19.7682C166.773 19.7322 166.599 19.7142 166.443 19.7142C165.567 19.7142 164.883 19.9722 164.391 20.4882C163.899 20.9922 163.653 21.7242 163.653 22.6842V27.3462H161.403V17.7342H163.545V19.1382ZM172.493 17.6262C173.909 17.6262 174.989 17.9682 175.733 18.6522C176.489 19.3242 176.867 20.3442 176.867 21.7122V27.3462H174.743V26.1762C174.467 26.5962 174.071 26.9202 173.555 27.1482C173.051 27.3642 172.439 27.4722 171.719 27.4722C170.999 27.4722 170.369 27.3522 169.829 27.1122C169.289 26.8602 168.869 26.5182 168.569 26.0862C168.281 25.6422 168.137 25.1442 168.137 24.5922C168.137 23.7282 168.455 23.0382 169.091 22.5222C169.739 21.9942 170.753 21.7302 172.133 21.7302H174.617V21.5862C174.617 20.9142 174.413 20.3982 174.005 20.0382C173.609 19.6782 173.015 19.4982 172.223 19.4982C171.683 19.4982 171.149 19.5822 170.621 19.7502C170.105 19.9182 169.667 20.1522 169.307 20.4522L168.425 18.8142C168.929 18.4302 169.535 18.1362 170.243 17.9322C170.951 17.7282 171.701 17.6262 172.493 17.6262ZM172.187 25.8342C172.751 25.8342 173.249 25.7082 173.681 25.4562C174.125 25.1922 174.437 24.8202 174.617 24.3402V23.2242H172.295C170.999 23.2242 170.351 23.6502 170.351 24.5022C170.351 24.9102 170.513 25.2342 170.837 25.4742C171.161 25.7142 171.611 25.8342 172.187 25.8342ZM179.755 13.9902H182.005V27.3462H179.755V13.9902ZM189.368 27.4722C188.372 27.4722 187.478 27.2622 186.686 26.8422C185.894 26.4222 185.276 25.8402 184.832 25.0962C184.388 24.3402 184.166 23.4882 184.166 22.5402C184.166 21.5922 184.388 20.7462 184.832 20.0022C185.276 19.2582 185.888 18.6762 186.668 18.2562C187.46 17.8362 188.36 17.6262 189.368 17.6262C190.316 17.6262 191.144 17.8182 191.852 18.2022C192.572 18.5862 193.112 19.1382 193.472 19.8582L191.744 20.8662C191.468 20.4222 191.12 20.0922 190.7 19.8762C190.292 19.6482 189.842 19.5342 189.35 19.5342C188.51 19.5342 187.814 19.8102 187.262 20.3622C186.71 20.9022 186.434 21.6282 186.434 22.5402C186.434 23.4522 186.704 24.1842 187.244 24.7362C187.796 25.2762 188.498 25.5462 189.35 25.5462C189.842 25.5462 190.292 25.4382 190.7 25.2222C191.12 24.9942 191.468 24.6582 191.744 24.2142L193.472 25.2222C193.1 25.9422 192.554 26.5002 191.834 26.8962C191.126 27.2802 190.304 27.4722 189.368 27.4722ZM199.596 27.4722C198.624 27.4722 197.748 27.2622 196.968 26.8422C196.188 26.4222 195.576 25.8402 195.132 25.0962C194.7 24.3402 194.484 23.4882 194.484 22.5402C194.484 21.5922 194.7 20.7462 195.132 20.0022C195.576 19.2582 196.188 18.6762 196.968 18.2562C197.748 17.8362 198.624 17.6262 199.596 17.6262C200.58 17.6262 201.462 17.8362 202.242 18.2562C203.022 18.6762 203.628 19.2582 204.06 20.0022C204.504 20.7462 204.726 21.5922 204.726 22.5402C204.726 23.4882 204.504 24.3402 204.06 25.0962C203.628 25.8402 203.022 26.4222 202.242 26.8422C201.462 27.2622 200.58 27.4722 199.596 27.4722ZM199.596 25.5462C200.424 25.5462 201.108 25.2702 201.648 24.7182C202.188 24.1662 202.458 23.4402 202.458 22.5402C202.458 21.6402 202.188 20.9142 201.648 20.3622C201.108 19.8102 200.424 19.5342 199.596 19.5342C198.768 19.5342 198.084 19.8102 197.544 20.3622C197.016 20.9142 196.752 21.6402 196.752 22.5402C196.752 23.4402 197.016 24.1662 197.544 24.7182C198.084 25.2702 198.768 25.5462 199.596 25.5462ZM210.427 17.6262C211.843 17.6262 212.923 17.9682 213.667 18.6522C214.423 19.3242 214.801 20.3442 214.801 21.7122V27.3462H212.677V26.1762C212.401 26.5962 212.005 26.9202 211.489 27.1482C210.985 27.3642 210.373 27.4722 209.653 27.4722C208.933 27.4722 208.303 27.3522 207.763 27.1122C207.223 26.8602 206.803 26.5182 206.503 26.0862C206.215 25.6422 206.071 25.1442 206.071 24.5922C206.071 23.7282 206.389 23.0382 207.025 22.5222C207.673 21.9942 208.687 21.7302 210.067 21.7302H212.551V21.5862C212.551 20.9142 212.347 20.3982 211.939 20.0382C211.543 19.6782 210.949 19.4982 210.157 19.4982C209.617 19.4982 209.083 19.5822 208.555 19.7502C208.039 19.9182 207.601 20.1522 207.241 20.4522L206.359 18.8142C206.863 18.4302 207.469 18.1362 208.177 17.9322C208.885 17.7282 209.635 17.6262 210.427 17.6262ZM210.121 25.8342C210.685 25.8342 211.183 25.7082 211.615 25.4562C212.059 25.1922 212.371 24.8202 212.551 24.3402V23.2242H210.229C208.933 23.2242 208.285 23.6502 208.285 24.5022C208.285 24.9102 208.447 25.2342 208.771 25.4742C209.095 25.7142 209.545 25.8342 210.121 25.8342ZM222.186 27.4722C221.19 27.4722 220.296 27.2622 219.504 26.8422C218.712 26.4222 218.094 25.8402 217.65 25.0962C217.206 24.3402 216.984 23.4882 216.984 22.5402C216.984 21.5922 217.206 20.7462 217.65 20.0022C218.094 19.2582 218.706 18.6762 219.486 18.2562C220.278 17.8362 221.178 17.6262 222.186 17.6262C223.134 17.6262 223.962 17.8182 224.67 18.2022C225.39 18.5862 225.93 19.1382 226.29 19.8582L224.562 20.8662C224.286 20.4222 223.938 20.0922 223.518 19.8762C223.11 19.6482 222.66 19.5342 222.168 19.5342C221.328 19.5342 220.632 19.8102 220.08 20.3622C219.528 20.9022 219.252 21.6282 219.252 22.5402C219.252 23.4522 219.522 24.1842 220.062 24.7362C220.614 25.2762 221.316 25.5462 222.168 25.5462C222.66 25.5462 223.11 25.4382 223.518 25.2222C223.938 24.9942 224.286 24.6582 224.562 24.2142L226.29 25.2222C225.918 25.9422 225.372 26.5002 224.652 26.8962C223.944 27.2802 223.122 27.4722 222.186 27.4722ZM233.601 17.6262C234.813 17.6262 235.785 17.9802 236.517 18.6882C237.249 19.3962 237.615 20.4462 237.615 21.8382V27.3462H235.365V22.1262C235.365 21.2862 235.167 20.6562 234.771 20.2362C234.375 19.8042 233.811 19.5882 233.079 19.5882C232.251 19.5882 231.597 19.8402 231.117 20.3442C230.637 20.8362 230.397 21.5502 230.397 22.4862V27.3462H228.147V13.9902H230.397V18.8502C230.769 18.4542 231.225 18.1542 231.765 17.9502C232.317 17.7342 232.929 17.6262 233.601 17.6262ZM251.546 27.5262C250.262 27.5262 249.104 27.2502 248.072 26.6982C247.04 26.1342 246.23 25.3602 245.642 24.3762C245.054 23.3802 244.76 22.2702 244.76 21.0462C244.76 19.8222 245.054 18.7182 245.642 17.7342C246.23 16.7382 247.04 15.9642 248.072 15.4122C249.104 14.8482 250.262 14.5662 251.546 14.5662C252.83 14.5662 253.988 14.8482 255.02 15.4122C256.052 15.9642 256.862 16.7322 257.45 17.7162C258.038 18.7002 258.332 19.8102 258.332 21.0462C258.332 22.2822 258.038 23.3922 257.45 24.3762C256.862 25.3602 256.052 26.1342 255.02 26.6982C253.988 27.2502 252.83 27.5262 251.546 27.5262ZM251.546 25.4742C252.386 25.4742 253.142 25.2882 253.814 24.9162C254.486 24.5322 255.014 24.0042 255.398 23.3322C255.782 22.6482 255.974 21.8862 255.974 21.0462C255.974 20.2062 255.782 19.4502 255.398 18.7782C255.014 18.0942 254.486 17.5662 253.814 17.1942C253.142 16.8102 252.386 16.6182 251.546 16.6182C250.706 16.6182 249.95 16.8102 249.278 17.1942C248.606 17.5662 248.078 18.0942 247.694 18.7782C247.31 19.4502 247.118 20.2062 247.118 21.0462C247.118 21.8862 247.31 22.6482 247.694 23.3322C248.078 24.0042 248.606 24.5322 249.278 24.9162C249.95 25.2882 250.706 25.4742 251.546 25.4742ZM264.503 15.6822C263.555 15.6822 263.081 16.1982 263.081 17.2302V17.8062H265.727V19.6062H263.153V27.3462H260.903V19.6062H259.319V17.8062H260.903V17.1942C260.903 16.1622 261.203 15.3522 261.803 14.7642C262.403 14.1642 263.249 13.8642 264.341 13.8642C265.205 13.8642 265.883 14.0382 266.375 14.3862L265.745 16.0782C265.361 15.8142 264.947 15.6822 264.503 15.6822ZM271.147 15.6822C270.199 15.6822 269.725 16.1982 269.725 17.2302V17.8062H272.371V19.6062H269.797V27.3462H267.547V19.6062H265.963V17.8062H267.547V17.1942C267.547 16.1622 267.847 15.3522 268.447 14.7642C269.047 14.1642 269.893 13.8642 270.985 13.8642C271.849 13.8642 272.527 14.0382 273.019 14.3862L272.389 16.0782C272.005 15.8142 271.591 15.6822 271.147 15.6822ZM282.781 22.5942C282.781 22.7502 282.769 22.9722 282.745 23.2602H275.203C275.335 23.9682 275.677 24.5322 276.229 24.9522C276.793 25.3602 277.489 25.5642 278.317 25.5642C279.373 25.5642 280.243 25.2162 280.927 24.5202L282.133 25.9062C281.701 26.4222 281.155 26.8122 280.495 27.0762C279.835 27.3402 279.091 27.4722 278.263 27.4722C277.207 27.4722 276.277 27.2622 275.473 26.8422C274.669 26.4222 274.045 25.8402 273.601 25.0962C273.169 24.3402 272.953 23.4882 272.953 22.5402C272.953 21.6042 273.163 20.7642 273.583 20.0202C274.015 19.2642 274.609 18.6762 275.365 18.2562C276.121 17.8362 276.973 17.6262 277.921 17.6262C278.857 17.6262 279.691 17.8362 280.423 18.2562C281.167 18.6642 281.743 19.2462 282.151 20.0022C282.571 20.7462 282.781 21.6102 282.781 22.5942ZM277.921 19.4262C277.201 19.4262 276.589 19.6422 276.085 20.0742C275.593 20.4942 275.293 21.0582 275.185 21.7662H280.639C280.543 21.0702 280.249 20.5062 279.757 20.0742C279.265 19.6422 278.653 19.4262 277.921 19.4262ZM287.084 19.1382C287.732 18.1302 288.872 17.6262 290.504 17.6262V19.7682C290.312 19.7322 290.138 19.7142 289.982 19.7142C289.106 19.7142 288.422 19.9722 287.93 20.4882C287.438 20.9922 287.192 21.7242 287.192 22.6842V27.3462H284.942V17.7342H287.084V19.1382ZM295.418 27.4722C294.638 27.4722 293.876 27.3702 293.132 27.1662C292.388 26.9622 291.794 26.7042 291.35 26.3922L292.214 24.6822C292.646 24.9702 293.162 25.2042 293.762 25.3842C294.374 25.5522 294.974 25.6362 295.562 25.6362C296.906 25.6362 297.578 25.2822 297.578 24.5742C297.578 24.2382 297.404 24.0042 297.056 23.8722C296.72 23.7402 296.174 23.6142 295.418 23.4942C294.626 23.3742 293.978 23.2362 293.474 23.0802C292.982 22.9242 292.55 22.6542 292.178 22.2702C291.818 21.8742 291.638 21.3282 291.638 20.6322C291.638 19.7202 292.016 18.9942 292.772 18.4542C293.54 17.9022 294.572 17.6262 295.868 17.6262C296.528 17.6262 297.188 17.7042 297.848 17.8602C298.508 18.0042 299.048 18.2022 299.468 18.4542L298.604 20.1642C297.788 19.6842 296.87 19.4442 295.85 19.4442C295.19 19.4442 294.686 19.5462 294.338 19.7502C294.002 19.9422 293.834 20.2002 293.834 20.5242C293.834 20.8842 294.014 21.1422 294.374 21.2982C294.746 21.4422 295.316 21.5802 296.084 21.7122C296.852 21.8322 297.482 21.9702 297.974 22.1262C298.466 22.2822 298.886 22.5462 299.234 22.9182C299.594 23.2902 299.774 23.8182 299.774 24.5022C299.774 25.4022 299.384 26.1222 298.604 26.6622C297.824 27.2022 296.762 27.4722 295.418 27.4722ZM312.32 27.5262C310.58 27.5262 309.224 27.0402 308.252 26.0682C307.28 25.0842 306.794 23.6802 306.794 21.8562V14.7462H309.134V21.7662C309.134 24.2382 310.202 25.4742 312.338 25.4742C314.462 25.4742 315.524 24.2382 315.524 21.7662V14.7462H317.828V21.8562C317.828 23.6802 317.342 25.0842 316.37 26.0682C315.41 27.0402 314.06 27.5262 312.32 27.5262ZM323.86 27.4722C323.08 27.4722 322.318 27.3702 321.574 27.1662C320.83 26.9622 320.236 26.7042 319.792 26.3922L320.656 24.6822C321.088 24.9702 321.604 25.2042 322.204 25.3842C322.816 25.5522 323.416 25.6362 324.004 25.6362C325.348 25.6362 326.02 25.2822 326.02 24.5742C326.02 24.2382 325.846 24.0042 325.498 23.8722C325.162 23.7402 324.616 23.6142 323.86 23.4942C323.068 23.3742 322.42 23.2362 321.916 23.0802C321.424 22.9242 320.992 22.6542 320.62 22.2702C320.26 21.8742 320.08 21.3282 320.08 20.6322C320.08 19.7202 320.458 18.9942 321.214 18.4542C321.982 17.9022 323.014 17.6262 324.31 17.6262C324.97 17.6262 325.63 17.7042 326.29 17.8602C326.95 18.0042 327.49 18.2022 327.91 18.4542L327.046 20.1642C326.23 19.6842 325.312 19.4442 324.292 19.4442C323.632 19.4442 323.128 19.5462 322.78 19.7502C322.444 19.9422 322.276 20.2002 322.276 20.5242C322.276 20.8842 322.456 21.1422 322.816 21.2982C323.188 21.4422 323.758 21.5802 324.526 21.7122C325.294 21.8322 325.924 21.9702 326.416 22.1262C326.908 22.2822 327.328 22.5462 327.676 22.9182C328.036 23.2902 328.216 23.8182 328.216 24.5022C328.216 25.4022 327.826 26.1222 327.046 26.6622C326.266 27.2022 325.204 27.4722 323.86 27.4722Z" fill="#0D0626"/>
<path d="M195.937 72.2544C195.939 72.4742 195.872 72.6892 195.746 72.8693C195.62 73.0494 195.441 73.1858 195.234 73.2594L190.984 74.8052L189.439 79.0554C189.363 79.2605 189.226 79.4375 189.047 79.5624C188.867 79.6874 188.654 79.7544 188.435 79.7544C188.216 79.7544 188.002 79.6874 187.823 79.5624C187.643 79.4375 187.506 79.2605 187.43 79.0554L185.885 74.8005L181.636 73.2594C181.431 73.1833 181.254 73.0462 181.129 72.8665C181.004 72.6868 180.937 72.4732 180.937 72.2544C180.937 72.0355 181.004 71.8219 181.129 71.6422C181.254 71.4626 181.431 71.3254 181.636 71.2493L185.889 69.7035L187.43 65.4534C187.506 65.2482 187.643 65.0713 187.823 64.9463C188.002 64.8213 188.216 64.7544 188.435 64.7544C188.654 64.7544 188.867 64.8213 189.047 64.9463C189.226 65.0713 189.363 65.2482 189.439 65.4534L190.985 69.7082L195.234 71.2493C195.441 71.3229 195.62 71.4593 195.746 71.6394C195.872 71.8196 195.939 72.0345 195.937 72.2544Z" fill="#8465EC"/>
<path d="M215.539 73.1084V76.2544H214.59V73.1084L210.95 67.1544H211.977L215.097 72.2634L218.217 67.1544H219.179L215.539 73.1084ZM222.497 76.3194C221.838 76.3194 221.244 76.172 220.716 75.8774C220.187 75.574 219.771 75.158 219.468 74.6294C219.164 74.1007 219.013 73.5027 219.013 72.8354C219.013 72.168 219.164 71.57 219.468 71.0414C219.771 70.5127 220.187 70.101 220.716 69.8064C221.244 69.5117 221.838 69.3644 222.497 69.3644C223.155 69.3644 223.749 69.5117 224.278 69.8064C224.806 70.101 225.218 70.5127 225.513 71.0414C225.816 71.57 225.968 72.168 225.968 72.8354C225.968 73.5027 225.816 74.1007 225.513 74.6294C225.218 75.158 224.806 75.574 224.278 75.8774C223.749 76.172 223.155 76.3194 222.497 76.3194ZM222.497 75.5004C222.982 75.5004 223.415 75.392 223.797 75.1754C224.187 74.95 224.49 74.6337 224.707 74.2264C224.923 73.819 225.032 73.3554 225.032 72.8354C225.032 72.3154 224.923 71.8517 224.707 71.4444C224.49 71.037 224.187 70.725 223.797 70.5084C223.415 70.283 222.982 70.1704 222.497 70.1704C222.011 70.1704 221.574 70.283 221.184 70.5084C220.802 70.725 220.499 71.037 220.274 71.4444C220.057 71.8517 219.949 72.3154 219.949 72.8354C219.949 73.3554 220.057 73.819 220.274 74.2264C220.499 74.6337 220.802 74.95 221.184 75.1754C221.574 75.392 222.011 75.5004 222.497 75.5004ZM234.014 69.4164V76.2544H233.13V75.0064C232.887 75.4224 232.554 75.7474 232.129 75.9814C231.704 76.2067 231.219 76.3194 230.673 76.3194C229.78 76.3194 229.074 76.0724 228.554 75.5784C228.043 75.0757 227.787 74.3434 227.787 73.3814V69.4164H228.71V73.2904C228.71 74.0097 228.888 74.5557 229.243 74.9284C229.598 75.301 230.105 75.4874 230.764 75.4874C231.483 75.4874 232.051 75.2707 232.467 74.8374C232.883 74.3954 233.091 73.7844 233.091 73.0044V69.4164H234.014ZM237.483 70.7554C237.7 70.296 238.02 69.9494 238.445 69.7154C238.878 69.4814 239.411 69.3644 240.044 69.3644V70.2614L239.823 70.2484C239.104 70.2484 238.54 70.4694 238.133 70.9114C237.726 71.3534 237.522 71.973 237.522 72.7704V76.2544H236.599V69.4164H237.483V70.7554ZM253.019 67.1544V76.2544H252.226L246.376 68.8704V76.2544H245.414V67.1544H246.207L252.07 74.5384V67.1544H253.019ZM258.186 69.3644C259.079 69.3644 259.764 69.5897 260.24 70.0404C260.717 70.4824 260.955 71.141 260.955 72.0164V76.2544H260.071V75.1884C259.863 75.5437 259.556 75.821 259.148 76.0204C258.75 76.2197 258.273 76.3194 257.718 76.3194C256.956 76.3194 256.349 76.1374 255.898 75.7734C255.448 75.4094 255.222 74.9284 255.222 74.3304C255.222 73.7497 255.43 73.2817 255.846 72.9264C256.271 72.571 256.943 72.3934 257.861 72.3934H260.032V71.9774C260.032 71.388 259.868 70.9417 259.538 70.6384C259.209 70.3264 258.728 70.1704 258.095 70.1704C257.662 70.1704 257.246 70.244 256.847 70.3914C256.449 70.53 256.106 70.725 255.82 70.9764L255.404 70.2874C255.751 69.9927 256.167 69.7674 256.652 69.6114C257.138 69.4467 257.649 69.3644 258.186 69.3644ZM257.861 75.5914C258.381 75.5914 258.828 75.4744 259.2 75.2404C259.573 74.9977 259.85 74.651 260.032 74.2004V73.0824H257.887C256.717 73.0824 256.132 73.4897 256.132 74.3044C256.132 74.703 256.284 75.0194 256.587 75.2534C256.891 75.4787 257.315 75.5914 257.861 75.5914ZM267.063 75.8384C266.89 75.9944 266.673 76.1157 266.413 76.2024C266.162 76.2804 265.898 76.3194 265.62 76.3194C264.979 76.3194 264.485 76.146 264.138 75.7994C263.792 75.4527 263.618 74.963 263.618 74.3304V70.1964H262.396V69.4164H263.618V67.9214H264.541V69.4164H266.621V70.1964H264.541V74.2784C264.541 74.6857 264.641 74.9977 264.84 75.2144C265.048 75.4224 265.343 75.5264 265.724 75.5264C265.915 75.5264 266.097 75.496 266.27 75.4354C266.452 75.3747 266.608 75.288 266.738 75.1754L267.063 75.8384ZM271.136 69.3644C272.028 69.3644 272.713 69.5897 273.19 70.0404C273.666 70.4824 273.905 71.141 273.905 72.0164V76.2544H273.021V75.1884C272.813 75.5437 272.505 75.821 272.098 76.0204C271.699 76.2197 271.222 76.3194 270.668 76.3194C269.905 76.3194 269.298 76.1374 268.848 75.7734C268.397 75.4094 268.172 74.9284 268.172 74.3304C268.172 73.7497 268.38 73.2817 268.796 72.9264C269.22 72.571 269.892 72.3934 270.811 72.3934H272.982V71.9774C272.982 71.388 272.817 70.9417 272.488 70.6384C272.158 70.3264 271.677 70.1704 271.045 70.1704C270.611 70.1704 270.195 70.244 269.797 70.3914C269.398 70.53 269.056 70.725 268.77 70.9764L268.354 70.2874C268.7 69.9927 269.116 69.7674 269.602 69.6114C270.087 69.4467 270.598 69.3644 271.136 69.3644ZM270.811 75.5914C271.331 75.5914 271.777 75.4744 272.15 75.2404C272.522 74.9977 272.8 74.651 272.982 74.2004V73.0824H270.837C269.667 73.0824 269.082 73.4897 269.082 74.3044C269.082 74.703 269.233 75.0194 269.537 75.2534C269.84 75.4787 270.265 75.5914 270.811 75.5914ZM276.412 66.6084H277.335V76.2544H276.412V66.6084ZM287.452 76.3324C286.551 76.3324 285.736 76.133 285.008 75.7344C284.289 75.3357 283.721 74.7854 283.305 74.0834C282.898 73.3727 282.694 72.5797 282.694 71.7044C282.694 70.829 282.898 70.0404 283.305 69.3384C283.721 68.6277 284.293 68.073 285.021 67.6744C285.749 67.2757 286.564 67.0764 287.465 67.0764C288.141 67.0764 288.765 67.189 289.337 67.4144C289.909 67.6397 290.394 67.969 290.793 68.4024L290.182 69.0134C289.471 68.294 288.574 67.9344 287.491 67.9344C286.772 67.9344 286.117 68.099 285.528 68.4284C284.939 68.7577 284.475 69.2084 284.137 69.7804C283.808 70.3524 283.643 70.9937 283.643 71.7044C283.643 72.415 283.808 73.0564 284.137 73.6284C284.475 74.2004 284.939 74.651 285.528 74.9804C286.117 75.3097 286.772 75.4744 287.491 75.4744C288.583 75.4744 289.48 75.1104 290.182 74.3824L290.793 74.9934C290.394 75.4267 289.905 75.7604 289.324 75.9944C288.752 76.2197 288.128 76.3324 287.452 76.3324ZM296.133 69.3644C296.991 69.3644 297.671 69.6157 298.174 70.1184C298.685 70.6124 298.941 71.336 298.941 72.2894V76.2544H298.018V72.3804C298.018 71.6697 297.84 71.128 297.485 70.7554C297.129 70.3827 296.622 70.1964 295.964 70.1964C295.227 70.1964 294.642 70.4174 294.209 70.8594C293.784 71.2927 293.572 71.895 293.572 72.6664V76.2544H292.649V66.6084H293.572V70.6124C293.823 70.2137 294.17 69.906 294.612 69.6894C295.054 69.4727 295.561 69.3644 296.133 69.3644ZM303.839 69.3644C304.731 69.3644 305.416 69.5897 305.893 70.0404C306.369 70.4824 306.608 71.141 306.608 72.0164V76.2544H305.724V75.1884C305.516 75.5437 305.208 75.821 304.801 76.0204C304.402 76.2197 303.925 76.3194 303.371 76.3194C302.608 76.3194 302.001 76.1374 301.551 75.7734C301.1 75.4094 300.875 74.9284 300.875 74.3304C300.875 73.7497 301.083 73.2817 301.499 72.9264C301.923 72.571 302.595 72.3934 303.514 72.3934H305.685V71.9774C305.685 71.388 305.52 70.9417 305.191 70.6384C304.861 70.3264 304.38 70.1704 303.748 70.1704C303.314 70.1704 302.898 70.244 302.5 70.3914C302.101 70.53 301.759 70.725 301.473 70.9764L301.057 70.2874C301.403 69.9927 301.819 69.7674 302.305 69.6114C302.79 69.4467 303.301 69.3644 303.839 69.3644ZM303.514 75.5914C304.034 75.5914 304.48 75.4744 304.853 75.2404C305.225 74.9977 305.503 74.651 305.685 74.2004V73.0824H303.54C302.37 73.0824 301.785 73.4897 301.785 74.3044C301.785 74.703 301.936 75.0194 302.24 75.2534C302.543 75.4787 302.968 75.5914 303.514 75.5914ZM309.999 70.7554C310.215 70.296 310.536 69.9494 310.961 69.7154C311.394 69.4814 311.927 69.3644 312.56 69.3644V70.2614L312.339 70.2484C311.619 70.2484 311.056 70.4694 310.649 70.9114C310.241 71.3534 310.038 71.973 310.038 72.7704V76.2544H309.115V69.4164H309.999V70.7554ZM318.124 75.8384C317.951 75.9944 317.734 76.1157 317.474 76.2024C317.223 76.2804 316.958 76.3194 316.681 76.3194C316.04 76.3194 315.546 76.146 315.199 75.7994C314.852 75.4527 314.679 74.963 314.679 74.3304V70.1964H313.457V69.4164H314.679V67.9214H315.602V69.4164H317.682V70.1964H315.602V74.2784C315.602 74.6857 315.702 74.9977 315.901 75.2144C316.109 75.4224 316.404 75.5264 316.785 75.5264C316.976 75.5264 317.158 75.496 317.331 75.4354C317.513 75.3747 317.669 75.288 317.799 75.1754L318.124 75.8384Z" fill="#0D0626"/>
<path d="M195.937 94.7544C195.939 94.9742 195.872 95.1892 195.746 95.3693C195.62 95.5494 195.441 95.6858 195.234 95.7594L190.984 97.3052L189.439 101.555C189.363 101.761 189.226 101.937 189.047 102.062C188.867 102.187 188.654 102.254 188.435 102.254C188.216 102.254 188.002 102.187 187.823 102.062C187.643 101.937 187.506 101.761 187.43 101.555L185.885 97.3005L181.636 95.7594C181.431 95.6833 181.254 95.5462 181.129 95.3665C181.004 95.1868 180.937 94.9732 180.937 94.7544C180.937 94.5355 181.004 94.3219 181.129 94.1422C181.254 93.9626 181.431 93.8254 181.636 93.7493L185.889 92.2035L187.43 87.9534C187.506 87.7482 187.643 87.5713 187.823 87.4463C188.002 87.3213 188.216 87.2544 188.435 87.2544C188.654 87.2544 188.867 87.3213 189.047 87.4463C189.226 87.5713 189.363 87.7482 189.439 87.9534L190.985 92.2082L195.234 93.7493C195.441 93.8229 195.62 93.9593 195.746 94.1394C195.872 94.3196 195.939 94.5345 195.937 94.7544Z" fill="#8465EC"/>
<path d="M221.87 92.1544V101.254H220.947V93.9744L217.372 100.097H216.917L213.342 94.0134V101.254H212.419V92.1544H213.212L217.164 98.9014L221.077 92.1544H221.87ZM227.435 101.319C226.776 101.319 226.183 101.172 225.654 100.877C225.125 100.574 224.709 100.158 224.406 99.6294C224.103 99.1007 223.951 98.5027 223.951 97.8354C223.951 97.168 224.103 96.57 224.406 96.0414C224.709 95.5127 225.125 95.101 225.654 94.8064C226.183 94.5117 226.776 94.3644 227.435 94.3644C228.094 94.3644 228.687 94.5117 229.216 94.8064C229.745 95.101 230.156 95.5127 230.451 96.0414C230.754 96.57 230.906 97.168 230.906 97.8354C230.906 98.5027 230.754 99.1007 230.451 99.6294C230.156 100.158 229.745 100.574 229.216 100.877C228.687 101.172 228.094 101.319 227.435 101.319ZM227.435 100.5C227.92 100.5 228.354 100.392 228.735 100.175C229.125 99.95 229.428 99.6337 229.645 99.2264C229.862 98.819 229.97 98.3554 229.97 97.8354C229.97 97.3154 229.862 96.8517 229.645 96.4444C229.428 96.037 229.125 95.725 228.735 95.5084C228.354 95.283 227.92 95.1704 227.435 95.1704C226.95 95.1704 226.512 95.283 226.122 95.5084C225.741 95.725 225.437 96.037 225.212 96.4444C224.995 96.8517 224.887 97.3154 224.887 97.8354C224.887 98.3554 224.995 98.819 225.212 99.2264C225.437 99.6337 225.741 99.95 226.122 100.175C226.512 100.392 226.95 100.5 227.435 100.5ZM234.623 101.319C234.069 101.319 233.536 101.241 233.024 101.085C232.522 100.921 232.127 100.717 231.841 100.474L232.257 99.7464C232.543 99.9717 232.903 100.158 233.336 100.305C233.77 100.444 234.22 100.513 234.688 100.513C235.312 100.513 235.772 100.418 236.066 100.227C236.37 100.028 236.521 99.7507 236.521 99.3954C236.521 99.144 236.439 98.949 236.274 98.8104C236.11 98.663 235.902 98.5547 235.65 98.4854C235.399 98.4074 235.065 98.3337 234.649 98.2644C234.095 98.1604 233.648 98.0564 233.31 97.9524C232.972 97.8397 232.682 97.6534 232.439 97.3934C232.205 97.1334 232.088 96.7737 232.088 96.3144C232.088 95.7424 232.327 95.2744 232.803 94.9104C233.28 94.5464 233.943 94.3644 234.792 94.3644C235.234 94.3644 235.676 94.425 236.118 94.5464C236.56 94.659 236.924 94.8107 237.21 95.0014L236.807 95.7424C236.244 95.3524 235.572 95.1574 234.792 95.1574C234.203 95.1574 233.757 95.2614 233.453 95.4694C233.159 95.6774 233.011 95.9504 233.011 96.2884C233.011 96.5484 233.094 96.7564 233.258 96.9124C233.432 97.0684 233.644 97.1854 233.895 97.2634C234.147 97.3327 234.493 97.4064 234.935 97.4844C235.481 97.5884 235.919 97.6924 236.248 97.7964C236.578 97.9004 236.859 98.078 237.093 98.3294C237.327 98.5807 237.444 98.9274 237.444 99.3694C237.444 99.9674 237.193 100.444 236.69 100.799C236.196 101.146 235.507 101.319 234.623 101.319ZM242.752 100.838C242.578 100.994 242.362 101.116 242.102 101.202C241.85 101.28 241.586 101.319 241.309 101.319C240.667 101.319 240.173 101.146 239.827 100.799C239.48 100.453 239.307 99.963 239.307 99.3304V95.1964H238.085V94.4164H239.307V92.9214H240.23V94.4164H242.31V95.1964H240.23V99.2784C240.23 99.6857 240.329 99.9977 240.529 100.214C240.737 100.422 241.031 100.526 241.413 100.526C241.603 100.526 241.785 100.496 241.959 100.435C242.141 100.375 242.297 100.288 242.427 100.175L242.752 100.838ZM247.834 94.4164H248.757V101.254H247.834V94.4164ZM248.302 92.9214C248.112 92.9214 247.951 92.8564 247.821 92.7264C247.691 92.5964 247.626 92.4404 247.626 92.2584C247.626 92.085 247.691 91.9334 247.821 91.8034C247.951 91.6734 248.112 91.6084 248.302 91.6084C248.493 91.6084 248.653 91.6734 248.783 91.8034C248.913 91.9247 248.978 92.072 248.978 92.2454C248.978 92.436 248.913 92.5964 248.783 92.7264C248.653 92.8564 248.493 92.9214 248.302 92.9214ZM259.854 94.3644C260.712 94.3644 261.383 94.6114 261.869 95.1054C262.363 95.5994 262.61 96.3274 262.61 97.2894V101.254H261.687V97.3804C261.687 96.6697 261.513 96.128 261.167 95.7554C260.829 95.3827 260.348 95.1964 259.724 95.1964C259.013 95.1964 258.454 95.4174 258.047 95.8594C257.639 96.2927 257.436 96.895 257.436 97.6664V101.254H256.513V97.3804C256.513 96.6697 256.339 96.128 255.993 95.7554C255.655 95.3827 255.169 95.1964 254.537 95.1964C253.835 95.1964 253.276 95.4174 252.86 95.8594C252.452 96.2927 252.249 96.895 252.249 97.6664V101.254H251.326V94.4164H252.21V95.6644C252.452 95.2484 252.79 94.9277 253.224 94.7024C253.657 94.477 254.155 94.3644 254.719 94.3644C255.291 94.3644 255.785 94.4857 256.201 94.7284C256.625 94.971 256.942 95.3307 257.15 95.8074C257.401 95.3567 257.761 95.0057 258.229 94.7544C258.705 94.4944 259.247 94.3644 259.854 94.3644ZM268.636 94.3644C269.277 94.3644 269.858 94.5117 270.378 94.8064C270.898 95.0924 271.305 95.4997 271.6 96.0284C271.894 96.557 272.042 97.1594 272.042 97.8354C272.042 98.52 271.894 99.1267 271.6 99.6554C271.305 100.184 270.898 100.596 270.378 100.89C269.866 101.176 269.286 101.319 268.636 101.319C268.081 101.319 267.578 101.207 267.128 100.981C266.686 100.747 266.322 100.409 266.036 99.9674V103.776H265.113V94.4164H265.997V95.7684C266.274 95.3177 266.638 94.971 267.089 94.7284C267.548 94.4857 268.064 94.3644 268.636 94.3644ZM268.571 100.5C269.047 100.5 269.481 100.392 269.871 100.175C270.261 99.95 270.564 99.6337 270.781 99.2264C271.006 98.819 271.119 98.3554 271.119 97.8354C271.119 97.3154 271.006 96.856 270.781 96.4574C270.564 96.05 270.261 95.7337 269.871 95.5084C269.481 95.283 269.047 95.1704 268.571 95.1704C268.085 95.1704 267.648 95.283 267.258 95.5084C266.876 95.7337 266.573 96.05 266.348 96.4574C266.131 96.856 266.023 97.3154 266.023 97.8354C266.023 98.3554 266.131 98.819 266.348 99.2264C266.573 99.6337 266.876 99.95 267.258 100.175C267.648 100.392 268.085 100.5 268.571 100.5ZM276.718 101.319C276.06 101.319 275.466 101.172 274.937 100.877C274.409 100.574 273.993 100.158 273.689 99.6294C273.386 99.1007 273.234 98.5027 273.234 97.8354C273.234 97.168 273.386 96.57 273.689 96.0414C273.993 95.5127 274.409 95.101 274.937 94.8064C275.466 94.5117 276.06 94.3644 276.718 94.3644C277.377 94.3644 277.971 94.5117 278.499 94.8064C279.028 95.101 279.44 95.5127 279.734 96.0414C280.038 96.57 280.189 97.168 280.189 97.8354C280.189 98.5027 280.038 99.1007 279.734 99.6294C279.44 100.158 279.028 100.574 278.499 100.877C277.971 101.172 277.377 101.319 276.718 101.319ZM276.718 100.5C277.204 100.5 277.637 100.392 278.018 100.175C278.408 99.95 278.712 99.6337 278.928 99.2264C279.145 98.819 279.253 98.3554 279.253 97.8354C279.253 97.3154 279.145 96.8517 278.928 96.4444C278.712 96.037 278.408 95.725 278.018 95.5084C277.637 95.283 277.204 95.1704 276.718 95.1704C276.233 95.1704 275.795 95.283 275.405 95.5084C275.024 95.725 274.721 96.037 274.495 96.4444C274.279 96.8517 274.17 97.3154 274.17 97.8354C274.17 98.3554 274.279 98.819 274.495 99.2264C274.721 99.6337 275.024 99.95 275.405 100.175C275.795 100.392 276.233 100.5 276.718 100.5ZM282.958 95.7554C283.174 95.296 283.495 94.9494 283.92 94.7154C284.353 94.4814 284.886 94.3644 285.519 94.3644V95.2614L285.298 95.2484C284.578 95.2484 284.015 95.4694 283.608 95.9114C283.2 96.3534 282.997 96.973 282.997 97.7704V101.254H282.074V94.4164H282.958V95.7554ZM291.083 100.838C290.909 100.994 290.693 101.116 290.433 101.202C290.181 101.28 289.917 101.319 289.64 101.319C288.998 101.319 288.504 101.146 288.158 100.799C287.811 100.453 287.638 99.963 287.638 99.3304V95.1964H286.416V94.4164H287.638V92.9214H288.561V94.4164H290.641V95.1964H288.561V99.2784C288.561 99.6857 288.66 99.9977 288.86 100.214C289.068 100.422 289.362 100.526 289.744 100.526C289.934 100.526 290.116 100.496 290.29 100.435C290.472 100.375 290.628 100.288 290.758 100.175L291.083 100.838ZM295.155 94.3644C296.048 94.3644 296.732 94.5897 297.209 95.0404C297.686 95.4824 297.924 96.141 297.924 97.0164V101.254H297.04V100.188C296.832 100.544 296.524 100.821 296.117 101.02C295.718 101.22 295.242 101.319 294.687 101.319C293.924 101.319 293.318 101.137 292.867 100.773C292.416 100.409 292.191 99.9284 292.191 99.3304C292.191 98.7497 292.399 98.2817 292.815 97.9264C293.24 97.571 293.911 97.3934 294.83 97.3934H297.001V96.9774C297.001 96.388 296.836 95.9417 296.507 95.6384C296.178 95.3264 295.697 95.1704 295.064 95.1704C294.631 95.1704 294.215 95.244 293.816 95.3914C293.417 95.53 293.075 95.725 292.789 95.9764L292.373 95.2874C292.72 94.9927 293.136 94.7674 293.621 94.6114C294.106 94.4467 294.618 94.3644 295.155 94.3644ZM294.83 100.591C295.35 100.591 295.796 100.474 296.169 100.24C296.542 99.9977 296.819 99.651 297.001 99.2004V98.0824H294.856C293.686 98.0824 293.101 98.4897 293.101 99.3044C293.101 99.703 293.253 100.019 293.556 100.253C293.859 100.479 294.284 100.591 294.83 100.591ZM303.915 94.3644C304.773 94.3644 305.453 94.6157 305.956 95.1184C306.467 95.6124 306.723 96.336 306.723 97.2894V101.254H305.8V97.3804C305.8 96.6697 305.622 96.128 305.267 95.7554C304.912 95.3827 304.405 95.1964 303.746 95.1964C303.009 95.1964 302.424 95.4174 301.991 95.8594C301.566 96.2927 301.354 96.895 301.354 97.6664V101.254H300.431V94.4164H301.315V95.6774C301.566 95.2614 301.913 94.9407 302.355 94.7154C302.806 94.4814 303.326 94.3644 303.915 94.3644ZM312.83 100.838C312.657 100.994 312.44 101.116 312.18 101.202C311.929 101.28 311.664 101.319 311.387 101.319C310.746 101.319 310.252 101.146 309.905 100.799C309.558 100.453 309.385 99.963 309.385 99.3304V95.1964H308.163V94.4164H309.385V92.9214H310.308V94.4164H312.388V95.1964H310.308V99.2784C310.308 99.6857 310.408 99.9977 310.607 100.214C310.815 100.422 311.11 100.526 311.491 100.526C311.682 100.526 311.864 100.496 312.037 100.435C312.219 100.375 312.375 100.288 312.505 100.175L312.83 100.838ZM324.152 91.6084V101.254H323.268V99.9024C322.991 100.362 322.623 100.713 322.163 100.955C321.713 101.198 321.201 101.319 320.629 101.319C319.988 101.319 319.407 101.172 318.887 100.877C318.367 100.583 317.96 100.171 317.665 99.6424C317.371 99.1137 317.223 98.5114 317.223 97.8354C317.223 97.1594 317.371 96.557 317.665 96.0284C317.96 95.4997 318.367 95.0924 318.887 94.8064C319.407 94.5117 319.988 94.3644 320.629 94.3644C321.184 94.3644 321.682 94.4814 322.124 94.7154C322.575 94.9407 322.943 95.2744 323.229 95.7164V91.6084H324.152ZM320.707 100.5C321.184 100.5 321.613 100.392 321.994 100.175C322.384 99.95 322.688 99.6337 322.904 99.2264C323.13 98.819 323.242 98.3554 323.242 97.8354C323.242 97.3154 323.13 96.8517 322.904 96.4444C322.688 96.037 322.384 95.725 321.994 95.5084C321.613 95.283 321.184 95.1704 320.707 95.1704C320.222 95.1704 319.784 95.283 319.394 95.5084C319.013 95.725 318.71 96.037 318.484 96.4444C318.268 96.8517 318.159 97.3154 318.159 97.8354C318.159 98.3554 318.268 98.819 318.484 99.2264C318.71 99.6337 319.013 99.95 319.394 100.175C319.784 100.392 320.222 100.5 320.707 100.5ZM332.677 98.1214H326.957C327.009 98.832 327.282 99.4084 327.776 99.8504C328.27 100.284 328.894 100.5 329.648 100.5C330.073 100.5 330.463 100.427 330.818 100.279C331.173 100.123 331.481 99.898 331.741 99.6034L332.261 100.201C331.958 100.565 331.576 100.843 331.117 101.033C330.666 101.224 330.168 101.319 329.622 101.319C328.92 101.319 328.296 101.172 327.75 100.877C327.213 100.574 326.792 100.158 326.489 99.6294C326.186 99.1007 326.034 98.5027 326.034 97.8354C326.034 97.168 326.177 96.57 326.463 96.0414C326.758 95.5127 327.156 95.101 327.659 94.8064C328.17 94.5117 328.742 94.3644 329.375 94.3644C330.008 94.3644 330.575 94.5117 331.078 94.8064C331.581 95.101 331.975 95.5127 332.261 96.0414C332.547 96.5614 332.69 97.1594 332.69 97.8354L332.677 98.1214ZM329.375 95.1574C328.716 95.1574 328.162 95.3697 327.711 95.7944C327.269 96.2104 327.018 96.7564 326.957 97.4324H331.806C331.745 96.7564 331.49 96.2104 331.039 95.7944C330.597 95.3697 330.042 95.1574 329.375 95.1574ZM337.403 101.319C336.727 101.319 336.12 101.172 335.583 100.877C335.054 100.583 334.638 100.171 334.335 99.6424C334.031 99.105 333.88 98.5027 333.88 97.8354C333.88 97.168 334.031 96.57 334.335 96.0414C334.638 95.5127 335.054 95.101 335.583 94.8064C336.12 94.5117 336.727 94.3644 337.403 94.3644C337.992 94.3644 338.516 94.4814 338.976 94.7154C339.444 94.9407 339.812 95.2744 340.081 95.7164L339.392 96.1844C339.166 95.8464 338.88 95.595 338.534 95.4304C338.187 95.257 337.81 95.1704 337.403 95.1704C336.909 95.1704 336.462 95.283 336.064 95.5084C335.674 95.725 335.366 96.037 335.141 96.4444C334.924 96.8517 334.816 97.3154 334.816 97.8354C334.816 98.364 334.924 98.832 335.141 99.2394C335.366 99.638 335.674 99.95 336.064 100.175C336.462 100.392 336.909 100.5 337.403 100.5C337.81 100.5 338.187 100.418 338.534 100.253C338.88 100.089 339.166 99.8374 339.392 99.4994L340.081 99.9674C339.812 100.409 339.444 100.747 338.976 100.981C338.508 101.207 337.983 101.319 337.403 101.319ZM341.894 94.4164H342.817V101.254H341.894V94.4164ZM342.362 92.9214C342.171 92.9214 342.011 92.8564 341.881 92.7264C341.751 92.5964 341.686 92.4404 341.686 92.2584C341.686 92.085 341.751 91.9334 341.881 91.8034C342.011 91.6734 342.171 91.6084 342.362 91.6084C342.553 91.6084 342.713 91.6734 342.843 91.8034C342.973 91.9247 343.038 92.072 343.038 92.2454C343.038 92.436 342.973 92.5964 342.843 92.7264C342.713 92.8564 342.553 92.9214 342.362 92.9214ZM347.218 101.319C346.663 101.319 346.13 101.241 345.619 101.085C345.116 100.921 344.722 100.717 344.436 100.474L344.852 99.7464C345.138 99.9717 345.498 100.158 345.931 100.305C346.364 100.444 346.815 100.513 347.283 100.513C347.907 100.513 348.366 100.418 348.661 100.227C348.964 100.028 349.116 99.7507 349.116 99.3954C349.116 99.144 349.034 98.949 348.869 98.8104C348.704 98.663 348.496 98.5547 348.245 98.4854C347.994 98.4074 347.66 98.3337 347.244 98.2644C346.689 98.1604 346.243 98.0564 345.905 97.9524C345.567 97.8397 345.277 97.6534 345.034 97.3934C344.8 97.1334 344.683 96.7737 344.683 96.3144C344.683 95.7424 344.921 95.2744 345.398 94.9104C345.875 94.5464 346.538 94.3644 347.387 94.3644C347.829 94.3644 348.271 94.425 348.713 94.5464C349.155 94.659 349.519 94.8107 349.805 95.0014L349.402 95.7424C348.839 95.3524 348.167 95.1574 347.387 95.1574C346.798 95.1574 346.351 95.2614 346.048 95.4694C345.753 95.6774 345.606 95.9504 345.606 96.2884C345.606 96.5484 345.688 96.7564 345.853 96.9124C346.026 97.0684 346.239 97.1854 346.49 97.2634C346.741 97.3327 347.088 97.4064 347.53 97.4844C348.076 97.5884 348.514 97.6924 348.843 97.7964C349.172 97.9004 349.454 98.078 349.688 98.3294C349.922 98.5807 350.039 98.9274 350.039 99.3694C350.039 99.9674 349.788 100.444 349.285 100.799C348.791 101.146 348.102 101.319 347.218 101.319ZM351.745 94.4164H352.668V101.254H351.745V94.4164ZM352.213 92.9214C352.023 92.9214 351.862 92.8564 351.732 92.7264C351.602 92.5964 351.537 92.4404 351.537 92.2584C351.537 92.085 351.602 91.9334 351.732 91.8034C351.862 91.6734 352.023 91.6084 352.213 91.6084C352.404 91.6084 352.564 91.6734 352.694 91.8034C352.824 91.9247 352.889 92.072 352.889 92.2454C352.889 92.436 352.824 92.5964 352.694 92.7264C352.564 92.8564 352.404 92.9214 352.213 92.9214ZM358.032 101.319C357.373 101.319 356.779 101.172 356.251 100.877C355.722 100.574 355.306 100.158 355.003 99.6294C354.699 99.1007 354.548 98.5027 354.548 97.8354C354.548 97.168 354.699 96.57 355.003 96.0414C355.306 95.5127 355.722 95.101 356.251 94.8064C356.779 94.5117 357.373 94.3644 358.032 94.3644C358.69 94.3644 359.284 94.5117 359.813 94.8064C360.341 95.101 360.753 95.5127 361.048 96.0414C361.351 96.57 361.503 97.168 361.503 97.8354C361.503 98.5027 361.351 99.1007 361.048 99.6294C360.753 100.158 360.341 100.574 359.813 100.877C359.284 101.172 358.69 101.319 358.032 101.319ZM358.032 100.5C358.517 100.5 358.95 100.392 359.332 100.175C359.722 99.95 360.025 99.6337 360.242 99.2264C360.458 98.819 360.567 98.3554 360.567 97.8354C360.567 97.3154 360.458 96.8517 360.242 96.4444C360.025 96.037 359.722 95.725 359.332 95.5084C358.95 95.283 358.517 95.1704 358.032 95.1704C357.546 95.1704 357.109 95.283 356.719 95.5084C356.337 95.725 356.034 96.037 355.809 96.4444C355.592 96.8517 355.484 97.3154 355.484 97.8354C355.484 98.3554 355.592 98.819 355.809 99.2264C356.034 99.6337 356.337 99.95 356.719 100.175C357.109 100.392 357.546 100.5 358.032 100.5ZM366.871 94.3644C367.729 94.3644 368.409 94.6157 368.912 95.1184C369.423 95.6124 369.679 96.336 369.679 97.2894V101.254H368.756V97.3804C368.756 96.6697 368.578 96.128 368.223 95.7554C367.868 95.3827 367.361 95.1964 366.702 95.1964C365.965 95.1964 365.38 95.4174 364.947 95.8594C364.522 96.2927 364.31 96.895 364.31 97.6664V101.254H363.387V94.4164H364.271V95.6774C364.522 95.2614 364.869 94.9407 365.311 94.7154C365.762 94.4814 366.282 94.3644 366.871 94.3644ZM374.018 101.319C373.463 101.319 372.93 101.241 372.419 101.085C371.916 100.921 371.522 100.717 371.236 100.474L371.652 99.7464C371.938 99.9717 372.298 100.158 372.731 100.305C373.164 100.444 373.615 100.513 374.083 100.513C374.707 100.513 375.166 100.418 375.461 100.227C375.764 100.028 375.916 99.7507 375.916 99.3954C375.916 99.144 375.834 98.949 375.669 98.8104C375.504 98.663 375.296 98.5547 375.045 98.4854C374.794 98.4074 374.46 98.3337 374.044 98.2644C373.489 98.1604 373.043 98.0564 372.705 97.9524C372.367 97.8397 372.077 97.6534 371.834 97.3934C371.6 97.1334 371.483 96.7737 371.483 96.3144C371.483 95.7424 371.721 95.2744 372.198 94.9104C372.675 94.5464 373.338 94.3644 374.187 94.3644C374.629 94.3644 375.071 94.425 375.513 94.5464C375.955 94.659 376.319 94.8107 376.605 95.0014L376.202 95.7424C375.639 95.3524 374.967 95.1574 374.187 95.1574C373.598 95.1574 373.151 95.2614 372.848 95.4694C372.553 95.6774 372.406 95.9504 372.406 96.2884C372.406 96.5484 372.488 96.7564 372.653 96.9124C372.826 97.0684 373.039 97.1854 373.29 97.2634C373.541 97.3327 373.888 97.4064 374.33 97.4844C374.876 97.5884 375.314 97.6924 375.643 97.7964C375.972 97.9004 376.254 98.078 376.488 98.3294C376.722 98.5807 376.839 98.9274 376.839 99.3694C376.839 99.9674 376.588 100.444 376.085 100.799C375.591 101.146 374.902 101.319 374.018 101.319Z" fill="#0D0626"/>
<path d="M195.937 119.754C195.939 119.974 195.872 120.189 195.746 120.369C195.62 120.549 195.441 120.686 195.234 120.759L190.984 122.305L189.439 126.555C189.363 126.761 189.226 126.937 189.047 127.062C188.867 127.187 188.654 127.254 188.435 127.254C188.216 127.254 188.002 127.187 187.823 127.062C187.643 126.937 187.506 126.761 187.43 126.555L185.885 122.301L181.636 120.759C181.431 120.683 181.254 120.546 181.129 120.366C181.004 120.187 180.937 119.973 180.937 119.754C180.937 119.536 181.004 119.322 181.129 119.142C181.254 118.963 181.431 118.825 181.636 118.749L185.889 117.203L187.43 112.953C187.506 112.748 187.643 112.571 187.823 112.446C188.002 112.321 188.216 112.254 188.435 112.254C188.654 112.254 188.867 112.321 189.047 112.446C189.226 112.571 189.363 112.748 189.439 112.953L190.985 117.208L195.234 118.749C195.441 118.823 195.62 118.959 195.746 119.139C195.872 119.32 195.939 119.534 195.937 119.754Z" fill="#8465EC"/>
<path d="M221.87 117.154V126.254H220.947V118.974L217.372 125.097H216.917L213.342 119.013V126.254H212.419V117.154H213.212L217.164 123.901L221.077 117.154H221.87ZM227.032 119.364C227.925 119.364 228.609 119.59 229.086 120.04C229.563 120.482 229.801 121.141 229.801 122.016V126.254H228.917V125.188C228.709 125.544 228.401 125.821 227.994 126.02C227.595 126.22 227.119 126.319 226.564 126.319C225.801 126.319 225.195 126.137 224.744 125.773C224.293 125.409 224.068 124.928 224.068 124.33C224.068 123.75 224.276 123.282 224.692 122.926C225.117 122.571 225.788 122.393 226.707 122.393H228.878V121.977C228.878 121.388 228.713 120.942 228.384 120.638C228.055 120.326 227.574 120.17 226.941 120.17C226.508 120.17 226.092 120.244 225.693 120.391C225.294 120.53 224.952 120.725 224.666 120.976L224.25 120.287C224.597 119.993 225.013 119.767 225.498 119.611C225.983 119.447 226.495 119.364 227.032 119.364ZM226.707 125.591C227.227 125.591 227.673 125.474 228.046 125.24C228.419 124.998 228.696 124.651 228.878 124.2V123.082H226.733C225.563 123.082 224.978 123.49 224.978 124.304C224.978 124.703 225.13 125.019 225.433 125.253C225.736 125.479 226.161 125.591 226.707 125.591ZM233.192 120.755C233.409 120.296 233.729 119.949 234.154 119.715C234.587 119.481 235.12 119.364 235.753 119.364V120.261L235.532 120.248C234.813 120.248 234.249 120.469 233.842 120.911C233.435 121.353 233.231 121.973 233.231 122.77V126.254H232.308V119.416H233.192V120.755ZM238.308 120.755C238.525 120.296 238.846 119.949 239.27 119.715C239.704 119.481 240.237 119.364 240.869 119.364V120.261L240.648 120.248C239.929 120.248 239.366 120.469 238.958 120.911C238.551 121.353 238.347 121.973 238.347 122.77V126.254H237.424V119.416H238.308V120.755ZM242.54 119.416H243.463V126.254H242.54V119.416ZM243.008 117.921C242.818 117.921 242.657 117.856 242.527 117.726C242.397 117.596 242.332 117.44 242.332 117.258C242.332 117.085 242.397 116.933 242.527 116.803C242.657 116.673 242.818 116.608 243.008 116.608C243.199 116.608 243.359 116.673 243.489 116.803C243.619 116.925 243.684 117.072 243.684 117.245C243.684 117.436 243.619 117.596 243.489 117.726C243.359 117.856 243.199 117.921 243.008 117.921ZM248.424 119.364C249.316 119.364 250.001 119.59 250.478 120.04C250.954 120.482 251.193 121.141 251.193 122.016V126.254H250.309V125.188C250.101 125.544 249.793 125.821 249.386 126.02C248.987 126.22 248.51 126.319 247.956 126.319C247.193 126.319 246.586 126.137 246.136 125.773C245.685 125.409 245.46 124.928 245.46 124.33C245.46 123.75 245.668 123.282 246.084 122.926C246.508 122.571 247.18 122.393 248.099 122.393H250.27V121.977C250.27 121.388 250.105 120.942 249.776 120.638C249.446 120.326 248.965 120.17 248.333 120.17C247.899 120.17 247.483 120.244 247.085 120.391C246.686 120.53 246.344 120.725 246.058 120.976L245.642 120.287C245.988 119.993 246.404 119.767 246.89 119.611C247.375 119.447 247.886 119.364 248.424 119.364ZM248.099 125.591C248.619 125.591 249.065 125.474 249.438 125.24C249.81 124.998 250.088 124.651 250.27 124.2V123.082H248.125C246.955 123.082 246.37 123.49 246.37 124.304C246.37 124.703 246.521 125.019 246.825 125.253C247.128 125.479 247.553 125.591 248.099 125.591ZM260.056 119.416V125.422C260.056 126.584 259.77 127.442 259.198 127.996C258.635 128.56 257.781 128.841 256.637 128.841C256.004 128.841 255.402 128.746 254.83 128.555C254.267 128.373 253.807 128.118 253.452 127.788L253.92 127.086C254.249 127.381 254.648 127.611 255.116 127.775C255.593 127.94 256.091 128.022 256.611 128.022C257.478 128.022 258.115 127.819 258.522 127.411C258.929 127.013 259.133 126.389 259.133 125.539V124.668C258.847 125.102 258.47 125.431 258.002 125.656C257.543 125.882 257.031 125.994 256.468 125.994C255.827 125.994 255.242 125.856 254.713 125.578C254.193 125.292 253.781 124.898 253.478 124.395C253.183 123.884 253.036 123.308 253.036 122.666C253.036 122.025 253.183 121.453 253.478 120.95C253.781 120.448 254.193 120.058 254.713 119.78C255.233 119.503 255.818 119.364 256.468 119.364C257.049 119.364 257.573 119.481 258.041 119.715C258.509 119.949 258.886 120.287 259.172 120.729V119.416H260.056ZM256.559 125.175C257.053 125.175 257.499 125.071 257.898 124.863C258.297 124.647 258.604 124.348 258.821 123.966C259.046 123.585 259.159 123.152 259.159 122.666C259.159 122.181 259.046 121.752 258.821 121.379C258.604 120.998 258.297 120.703 257.898 120.495C257.508 120.279 257.062 120.17 256.559 120.17C256.065 120.17 255.619 120.274 255.22 120.482C254.83 120.69 254.522 120.985 254.297 121.366C254.08 121.748 253.972 122.181 253.972 122.666C253.972 123.152 254.08 123.585 254.297 123.966C254.522 124.348 254.83 124.647 255.22 124.863C255.619 125.071 256.065 125.175 256.559 125.175ZM268.591 123.121H262.871C262.923 123.832 263.196 124.408 263.69 124.85C264.184 125.284 264.808 125.5 265.562 125.5C265.987 125.5 266.377 125.427 266.732 125.279C267.087 125.123 267.395 124.898 267.655 124.603L268.175 125.201C267.872 125.565 267.49 125.843 267.031 126.033C266.58 126.224 266.082 126.319 265.536 126.319C264.834 126.319 264.21 126.172 263.664 125.877C263.127 125.574 262.706 125.158 262.403 124.629C262.1 124.101 261.948 123.503 261.948 122.835C261.948 122.168 262.091 121.57 262.377 121.041C262.672 120.513 263.07 120.101 263.573 119.806C264.084 119.512 264.656 119.364 265.289 119.364C265.922 119.364 266.489 119.512 266.992 119.806C267.495 120.101 267.889 120.513 268.175 121.041C268.461 121.561 268.604 122.159 268.604 122.835L268.591 123.121ZM265.289 120.157C264.63 120.157 264.076 120.37 263.625 120.794C263.183 121.21 262.932 121.756 262.871 122.432H267.72C267.659 121.756 267.404 121.21 266.953 120.794C266.511 120.37 265.956 120.157 265.289 120.157ZM276.277 119.364C277.17 119.364 277.854 119.59 278.331 120.04C278.808 120.482 279.046 121.141 279.046 122.016V126.254H278.162V125.188C277.954 125.544 277.646 125.821 277.239 126.02C276.84 126.22 276.364 126.319 275.809 126.319C275.046 126.319 274.44 126.137 273.989 125.773C273.538 125.409 273.313 124.928 273.313 124.33C273.313 123.75 273.521 123.282 273.937 122.926C274.362 122.571 275.033 122.393 275.952 122.393H278.123V121.977C278.123 121.388 277.958 120.942 277.629 120.638C277.3 120.326 276.819 120.17 276.186 120.17C275.753 120.17 275.337 120.244 274.938 120.391C274.539 120.53 274.197 120.725 273.911 120.976L273.495 120.287C273.842 119.993 274.258 119.767 274.743 119.611C275.228 119.447 275.74 119.364 276.277 119.364ZM275.952 125.591C276.472 125.591 276.918 125.474 277.291 125.24C277.664 124.998 277.941 124.651 278.123 124.2V123.082H275.978C274.808 123.082 274.223 123.49 274.223 124.304C274.223 124.703 274.375 125.019 274.678 125.253C274.981 125.479 275.406 125.591 275.952 125.591ZM285.037 119.364C285.895 119.364 286.575 119.616 287.078 120.118C287.589 120.612 287.845 121.336 287.845 122.289V126.254H286.922V122.38C286.922 121.67 286.744 121.128 286.389 120.755C286.034 120.383 285.527 120.196 284.868 120.196C284.131 120.196 283.546 120.417 283.113 120.859C282.688 121.293 282.476 121.895 282.476 122.666V126.254H281.553V119.416H282.437V120.677C282.688 120.261 283.035 119.941 283.477 119.715C283.928 119.481 284.448 119.364 285.037 119.364ZM296.616 116.608V126.254H295.732V124.902C295.455 125.362 295.087 125.713 294.627 125.955C294.177 126.198 293.665 126.319 293.093 126.319C292.452 126.319 291.871 126.172 291.351 125.877C290.831 125.583 290.424 125.171 290.129 124.642C289.835 124.114 289.687 123.511 289.687 122.835C289.687 122.159 289.835 121.557 290.129 121.028C290.424 120.5 290.831 120.092 291.351 119.806C291.871 119.512 292.452 119.364 293.093 119.364C293.648 119.364 294.146 119.481 294.588 119.715C295.039 119.941 295.407 120.274 295.693 120.716V116.608H296.616ZM293.171 125.5C293.648 125.5 294.077 125.392 294.458 125.175C294.848 124.95 295.152 124.634 295.368 124.226C295.594 123.819 295.706 123.355 295.706 122.835C295.706 122.315 295.594 121.852 295.368 121.444C295.152 121.037 294.848 120.725 294.458 120.508C294.077 120.283 293.648 120.17 293.171 120.17C292.686 120.17 292.248 120.283 291.858 120.508C291.477 120.725 291.174 121.037 290.948 121.444C290.732 121.852 290.623 122.315 290.623 122.835C290.623 123.355 290.732 123.819 290.948 124.226C291.174 124.634 291.477 124.95 291.858 125.175C292.248 125.392 292.686 125.5 293.171 125.5ZM303.473 120.755C303.69 120.296 304.011 119.949 304.435 119.715C304.869 119.481 305.402 119.364 306.034 119.364V120.261L305.813 120.248C305.094 120.248 304.531 120.469 304.123 120.911C303.716 121.353 303.512 121.973 303.512 122.77V126.254H302.589V119.416H303.473V120.755ZM313.596 123.121H307.876C307.928 123.832 308.201 124.408 308.695 124.85C309.189 125.284 309.813 125.5 310.567 125.5C310.992 125.5 311.382 125.427 311.737 125.279C312.092 125.123 312.4 124.898 312.66 124.603L313.18 125.201C312.877 125.565 312.495 125.843 312.036 126.033C311.585 126.224 311.087 126.319 310.541 126.319C309.839 126.319 309.215 126.172 308.669 125.877C308.132 125.574 307.711 125.158 307.408 124.629C307.105 124.101 306.953 123.503 306.953 122.835C306.953 122.168 307.096 121.57 307.382 121.041C307.677 120.513 308.075 120.101 308.578 119.806C309.089 119.512 309.661 119.364 310.294 119.364C310.927 119.364 311.494 119.512 311.997 119.806C312.5 120.101 312.894 120.513 313.18 121.041C313.466 121.561 313.609 122.159 313.609 122.835L313.596 123.121ZM310.294 120.157C309.635 120.157 309.081 120.37 308.63 120.794C308.188 121.21 307.937 121.756 307.876 122.432H312.725C312.664 121.756 312.409 121.21 311.958 120.794C311.516 120.37 310.961 120.157 310.294 120.157ZM315.488 116.608H316.411V126.254H315.488V116.608ZM321.371 119.364C322.264 119.364 322.948 119.59 323.425 120.04C323.902 120.482 324.14 121.141 324.14 122.016V126.254H323.256V125.188C323.048 125.544 322.74 125.821 322.333 126.02C321.934 126.22 321.458 126.319 320.903 126.319C320.14 126.319 319.534 126.137 319.083 125.773C318.632 125.409 318.407 124.928 318.407 124.33C318.407 123.75 318.615 123.282 319.031 122.926C319.456 122.571 320.127 122.393 321.046 122.393H323.217V121.977C323.217 121.388 323.052 120.942 322.723 120.638C322.394 120.326 321.913 120.17 321.28 120.17C320.847 120.17 320.431 120.244 320.032 120.391C319.633 120.53 319.291 120.725 319.005 120.976L318.589 120.287C318.936 119.993 319.352 119.767 319.837 119.611C320.322 119.447 320.834 119.364 321.371 119.364ZM321.046 125.591C321.566 125.591 322.012 125.474 322.385 125.24C322.758 124.998 323.035 124.651 323.217 124.2V123.082H321.072C319.902 123.082 319.317 123.49 319.317 124.304C319.317 124.703 319.469 125.019 319.772 125.253C320.075 125.479 320.5 125.591 321.046 125.591ZM330.248 125.838C330.075 125.994 329.858 126.116 329.598 126.202C329.347 126.28 329.082 126.319 328.805 126.319C328.164 126.319 327.67 126.146 327.323 125.799C326.976 125.453 326.803 124.963 326.803 124.33V120.196H325.581V119.416H326.803V117.921H327.726V119.416H329.806V120.196H327.726V124.278C327.726 124.686 327.826 124.998 328.025 125.214C328.233 125.422 328.528 125.526 328.909 125.526C329.1 125.526 329.282 125.496 329.455 125.435C329.637 125.375 329.793 125.288 329.923 125.175L330.248 125.838ZM331.928 119.416H332.851V126.254H331.928V119.416ZM332.396 117.921C332.205 117.921 332.045 117.856 331.915 117.726C331.785 117.596 331.72 117.44 331.72 117.258C331.72 117.085 331.785 116.933 331.915 116.803C332.045 116.673 332.205 116.608 332.396 116.608C332.587 116.608 332.747 116.673 332.877 116.803C333.007 116.925 333.072 117.072 333.072 117.245C333.072 117.436 333.007 117.596 332.877 117.726C332.747 117.856 332.587 117.921 332.396 117.921ZM338.214 126.319C337.556 126.319 336.962 126.172 336.433 125.877C335.905 125.574 335.489 125.158 335.185 124.629C334.882 124.101 334.73 123.503 334.73 122.835C334.73 122.168 334.882 121.57 335.185 121.041C335.489 120.513 335.905 120.101 336.433 119.806C336.962 119.512 337.556 119.364 338.214 119.364C338.873 119.364 339.467 119.512 339.995 119.806C340.524 120.101 340.936 120.513 341.23 121.041C341.534 121.57 341.685 122.168 341.685 122.835C341.685 123.503 341.534 124.101 341.23 124.629C340.936 125.158 340.524 125.574 339.995 125.877C339.467 126.172 338.873 126.319 338.214 126.319ZM338.214 125.5C338.7 125.5 339.133 125.392 339.514 125.175C339.904 124.95 340.208 124.634 340.424 124.226C340.641 123.819 340.749 123.355 340.749 122.835C340.749 122.315 340.641 121.852 340.424 121.444C340.208 121.037 339.904 120.725 339.514 120.508C339.133 120.283 338.7 120.17 338.214 120.17C337.729 120.17 337.291 120.283 336.901 120.508C336.52 120.725 336.217 121.037 335.991 121.444C335.775 121.852 335.666 122.315 335.666 122.835C335.666 123.355 335.775 123.819 335.991 124.226C336.217 124.634 336.52 124.95 336.901 125.175C337.291 125.392 337.729 125.5 338.214 125.5ZM347.054 119.364C347.912 119.364 348.592 119.616 349.095 120.118C349.606 120.612 349.862 121.336 349.862 122.289V126.254H348.939V122.38C348.939 121.67 348.761 121.128 348.406 120.755C348.05 120.383 347.543 120.196 346.885 120.196C346.148 120.196 345.563 120.417 345.13 120.859C344.705 121.293 344.493 121.895 344.493 122.666V126.254H343.57V119.416H344.454V120.677C344.705 120.261 345.052 119.941 345.494 119.715C345.944 119.481 346.464 119.364 347.054 119.364ZM354.201 126.319C353.646 126.319 353.113 126.241 352.602 126.085C352.099 125.921 351.705 125.717 351.419 125.474L351.835 124.746C352.121 124.972 352.48 125.158 352.914 125.305C353.347 125.444 353.798 125.513 354.266 125.513C354.89 125.513 355.349 125.418 355.644 125.227C355.947 125.028 356.099 124.751 356.099 124.395C356.099 124.144 356.016 123.949 355.852 123.81C355.687 123.663 355.479 123.555 355.228 123.485C354.976 123.407 354.643 123.334 354.227 123.264C353.672 123.16 353.226 123.056 352.888 122.952C352.55 122.84 352.259 122.653 352.017 122.393C351.783 122.133 351.666 121.774 351.666 121.314C351.666 120.742 351.904 120.274 352.381 119.91C352.857 119.546 353.52 119.364 354.37 119.364C354.812 119.364 355.254 119.425 355.696 119.546C356.138 119.659 356.502 119.811 356.788 120.001L356.385 120.742C355.821 120.352 355.15 120.157 354.37 120.157C353.78 120.157 353.334 120.261 353.031 120.469C352.736 120.677 352.589 120.95 352.589 121.288C352.589 121.548 352.671 121.756 352.836 121.912C353.009 122.068 353.221 122.185 353.473 122.263C353.724 122.333 354.071 122.406 354.513 122.484C355.059 122.588 355.496 122.692 355.826 122.796C356.155 122.9 356.437 123.078 356.671 123.329C356.905 123.581 357.022 123.927 357.022 124.369C357.022 124.967 356.77 125.444 356.268 125.799C355.774 126.146 355.085 126.319 354.201 126.319ZM362.212 119.364C363.07 119.364 363.75 119.616 364.253 120.118C364.764 120.612 365.02 121.336 365.02 122.289V126.254H364.097V122.38C364.097 121.67 363.919 121.128 363.564 120.755C363.209 120.383 362.702 120.196 362.043 120.196C361.306 120.196 360.721 120.417 360.288 120.859C359.863 121.293 359.651 121.895 359.651 122.666V126.254H358.728V116.608H359.651V120.612C359.902 120.214 360.249 119.906 360.691 119.689C361.133 119.473 361.64 119.364 362.212 119.364ZM367.526 119.416H368.449V126.254H367.526V119.416ZM367.994 117.921C367.803 117.921 367.643 117.856 367.513 117.726C367.383 117.596 367.318 117.44 367.318 117.258C367.318 117.085 367.383 116.933 367.513 116.803C367.643 116.673 367.803 116.608 367.994 116.608C368.184 116.608 368.345 116.673 368.475 116.803C368.605 116.925 368.67 117.072 368.67 117.245C368.67 117.436 368.605 117.596 368.475 117.726C368.345 117.856 368.184 117.921 367.994 117.921ZM374.54 119.364C375.181 119.364 375.762 119.512 376.282 119.806C376.802 120.092 377.209 120.5 377.504 121.028C377.799 121.557 377.946 122.159 377.946 122.835C377.946 123.52 377.799 124.127 377.504 124.655C377.209 125.184 376.802 125.596 376.282 125.89C375.771 126.176 375.19 126.319 374.54 126.319C373.985 126.319 373.483 126.207 373.032 125.981C372.59 125.747 372.226 125.409 371.94 124.967V128.776H371.017V119.416H371.901V120.768C372.178 120.318 372.542 119.971 372.993 119.728C373.452 119.486 373.968 119.364 374.54 119.364ZM374.475 125.5C374.952 125.5 375.385 125.392 375.775 125.175C376.165 124.95 376.468 124.634 376.685 124.226C376.91 123.819 377.023 123.355 377.023 122.835C377.023 122.315 376.91 121.856 376.685 121.457C376.468 121.05 376.165 120.734 375.775 120.508C375.385 120.283 374.952 120.17 374.475 120.17C373.99 120.17 373.552 120.283 373.162 120.508C372.781 120.734 372.477 121.05 372.252 121.457C372.035 121.856 371.927 122.315 371.927 122.835C371.927 123.355 372.035 123.819 372.252 124.226C372.477 124.634 372.781 124.95 373.162 125.175C373.552 125.392 373.99 125.5 374.475 125.5ZM381.661 126.319C381.106 126.319 380.573 126.241 380.062 126.085C379.559 125.921 379.165 125.717 378.879 125.474L379.295 124.746C379.581 124.972 379.94 125.158 380.374 125.305C380.807 125.444 381.258 125.513 381.726 125.513C382.35 125.513 382.809 125.418 383.104 125.227C383.407 125.028 383.559 124.751 383.559 124.395C383.559 124.144 383.476 123.949 383.312 123.81C383.147 123.663 382.939 123.555 382.688 123.485C382.436 123.407 382.103 123.334 381.687 123.264C381.132 123.16 380.686 123.056 380.348 122.952C380.01 122.84 379.719 122.653 379.477 122.393C379.243 122.133 379.126 121.774 379.126 121.314C379.126 120.742 379.364 120.274 379.841 119.91C380.317 119.546 380.98 119.364 381.83 119.364C382.272 119.364 382.714 119.425 383.156 119.546C383.598 119.659 383.962 119.811 384.248 120.001L383.845 120.742C383.281 120.352 382.61 120.157 381.83 120.157C381.24 120.157 380.794 120.261 380.491 120.469C380.196 120.677 380.049 120.95 380.049 121.288C380.049 121.548 380.131 121.756 380.296 121.912C380.469 122.068 380.681 122.185 380.933 122.263C381.184 122.333 381.531 122.406 381.973 122.484C382.519 122.588 382.956 122.692 383.286 122.796C383.615 122.9 383.897 123.078 384.131 123.329C384.365 123.581 384.482 123.927 384.482 124.369C384.482 124.967 384.23 125.444 383.728 125.799C383.234 126.146 382.545 126.319 381.661 126.319Z" fill="#0D0626"/>
<g clip-path="url(#clip0_2_2037)">
<path d="M40.4191 86.362C40.3755 86.362 40.3327 86.3503 40.2952 86.3283C40.2577 86.3062 40.2267 86.2744 40.2055 86.2364C36.9373 80.3513 35.3772 72.1706 36.2284 65.3945C36.6903 61.7304 37.686 58.3678 39.1889 55.4009C40.5669 52.6632 42.4352 50.2015 44.7011 48.1377C48.8547 44.3642 54.2539 42.014 60.3145 41.34C66.4239 40.6611 72.7022 41.7663 77.9945 44.4521C80.7101 45.8309 83.0741 47.576 85.0201 49.6408C87.0438 51.7696 88.6063 54.2933 89.6098 57.0539C89.6237 57.0847 89.631 57.1179 89.6314 57.1517C89.6317 57.1854 89.6251 57.2188 89.6119 57.2498C89.5987 57.2809 89.5793 57.3088 89.5547 57.332C89.5302 57.3551 89.5012 57.3729 89.4694 57.3842C89.4377 57.3956 89.4039 57.4003 89.3703 57.3979C89.3367 57.3956 89.3039 57.3863 89.274 57.3707C89.2441 57.3551 89.2178 57.3334 89.1967 57.3071C89.1756 57.2808 89.1602 57.2505 89.1514 57.2179C84.9112 45.4841 71.463 40.5927 60.3696 41.8256C47.2374 43.2854 38.3949 52.1193 36.7161 65.4552C35.8747 72.135 37.4139 80.1992 40.6333 85.9991C40.6539 86.0363 40.6645 86.0782 40.664 86.1208C40.6635 86.1633 40.6518 86.205 40.6303 86.2416C40.6087 86.2783 40.5779 86.3087 40.541 86.3298C40.5041 86.3509 40.4623 86.362 40.4198 86.362H40.4191Z" fill="url(#paint0_linear_2_2037)"/>
<path d="M132.771 100.213C132.724 100.213 132.677 100.199 132.637 100.173C132.598 100.147 132.566 100.11 132.547 100.067C132.528 100.024 132.522 99.9757 132.53 99.929C132.537 99.8822 132.558 99.8387 132.59 99.8037C137.45 94.4608 144.77 82.0578 146.385 75.1986C148.089 67.9634 147.425 62.9289 144.354 59.7994C143.093 58.5141 141.453 57.9084 139.867 57.3223C137.416 56.4152 135.101 55.5625 135.086 52.2836C135.063 47.4836 132.823 43.4428 129.093 41.4737C124.126 38.8521 117.26 40.2023 109.759 45.2765C109.706 45.3128 109.64 45.3263 109.576 45.314C109.513 45.3017 109.457 45.2646 109.42 45.211C109.384 45.1573 109.371 45.0914 109.383 45.0278C109.395 44.9642 109.432 44.9081 109.486 44.8718C117.143 39.6922 124.187 38.3323 129.321 41.0417C131.264 42.0682 132.867 43.6744 133.956 45.6875C135.002 47.6246 135.56 49.9049 135.574 52.2808C135.588 55.222 137.65 55.9832 140.036 56.8645C141.596 57.4402 143.365 58.0933 144.703 59.4568C147.9 62.7154 148.606 67.8999 146.861 75.3103C145.23 82.2357 137.846 94.7476 132.952 100.131C132.929 100.156 132.901 100.177 132.87 100.191C132.839 100.205 132.805 100.212 132.771 100.213Z" fill="url(#paint1_linear_2_2037)"/>
<path d="M90.9657 58.1996H90.9441C90.9121 58.1969 90.881 58.1879 90.8525 58.1731C90.824 58.1583 90.7988 58.1381 90.7782 58.1135C90.7575 58.0889 90.742 58.0605 90.7324 58.0299C90.7228 57.9993 90.7193 57.9671 90.7222 57.9352C90.9685 55.0987 91.7688 52.5253 93.0945 50.2861C94.3461 48.1746 96.0688 46.3809 98.128 45.0451C100.5 43.4968 103.345 42.5185 106.361 42.2177C109.404 41.9142 112.629 42.3015 115.687 43.3384C115.749 43.3592 115.799 43.4035 115.828 43.4616C115.857 43.5197 115.861 43.5868 115.84 43.6482C115.819 43.7095 115.775 43.7601 115.717 43.7888C115.659 43.8174 115.592 43.8218 115.53 43.801C109.511 41.7607 103.106 42.3789 98.398 45.454C94.2269 48.1789 91.6739 52.6265 91.2113 57.9777C91.2055 58.0388 91.1771 58.0954 91.1316 58.1365C91.0862 58.1775 91.027 58.2001 90.9657 58.1996Z" fill="url(#paint2_linear_2_2037)"/>
<path d="M53.8383 47.0868C58.1643 44.8819 62.9871 43.7236 68.0025 43.9559C72.5936 44.1687 77.1164 45.5985 81.1039 47.8635C82.5546 48.6882 88.35 53.1359 90.8953 57.5298C96.0272 47.1441 110.727 39.876 120.941 43.069C134.799 47.4015 131.37 54.3591 137.514 58.8074C140.536 60.9963 142.184 62.7394 143.468 66.6113C145.325 72.2117 143.468 78.8867 141.734 84.277C137.588 97.1642 129.724 108.592 120.718 118.398C114.901 124.732 108.711 130.679 102.707 136.82C98.9389 140.671 92.8623 149.712 92.5197 150.275C84.6659 143.946 70.3608 128.377 65.6413 120.21C61.9475 113.819 56.5658 107.462 51.937 101.719C43.9883 91.8521 33.7517 81.8382 37.1916 68.1834C38.5013 62.985 41.025 57.9959 44.6721 54.0681C47.3284 51.2051 50.4312 48.8222 53.8383 47.0868Z" fill="url(#paint3_linear_2_2037)"/>
<path d="M78.6433 109.166C81.8418 119.22 86.9967 144.536 100.685 134.73C110.035 128.031 118.044 115.17 118.982 105.674C119.906 96.3134 120.804 85.0681 107.202 81.6866C98.3406 79.4838 92.4886 84.2628 84.4555 85.2641C81.5878 85.6214 78.1758 84.2803 76.1433 86.869C74.7709 88.6177 74.8616 92.0242 74.9802 94.068C75.2872 99.2713 77.0769 104.243 78.6433 109.166Z" fill="#E3BC75"/>
<path d="M106.077 118.592C109.519 131.16 99.3455 136.999 94.1962 138.232C79.7153 141.699 77.2194 122.96 76.4819 113.221C75.8756 105.215 75.9168 97.1718 76.2726 89.1564C76.4282 85.6724 76.6438 82.6301 77.2822 79.2564C77.5516 77.8357 78.6352 69.7415 77.4071 68.8637C83.2577 73.0503 84.672 79.8132 87.7979 85.8476C90.9984 92.025 94.9302 97.7635 98.2689 103.854C100.878 108.613 104.638 113.333 106.077 118.592Z" fill="#C49F5C"/>
<path d="M99.2346 90.421C100.075 90.3668 100.909 90.2388 101.728 90.0386C102.785 89.7797 109.403 85.5087 109.156 85.3161C108.034 84.4445 106.072 83.407 105.378 82.0463C104.801 80.9131 104.82 78.2957 104.55 77.0711C102.167 81.3792 98.9548 82.407 94.4328 82.3142C97.1128 82.3694 94.9791 87.5134 94.1411 88.2453C94.9114 90.1531 97.1679 90.5459 99.2346 90.421Z" fill="#FFC595"/>
<path d="M104.55 77.0711C102.167 81.3792 98.9552 82.4077 94.4331 82.3142C95.6248 83.3609 95.5697 84.4187 95.472 85.6057C98.1807 86.3488 101.231 86.226 102.857 83.4021C103.661 82.0065 104.405 80.5907 104.794 79.0626C104.723 78.2971 104.661 77.5693 104.55 77.0711Z" fill="#CD9160"/>
<path d="M103.127 81.534C104.277 79.5363 105.305 77.5015 105.347 75.1507C108.043 76.72 110.148 69.0801 106.188 70.7645C106.79 66.6197 106.585 65.0644 103.393 63.7686C100.271 62.5014 92.8956 61.1024 89.7237 62.828C84.9623 65.4181 85.2825 74.7837 88.1384 78.5001C89.6037 80.4071 91.8916 82.2262 94.1069 83.171C97.3214 84.54 101.116 85.0271 103.127 81.534Z" fill="#FFC595"/>
<path d="M92.0777 78.5775C91.6079 78.5773 91.148 78.443 90.752 78.1902C90.7244 78.1733 90.7005 78.151 90.6816 78.1247C90.6628 78.0984 90.6493 78.0687 90.642 78.0371C90.6347 78.0056 90.6338 77.973 90.6392 77.9411C90.6447 77.9092 90.6564 77.8787 90.6737 77.8514C90.6911 77.824 90.7137 77.8004 90.7402 77.7819C90.7667 77.7634 90.7967 77.7503 90.8283 77.7435C90.8599 77.7367 90.8926 77.7362 90.9244 77.7421C90.9562 77.748 90.9866 77.7601 91.0136 77.7778C91.2979 77.9589 91.6236 78.0646 91.96 78.085C92.2965 78.1054 92.6325 78.0398 92.9366 77.8944C93.2247 77.7615 93.4735 77.5565 93.659 77.2991C93.8445 77.0418 93.9602 76.7408 93.9951 76.4255C94.0029 76.3608 94.036 76.3017 94.0873 76.2614C94.1386 76.2211 94.2038 76.2028 94.2686 76.2106C94.3334 76.2184 94.3924 76.2516 94.4327 76.3029C94.473 76.3542 94.4913 76.4194 94.4835 76.4841C94.4395 76.8817 94.2934 77.2611 94.0595 77.5856C93.8257 77.91 93.5119 78.1686 93.1487 78.336C92.814 78.495 92.4482 78.5774 92.0777 78.5775Z" fill="#18173E"/>
<path d="M97.5692 75.4388C97.2422 75.4404 96.92 75.3608 96.6314 75.2072C96.6022 75.1926 96.5762 75.1723 96.5549 75.1475C96.5336 75.1227 96.5176 75.0939 96.5076 75.0628C96.4977 75.0316 96.4941 74.9988 96.4971 74.9663C96.5001 74.9338 96.5096 74.9022 96.525 74.8734C96.5404 74.8446 96.5614 74.8191 96.5868 74.7986C96.6122 74.7781 96.6415 74.7629 96.6729 74.7538C96.7043 74.7448 96.7371 74.7422 96.7696 74.7461C96.802 74.75 96.8333 74.7604 96.8617 74.7766C97.3452 75.0348 97.9487 75.0027 98.5181 74.688C99.1356 74.3468 99.5647 73.7404 99.6038 73.1431C99.6083 73.0784 99.6384 73.018 99.6874 72.9754C99.7364 72.9329 99.8003 72.9115 99.8651 72.916C99.9299 72.9205 99.9902 72.9506 100.033 72.9996C100.075 73.0486 100.097 73.1125 100.092 73.1773C100.038 73.9449 99.5263 74.6901 98.756 75.1157C98.3942 75.3223 97.9858 75.4334 97.5692 75.4388Z" fill="#18173E"/>
<path d="M96.2432 79.7356C96.2112 79.7357 96.1794 79.7295 96.1498 79.7173C96.1202 79.7051 96.0932 79.6872 96.0705 79.6646C96.0479 79.6419 96.0299 79.6151 96.0176 79.5855C96.0053 79.5559 95.999 79.5242 95.999 79.4921C95.999 78.7246 95.8462 77.9633 95.5106 77.0171C95.4986 76.9866 95.4929 76.9541 95.4937 76.9214C95.4946 76.8887 95.502 76.8565 95.5156 76.8267C95.5291 76.7969 95.5485 76.7701 95.5726 76.748C95.5967 76.7258 95.625 76.7088 95.6558 76.6978C95.6867 76.6868 95.7194 76.6821 95.752 76.684C95.7847 76.6859 95.8167 76.6943 95.846 76.7088C95.8753 76.7233 95.9015 76.7436 95.9228 76.7684C95.9442 76.7931 95.9604 76.822 95.9704 76.8531C96.2844 77.7309 96.4462 78.465 96.4825 79.1872C96.9647 79.0609 97.3247 78.8739 97.5759 78.6192C97.6214 78.5729 97.6834 78.5467 97.7483 78.5461C97.8132 78.5456 97.8757 78.5709 97.922 78.6164C97.9682 78.6619 97.9945 78.724 97.995 78.7889C97.9956 78.8538 97.9703 78.9162 97.9247 78.9625C97.5549 79.3372 97.0219 79.5905 96.2941 79.7301C96.2774 79.7336 96.2603 79.7354 96.2432 79.7356Z" fill="#18173E"/>
<path d="M97.1297 81.9313C96.6148 81.9313 96.1257 81.8378 95.7342 81.6466C95.7027 81.6346 95.6741 81.6162 95.6501 81.5925C95.626 81.5689 95.6072 81.5405 95.5946 81.5092C95.5821 81.4779 95.5762 81.4444 95.5773 81.4107C95.5783 81.377 95.5864 81.3439 95.6009 81.3134C95.6154 81.283 95.636 81.2559 95.6615 81.2338C95.687 81.2118 95.7167 81.1952 95.7489 81.1852C95.7811 81.1752 95.815 81.172 95.8485 81.1757C95.882 81.1795 95.9144 81.1901 95.9436 81.207C96.6329 81.5405 97.8916 81.574 98.9648 80.9935C99.553 80.6746 100.286 80.0487 100.437 78.875C100.44 78.8425 100.45 78.8109 100.465 78.7822C100.481 78.7535 100.502 78.7282 100.528 78.7078C100.553 78.6874 100.583 78.6724 100.614 78.6636C100.646 78.6548 100.679 78.6524 100.711 78.6566C100.744 78.6607 100.775 78.6713 100.803 78.6878C100.831 78.7043 100.856 78.7262 100.876 78.7524C100.895 78.7786 100.909 78.8084 100.917 78.8401C100.925 78.8719 100.926 78.9048 100.921 78.9371C100.744 80.3159 99.8858 81.05 99.1971 81.4226C98.5594 81.7573 97.8499 81.9319 97.1297 81.9313Z" fill="#18173E"/>
<path d="M84.4079 143.627C86.2332 142.192 81.8179 135.615 81.3497 134.16C80.2333 130.681 82.1556 129.219 78.0075 127.37C75.984 126.466 74.71 125.506 73.2859 123.822C69.8774 127.036 72.2079 132.364 74.2418 135.642C75.4772 137.632 76.9583 139.459 78.6501 141.079C79.4748 141.867 81.4055 143.571 82.5686 143.807C83.4659 143.991 84.0541 143.906 84.4079 143.627Z" fill="#CD9160"/>
<path d="M87.4772 146.622C87.7089 146.648 88.0054 146.752 88.175 146.582C88.7974 145.954 87.8261 141.273 87.4075 140.162C86.8493 138.672 86.6093 137.219 86.5974 135.564C86.5862 133.985 87.3879 132.564 87.0565 130.95C86.513 128.299 82.8331 126.309 81.5639 123.81C76.873 125.686 78.6822 131.719 79.9758 135.261C80.7713 137.439 84.0395 146.232 87.4772 146.622Z" fill="#FFC595"/>
<path d="M76.4793 68.1156C60.0824 60.6731 61.4214 86.9395 64.0595 95.5515C66.3572 103.047 68.9772 111.537 71.4849 119.023C73.2495 124.291 74.555 127.946 78.6779 129.734C80.4921 130.521 84.2689 128.556 84.8139 127.413C85.8898 125.157 85.3072 120.004 85.3511 117.427C85.4795 109.85 85.5074 102.736 85.0197 95.1949C84.5257 87.5263 85.0364 72.0008 76.4793 68.1156Z" fill="#DBB775"/>
<path d="M71.0842 100.459C69.9231 96.8753 69.0524 93.2022 68.2318 89.5347C67.2661 85.2155 67.4713 79.2774 64.3775 75.8932C56.6835 67.4738 47.2291 72.5362 45.5454 82.1034C43.8799 91.5674 47.7705 101.839 53.0811 109.32C56.941 114.756 59.7891 119.564 63.9847 124.747C66.0081 127.243 68.9868 131.546 72.5766 131.824C83.8975 132.703 72.3289 104.309 71.0842 100.459Z" fill="#DBB775"/>
<path d="M59.8183 109.132C59.9662 106.785 57.0399 105.221 55.7421 103.679C54.4722 102.172 53.4863 100.652 52.4962 98.9769C50.1309 94.9751 50.874 99.8017 51.8417 102.024C50.1902 101.47 49.8615 100.899 49.0242 99.2937C47.8179 96.982 46.0149 95.8502 46.024 97.2701C46.0595 102.664 47.9079 105.877 51.0212 107.353C51.0219 107.354 54.729 109.519 59.8183 109.132Z" fill="#FFC595"/>
<path opacity="0.7" d="M45.9833 118.527C45.9254 117.131 46.0433 113.9 45.296 112.708C43.9333 110.538 42.4283 112.563 42.3439 114.4C41.367 113.617 39.6415 113.966 39.9506 115.442C40.372 117.458 45.4056 118.197 45.9833 118.527Z" fill="#8465EC"/>
<path d="M75.5496 127.325C75.5125 127.325 75.4759 127.316 75.4426 127.3C75.4092 127.284 75.38 127.26 75.3571 127.231C74.4563 126.082 70.8441 119.137 67.6624 109.551C64.8512 101.078 61.7183 88.4466 62.7628 76.3793C62.7685 76.3145 62.7996 76.2546 62.8494 76.2128C62.8992 76.171 62.9636 76.1507 63.0283 76.1563C63.0931 76.162 63.153 76.1931 63.1948 76.2429C63.2366 76.2927 63.2569 76.3571 63.2512 76.4218C62.2116 88.4082 65.3291 100.968 68.1264 109.397C71.2439 118.789 74.884 125.836 75.7415 126.93C75.7814 126.981 75.7995 127.045 75.7918 127.11C75.7841 127.174 75.7512 127.232 75.7004 127.272C75.6573 127.306 75.6043 127.324 75.5496 127.325Z" fill="#C49F5C"/>
<path opacity="0.7" d="M54.9901 133.499C56.3047 133.834 57.4643 134.167 58.7028 134.728C57.8264 132.778 57.0031 130.839 56.6919 128.711C56.4128 126.787 56.5314 124.74 55.8051 122.902C54.9434 120.723 51.5935 118.576 49.6761 120.868C48.7642 121.959 48.7551 123.425 49.0398 124.738C47.1614 124.319 45.9097 124.843 45.6208 126.852C45.4038 128.353 45.7436 130.161 47.1154 131.001C49.547 132.492 52.2564 132.802 54.9901 133.499Z" fill="#8465EC"/>
<path opacity="0.7" d="M148.602 105.763C146.657 104.801 143.415 106.069 142.446 107.972C143.934 105.402 142.114 102.758 139.22 103.345C136.817 103.833 135.654 106.981 135.238 109.078C134.98 110.38 134.878 115.887 133.985 117.678C136.652 117.184 156.417 109.629 148.602 105.763Z" fill="#8465EC"/>
<path d="M115.193 97.2999C116.379 93.9763 117.554 90.5928 115.174 87.5205C113.284 85.0783 109.95 83.4518 107.15 84.7294C102.218 86.9769 101.15 92.1956 97.0904 95.4054C88.4642 102.232 77.4846 105.249 66.6598 104.248C63.4935 103.956 60.1645 103.69 56.98 103.822C56.7135 106.229 55.8309 107.827 55.498 110.06C62.5383 112.281 70.1464 115.409 77.5557 115.536C102.75 115.971 113.21 102.853 115.193 97.2999Z" fill="#FFDEA2"/>
<path d="M81.4924 69.6548C81.3026 71.9574 82.8097 73.9154 83.9638 75.8838C84.538 76.8607 85.7081 79.6909 86.9396 79.6127C88.4049 79.5192 89.5213 77.1935 90.0097 76.0722C90.7228 74.4192 91.1128 72.5917 91.3096 70.8068C95.7751 76.2397 100.984 69.8732 105.936 69.6338C107.365 69.5641 108.805 69.8132 109.941 70.6875C110.182 66.1275 107.505 63.1661 103.391 61.5843C101.335 60.7937 98.8382 59.9445 96.6138 60.4211C95.0334 60.7588 93.9247 60.6807 92.3576 61.0219C90.0191 61.5203 87.7574 62.328 85.6321 63.4236C84.4711 64.027 83.4823 64.9152 82.7583 66.005C82.0342 67.0948 81.5987 68.3506 81.4924 69.6548Z" fill="url(#paint4_linear_2_2037)"/>
<path d="M67.6659 117.326C66.0423 116.242 62.377 114.913 60.7213 114.761C63.0469 114.87 64.6503 114.683 64.5903 114.304C64.9566 113.309 63.7335 112.789 58.8235 112.875C56.3514 112.919 55.265 111.499 54.0983 110.83C53.2701 114.954 55.9892 117.811 58.0413 119.181C59.1423 119.915 63.6295 120.792 66.357 120.298C68.6267 119.878 69.1989 118.35 67.6659 117.326Z" fill="#FFC595"/>
<path d="M105.872 73.8789C105.762 73.8781 105.652 73.8598 105.548 73.8245C105.517 73.8151 105.488 73.7995 105.463 73.7787C105.438 73.7579 105.417 73.7324 105.402 73.7035C105.387 73.6747 105.378 73.6431 105.375 73.6107C105.373 73.5782 105.377 73.5456 105.387 73.5147C105.397 73.4838 105.413 73.4552 105.434 73.4306C105.456 73.406 105.482 73.386 105.511 73.3716C105.54 73.3573 105.572 73.3489 105.604 73.347C105.637 73.345 105.669 73.3496 105.7 73.3605C105.909 73.4302 106.071 73.3835 106.188 73.2209C106.343 73.0067 106.35 72.6787 106.254 72.5496C106.235 72.5245 106.191 72.4645 106.026 72.5217C105.965 72.5416 105.899 72.5368 105.842 72.5084C105.784 72.48 105.74 72.4303 105.719 72.3698C105.698 72.3094 105.702 72.2432 105.729 72.1853C105.756 72.1275 105.805 72.0827 105.865 72.0605C106.185 71.9496 106.47 72.0214 106.645 72.258C106.881 72.5727 106.855 73.1323 106.585 73.5056C106.505 73.6211 106.399 73.7155 106.275 73.7806C106.151 73.8456 106.013 73.8794 105.872 73.8789Z" fill="#18173E"/>
<path opacity="0.7" d="M139.126 50.1959C141.162 49.3648 146.237 47.9504 147.398 46.0567C149.7 42.3068 146.072 41.7207 143.304 42.5797C143.942 40.7089 142.499 38.3337 140.474 39.5841C137.707 41.293 138.842 49.3502 139.126 50.1959Z" fill="#8465EC"/>
<path opacity="0.7" d="M120.507 129.661C121.841 129.536 125.05 129.607 126.061 128.709C128.065 126.928 126.056 125.946 124.288 125.958C124.99 124.981 124.567 123.34 123.167 123.711C121.253 124.219 120.565 129.089 120.507 129.661Z" fill="#8465EC"/>
<g opacity="0.3">
<path d="M115.659 74.8323H115.628C115.564 74.8237 115.506 74.7901 115.467 74.739C115.428 74.6879 115.41 74.6234 115.418 74.5595C115.763 71.7984 114.821 69.1866 112.833 67.3885C110.844 65.5903 108.088 64.9211 105.285 65.5659C104.077 65.845 102.773 66.6125 101.399 67.4254C98.321 69.2397 94.833 71.3016 91.0582 68.6424C91.0299 68.6249 91.0054 68.6019 90.9863 68.5747C90.9672 68.5475 90.9538 68.5166 90.947 68.484C90.9402 68.4515 90.9402 68.4179 90.9469 68.3853C90.9535 68.3527 90.9668 68.3218 90.9859 68.2945C91.0049 68.2672 91.0293 68.2441 91.0576 68.2266C91.0859 68.2091 91.1175 68.1976 91.1504 68.1927C91.1833 68.1878 91.2169 68.1897 91.249 68.1983C91.2812 68.2069 91.3112 68.2219 91.3373 68.2425C94.8547 70.7203 98.0538 68.8315 101.148 67.0047C102.559 66.1715 103.892 65.3844 105.174 65.09C108.131 64.4089 111.041 65.1151 113.158 67.0263C115.275 68.9375 116.266 71.7014 115.901 74.6202C115.893 74.6789 115.864 74.7328 115.819 74.7718C115.775 74.8108 115.718 74.8323 115.659 74.8323Z" fill="#D6D8E5"/>
</g>
<g opacity="0.3">
<path d="M133.404 81.9269C133.359 81.9269 133.316 81.9149 133.278 81.8922C133.24 81.8694 133.209 81.8368 133.188 81.7977C133.167 81.7586 133.157 81.7146 133.159 81.6704C133.162 81.6262 133.176 81.5834 133.201 81.5466C135.167 78.6055 135.69 75.1229 134.671 71.7421C133.609 68.2149 131.017 65.3623 127.561 63.9152C127.501 63.8902 127.454 63.8425 127.429 63.7825C127.404 63.7226 127.405 63.6553 127.43 63.5956C127.455 63.5358 127.502 63.4884 127.562 63.4638C127.622 63.4392 127.689 63.4394 127.749 63.4644C131.341 64.9681 134.035 67.9337 135.14 71.6012C135.662 73.3109 135.795 75.1159 135.53 76.8839C135.264 78.6519 134.606 80.338 133.605 81.8187C133.582 81.8517 133.552 81.8787 133.517 81.8976C133.482 81.9164 133.443 81.9265 133.404 81.9269Z" fill="#D6D8E5"/>
</g>
<g opacity="0.3">
<path d="M42.7713 88.7811C42.7203 88.7809 42.6706 88.7648 42.6292 88.7351C42.5878 88.7053 42.5567 88.6633 42.5403 88.6151C41.3263 85.0112 40.9037 81.188 41.3011 77.406C41.6772 73.8473 42.7748 70.7073 44.3907 68.5721C47.1775 64.8864 50.6885 64.9479 54.4054 65.0134C56.5475 65.0504 58.7628 65.0895 60.8944 64.3743C63.564 63.4797 63.9024 61.7925 64.261 60.0069C64.531 58.6609 64.8108 57.2688 66.0465 56.121C68.7579 53.6034 72.375 52.7947 76.5057 53.7841C82.7386 55.2767 88.4496 60.4235 89.873 64.294C89.8841 64.3241 89.8891 64.3561 89.8878 64.3882C89.8866 64.4202 89.879 64.4517 89.8656 64.4808C89.8521 64.51 89.8331 64.5362 89.8095 64.5579C89.7859 64.5797 89.7583 64.5966 89.7282 64.6077C89.6981 64.6188 89.6661 64.6238 89.6341 64.6225C89.602 64.6213 89.5705 64.6137 89.5414 64.6003C89.5123 64.5868 89.4861 64.5678 89.4643 64.5442C89.4426 64.5206 89.4257 64.493 89.4146 64.4629C88.7168 62.5649 86.9655 60.3802 84.6106 58.4683C82.0855 56.4182 79.1682 54.9236 76.3919 54.2593C73.6156 53.595 69.6462 53.445 66.3793 56.4789C65.2581 57.5193 64.995 58.8332 64.7396 60.1032C64.3698 61.9467 63.9875 63.853 61.0493 64.8376C58.8354 65.5793 56.5775 65.5396 54.3942 65.5019C50.8051 65.4391 47.4168 65.3798 44.778 68.868C43.2136 70.9362 42.151 73.9869 41.7847 77.4583C41.3943 81.1699 41.8089 84.922 43.0001 88.4588C43.0104 88.4891 43.0147 88.5212 43.0126 88.5533C43.0105 88.5853 43.0021 88.6166 42.9879 88.6453C42.9737 88.6741 42.954 88.6998 42.9299 88.7209C42.9057 88.7421 42.8777 88.7583 42.8473 88.7686C42.8228 88.7769 42.7971 88.7811 42.7713 88.7811Z" fill="#D6D8E5"/>
</g>
</g>
<defs>
<linearGradient id="paint0_linear_2_2037" x1="62.8152" y1="41.1448" x2="44.8756" y2="78.4166" gradientUnits="userSpaceOnUse">
<stop stop-color="#8465EC"/>
<stop offset="1" stop-color="#413580"/>
</linearGradient>
<linearGradient id="paint1_linear_2_2037" x1="128.585" y1="39.6794" x2="128.585" y2="100.213" gradientUnits="userSpaceOnUse">
<stop stop-color="#8465EC"/>
<stop offset="1" stop-color="#302864"/>
</linearGradient>
<linearGradient id="paint2_linear_2_2037" x1="103.287" y1="42.1173" x2="103.287" y2="58.1996" gradientUnits="userSpaceOnUse">
<stop stop-color="#8465EC"/>
<stop offset="1" stop-color="#453887"/>
</linearGradient>
<linearGradient id="paint3_linear_2_2037" x1="74.0338" y1="42.3096" x2="103.716" y2="127.24" gradientUnits="userSpaceOnUse">
<stop stop-color="#8465EC"/>
<stop offset="1" stop-color="#46367D"/>
</linearGradient>
<linearGradient id="paint4_linear_2_2037" x1="87.3398" y1="59.3634" x2="90.2987" y2="69.4299" gradientUnits="userSpaceOnUse">
<stop stop-color="#795CD7"/>
<stop offset="1" stop-color="#6D54C2"/>
</linearGradient>
<clipPath id="clip0_2_2037">
<rect width="114.418" height="111.037" fill="white" transform="translate(36 39.2361)"/>
</clipPath>
</defs>
</svg>
