<svg width="256" height="291" viewBox="0 0 256 291" fill="none" xmlns="http://www.w3.org/2000/svg">
<g clip-path="url(#clip0_259_134)">
<path fill-rule="evenodd" clip-rule="evenodd" d="M155.791 4.57322C158.138 4.036 159.952 3.11122 162.854 2.19027C192.761 -7.29163 225.821 19.7209 223.695 46.7026C222.44 62.6273 204.27 74.8778 206.561 90.5032C209.813 112.671 244.822 127.828 215.052 145.789C202.52 153.348 179.83 150.545 165.448 145.981C139.266 137.663 109.412 158.329 84.4382 144.588C73.8993 138.79 60.5936 128.544 63.0885 115.85C65.3838 104.162 81.5515 92.2511 91.3126 86.8981C100.87 81.6544 110.289 74.6188 112.04 64.0932C114.758 47.7848 105.493 33.4736 117.114 18.1533C122.496 11.0544 132.778 5.78196 142.187 4.7977C145.542 4.44659 148.974 5.15073 152.266 5.02218C153.452 4.98465 154.633 4.83433 155.791 4.57322Z" fill="#1B1952"/>
<path fill-rule="evenodd" clip-rule="evenodd" d="M185.106 117.709C179.292 120.81 125.668 136.105 106.057 104.839C106.61 105.718 131.919 99.4671 135.152 94.2522C138.299 89.1621 140.157 83.0819 141.463 76.4875C143.403 79.8145 144.865 82.679 148.418 84.2926C149.629 84.8413 161.991 87.7883 161.988 87.5753C162.067 92.0438 162.282 96.2361 163.302 100.027C166.504 111.957 184.254 117.312 185.106 117.709Z" fill="#FFC595"/>
<path fill-rule="evenodd" clip-rule="evenodd" d="M163.295 100.027C161.442 100.757 159.534 101.335 157.59 101.754C148.462 103.719 140.618 101.073 135.15 94.2484C138.298 89.1582 140.155 83.0781 141.462 76.4837C143.402 79.8106 144.864 82.6751 148.416 84.2887C149.628 84.8374 161.99 87.7845 161.986 87.5715C162.06 92.0438 162.408 96.2015 163.295 100.027Z" fill="#BC885D"/>
<path fill-rule="evenodd" clip-rule="evenodd" d="M134.208 58.8418C131.222 60.724 128.092 56.0483 127.932 49.5019C127.778 43.0284 134.261 39.3658 137.458 45.3941C140.727 48.4639 156.879 50.8814 161.652 39.9049C162.295 51.6719 174.013 49.5844 182.028 56.4627C186.815 60.5744 188.819 63.9051 188.452 69.6726C187.767 80.4399 173.608 93.1298 163.293 94.9391C152.928 96.7579 130.716 95.9617 134.208 58.8418Z" fill="#FFC595"/>
<path fill-rule="evenodd" clip-rule="evenodd" d="M185.081 116.445C184.33 116.332 183.592 116.148 182.919 116.505C180.047 118.024 170.885 121.927 153.253 121.397C130.116 120.699 110.976 107.391 106.591 104.101C105.988 103.648 105.246 103.744 104.499 103.796C51.5765 107.456 6.80057 135.3 0.970147 186.715C-6.21424 250.095 71.3174 278.952 71.3174 278.952C71.3174 278.952 78.4029 258.347 79.7873 255.982C69.0621 244.589 61.5487 229.543 59.8677 216.266C52.7441 160.031 101.934 160.113 115.812 167.782C133.005 177.277 134.984 188.517 139.805 201.909C153.902 151.286 199.136 167.254 202.342 169.457C221.815 182.815 230.6 208.565 197.83 250.477C196.932 251.628 198.839 252.288 198.971 253.739C202.245 287.789 257.086 229.614 255.449 195.163C252.931 141.575 215.587 120.977 185.081 116.445Z" fill="#E3BC75"/>
<path fill-rule="evenodd" clip-rule="evenodd" d="M136.799 268.852C131.889 274.017 123.518 273.624 123.79 274.005C124.729 275.316 140.089 272.735 141.895 273.046C144.976 273.591 141.755 275.32 136.15 276.987C126.865 279.748 123.242 278.152 123.757 279.161C124.594 280.469 132.456 280.619 136.905 280.464C137.666 280.437 139.788 280.333 140.286 280.31C142.489 280.205 144.683 282.392 139.621 283.624C130.179 285.926 123.706 283.934 123.52 284.719C123.16 286.254 142.646 284.652 140.634 288.048C140.383 289.303 105.854 295.849 68.9922 277.925L79.5444 255.721C82.6364 258.643 89.701 265.767 93.548 263.635C95.1777 262.73 97.8666 261.302 99.6732 260.861C101.699 260.375 103.773 260.129 105.855 260.128C108.137 260.116 111.345 260.544 113.606 260.867C116.158 261.231 117.725 261.701 120.277 262.066C121.177 262.189 122.067 262.378 122.94 262.632C123.822 262.895 124.676 263.088 125.349 263.783C125.495 263.914 125.607 264.08 125.672 264.266C125.707 264.4 125.711 264.54 125.684 264.676C125.657 264.812 125.599 264.939 125.516 265.049C124.925 265.89 123.314 265.89 122.394 265.989C121.645 266.072 120.892 266.12 120.141 266.156C117.847 266.264 115.535 266.193 113.247 266.402C113.108 266.415 111.977 266.461 112.051 266.766C112.361 268.029 114.451 269.274 115.567 269.698C118.039 270.64 120.654 271.093 123.158 270.506C126.783 269.658 131.592 267.722 135.122 266.588C137.297 265.893 139.026 266.511 136.799 268.852Z" fill="#FFC595"/>
<path fill-rule="evenodd" clip-rule="evenodd" d="M155.654 266.607C161.834 270.122 169.736 267.304 169.583 267.747C169.06 269.282 153.61 271.285 151.98 272.119C149.188 273.539 152.765 274.255 158.609 274.217C168.288 274.153 171.299 271.567 171.095 272.682C170.669 274.178 163.186 276.613 158.881 277.762C158.147 277.954 156.084 278.478 155.599 278.601C153.463 279.142 151.986 281.876 157.187 281.58C166.885 281.024 172.512 277.236 172.915 277.935C173.695 279.291 154.585 283.449 157.481 286.114C158.08 287.242 192.96 283.781 223.114 255.874L206.937 237.611C204.545 241.274 199.857 249.932 195.565 249.011C193.744 248.628 190.762 248.039 188.91 248.142C186.831 248.268 184.775 248.638 182.781 249.244C180.594 249.898 177.646 251.243 175.574 252.212C173.235 253.305 171.867 254.211 169.528 255.305C168.701 255.684 167.903 256.126 167.14 256.625C166.379 257.133 165.618 257.567 165.158 258.418C165.058 258.588 165 258.78 164.989 258.977C164.995 259.116 165.033 259.251 165.099 259.373C165.165 259.495 165.257 259.6 165.369 259.681C166.176 260.312 167.718 259.842 168.629 259.669C169.37 259.529 170.104 259.357 170.835 259.172C173.061 258.597 175.254 257.864 177.504 257.398C177.639 257.369 178.738 257.085 178.753 257.398C178.818 258.697 177.173 260.498 176.226 261.235C174.134 262.858 171.757 264.053 169.19 264.222C165.476 264.466 160.317 264.017 156.612 263.959C154.33 263.921 152.851 265.015 155.654 266.607Z" fill="#FFC595"/>
<path d="M163.368 76.6333C162.342 76.6049 161.327 76.4146 160.36 76.0693C160.301 76.0468 160.248 76.013 160.202 75.9697C160.157 75.9265 160.12 75.8746 160.094 75.817C160.069 75.7595 160.055 75.6974 160.053 75.6344C160.051 75.5713 160.062 75.5085 160.084 75.4495C160.106 75.3906 160.14 75.3366 160.182 75.2907C160.225 75.2448 160.277 75.2079 160.334 75.1821C160.391 75.1563 160.452 75.142 160.515 75.1402C160.577 75.1383 160.64 75.1489 160.698 75.1713C161.548 75.4726 162.439 75.6421 163.339 75.674C163.482 75.1445 163.609 74.6265 163.733 74.1238C164.351 71.6295 164.933 69.2581 167.179 66.2574C167.216 66.207 167.263 66.1645 167.317 66.1324C167.371 66.1003 167.43 66.0792 167.492 66.0703C167.554 66.0614 167.617 66.0649 167.677 66.0805C167.738 66.0961 167.794 66.1236 167.844 66.1614C167.894 66.1992 167.936 66.2466 167.968 66.3008C168 66.355 168.021 66.415 168.03 66.4773C168.039 66.5397 168.035 66.6032 168.02 66.6642C168.004 66.7252 167.977 66.7826 167.939 66.833C165.81 69.686 165.277 71.854 164.655 74.3636C164.505 74.9776 164.347 75.6126 164.163 76.2822C164.137 76.3744 164.084 76.4566 164.011 76.5182C163.938 76.5798 163.849 76.6179 163.754 76.6276C163.626 76.6366 163.497 76.6385 163.368 76.6333Z" fill="#1B1952"/>
<path d="M157.958 85.1022C157.929 85.1051 157.9 85.1051 157.872 85.1022C155.084 84.588 148.602 82.5063 148.602 74.2888C148.602 74.1616 148.652 74.0396 148.741 73.9496C148.83 73.8597 148.951 73.8091 149.077 73.8091C149.203 73.8091 149.324 73.8597 149.413 73.9496C149.502 74.0396 149.552 74.1616 149.552 74.2888C149.552 81.5144 154.877 83.575 158.043 84.1583C158.169 84.1697 158.286 84.2312 158.367 84.3293C158.448 84.4273 158.487 84.5539 158.476 84.6811C158.464 84.8083 158.403 84.9258 158.306 85.0076C158.209 85.0895 158.084 85.129 157.958 85.1176V85.1022Z" fill="#1B1952"/>
<path fill-rule="evenodd" clip-rule="evenodd" d="M161.075 62.9995C161.074 63.3614 160.966 63.7147 160.765 64.0147C160.564 64.3147 160.28 64.5481 159.948 64.6853C159.616 64.8226 159.252 64.8576 158.9 64.786C158.548 64.7144 158.226 64.5393 157.973 64.2829C157.72 64.0264 157.547 63.7001 157.478 63.3451C157.408 62.99 157.445 62.6222 157.582 62.2879C157.719 61.9536 157.952 61.6679 158.25 61.4667C158.548 61.2656 158.899 61.158 159.258 61.1577C159.497 61.1582 159.734 61.2062 159.954 61.299C160.175 61.3919 160.376 61.5277 160.545 61.6987C160.713 61.8698 160.847 62.0727 160.938 62.2959C161.029 62.5191 161.076 62.7582 161.075 62.9995Z" fill="#1B1952"/>
<path fill-rule="evenodd" clip-rule="evenodd" d="M175.954 71.9039C175.953 72.266 175.845 72.6195 175.645 72.9198C175.444 73.2201 175.16 73.4538 174.828 73.5913C174.496 73.7288 174.131 73.764 173.779 73.6924C173.428 73.6209 173.105 73.4457 172.851 73.1892C172.598 72.9326 172.426 72.6061 172.357 72.2509C172.287 71.8957 172.324 71.5277 172.461 71.1933C172.599 70.859 172.832 70.5732 173.13 70.3722C173.429 70.1712 173.779 70.064 174.138 70.064C174.377 70.0645 174.614 70.1125 174.834 70.2052C175.055 70.2979 175.255 70.4336 175.424 70.6045C175.593 70.7753 175.726 70.978 175.817 71.201C175.908 71.424 175.955 71.6628 175.954 71.9039Z" fill="#1B1952"/>
<path fill-rule="evenodd" clip-rule="evenodd" d="M165.59 55.8871C165.362 56.8369 162.928 57.0498 160.17 56.3649C157.413 55.6799 155.35 54.3561 155.578 53.4083C155.806 52.4605 158.24 52.2456 160.999 52.9305C163.759 53.6155 165.82 54.9393 165.59 55.8871Z" fill="#1B1952"/>
<path fill-rule="evenodd" clip-rule="evenodd" d="M183.474 68.1242C182.848 68.9703 180.342 68.1357 177.876 66.2631C175.409 64.3906 173.92 62.1822 174.548 61.3361C175.175 60.49 177.68 61.3246 180.144 63.1991C182.609 65.0736 184.102 67.2819 183.474 68.1242Z" fill="#1B1952"/>
</g>
<defs>
<clipPath id="clip0_259_134">
<rect width="255" height="290" fill="white" transform="translate(0.5 0.254364)"/>
</clipPath>
</defs>
</svg>
