<svg width="561" height="386" viewBox="0 0 561 386" fill="none" xmlns="http://www.w3.org/2000/svg">
<g clip-path="url(#clip0_13_1262)">
<path d="M439.235 307.02C436.665 297.836 432.789 296.891 420.145 294.248C386.813 287.287 352.058 289.186 322.772 296.032C305.031 300.183 285.587 296.202 269.146 301.654C254.694 306.446 243.278 315.631 225.361 315.071C204.515 314.42 188.979 301.777 169.099 297.525C150.236 293.49 148.088 304.937 132.709 306.529C125.227 307.303 116.266 305.014 109.244 306.902C90.5619 311.925 111.88 328.112 124.154 332.93C131.339 335.735 138.771 337.861 146.352 339.281C170.215 343.799 200.519 343.714 219.198 335.007C242.82 323.998 272.731 330.917 299.265 343.701C311.466 349.58 331.571 359.948 344.929 356.695C353.945 354.499 358.805 348.65 369.727 348.757C379.328 348.85 388.42 351.526 397.645 349.879C420.09 345.869 444.754 326.729 439.235 307.02Z" fill="url(#paint0_linear_13_1262)"/>
<path d="M519.144 192.4C526.672 191.279 534.02 189.175 541.002 186.142C552.898 180.926 572.369 161.437 552.393 152.84C544.886 149.612 536.012 151.775 528.201 149.991C521.579 148.476 517.926 144.776 512.539 141.098C492.79 127.59 452.36 134.537 438.697 154.935C436.325 158.476 431.648 166.738 436.618 169.958C442.825 173.976 449.759 162.272 455.588 171.901C457.492 175.041 455.942 178.89 458.186 181.838C462.761 187.844 471.914 183.441 477.718 182.266C487.809 180.226 488.316 184.02 495.415 189.403C502.459 194.742 510.956 193.652 519.144 192.4Z" fill="url(#paint1_linear_13_1262)"/>
<path d="M323.337 0.0082348C312.09 0.0018667 300.873 1.18509 289.874 3.53821C353.725 10.1645 403.503 64.1709 403.503 129.816C403.503 199.938 346.698 256.785 276.626 256.785C230.63 256.785 190.351 232.292 168.101 195.628C184.064 264.751 245.318 312.617 320.729 312.617C408.709 312.617 472.136 243.95 472.136 155.909C472.136 67.8684 411.318 0.0082348 323.337 0.0082348Z" fill="#C49F5C"/>
<path d="M371.993 201.604C371.601 202.839 371.464 203.962 371.669 204.914C373.521 213.528 383.826 206.674 387.189 202.493C392.823 195.494 399.063 162.266 402.179 153.971C404.099 148.835 403.885 148.264 406.896 142.055C408.775 138.177 409.288 128.424 408.844 127.59C406.943 126.618 406.512 135.487 405.552 135.534C404.729 135.116 404.181 132.075 404.318 130.812C404.661 127.304 403.114 119.009 402.041 117.886C399.485 115.18 400.61 120.244 399.71 127.768C398.775 135.613 399.299 140.164 397.79 147.941C395.98 157.361 374.149 194.808 371.993 201.604Z" fill="#FFC595"/>
<path d="M189.199 36.406C181.469 41.5253 174.012 46.3975 164.398 49.7985C154.156 53.4163 142.304 57.1768 131.916 55.9306C120.188 54.5197 109.899 49.1809 97.6303 48.1625C87.3237 47.2894 76.9453 47.8845 66.8058 49.9302C57.3922 51.8517 48.4668 54.9205 39.3906 57.6737C36.6121 58.5136 23.2871 62.631 22.7797 63.2623C22.4588 64.0858 30.5887 66.7155 30.5311 66.7512C27.8842 68.3569 3.42862 79.2982 1.61831 80.388C-1.26172 82.12 0.0630972 83.0533 2.5701 84.3763C9.42457 87.9859 43.0825 94.1785 60.9333 125.325C72.7853 145.989 95.0657 154.888 123.833 160.803C122.355 160.501 115.33 163.304 113.325 163.628C107.713 164.525 103.286 164.515 109.386 168.02C114.751 171.1 122.511 172.637 128.466 175.203C190.046 201.777 211.186 176.164 231.28 168.692C251.671 161.114 255.692 177.149 278.027 179.59C298.382 181.813 307.82 179.826 325.161 173.485C351.515 163.847 349.724 161.542 348.432 141.795C347.293 124.392 365.062 128.158 374.489 114.112C387.106 95.3313 386.264 71.8155 359.727 66.1775C360.385 62.255 357.807 38.0694 324.681 41.1986C307.401 42.8456 301.188 39.0384 291.218 29.5656C284.059 22.7692 273.587 17.842 262.966 15.5088C243.434 11.2185 220.567 17.5538 201.959 28.3222C197.392 30.9683 193.258 33.7214 189.199 36.406Z" fill="url(#paint2_linear_13_1262)"/>
<path d="M384.177 200.262C384.923 189.71 372.215 172.834 367.794 165.95C364.607 160.987 351.885 133.996 343.697 135.989C332.144 138.797 344.869 159.34 348.404 164.877C354.425 174.269 361.09 183.232 368.351 191.7C371.047 194.862 381.075 209.688 385.806 200.374C386.297 199.433 384.103 201.415 384.177 200.262Z" fill="#FFC595"/>
<path d="M321.115 135.742C322.319 140.93 327.229 152.19 332.808 152.272C337.235 152.335 340.658 147.919 342.455 143.584C343.053 142.135 342.301 139.022 342.606 137.482C335.85 133.64 337.493 125.976 337.773 121.049C335.836 127.54 328.447 129.368 322.539 127.068C324.239 127.732 325.084 130.793 325.301 132.377C325.66 135.017 324.73 136.346 321.115 135.742Z" fill="#FFC595"/>
<path d="M337.353 128.452C337.315 125.72 337.666 122.934 337.773 121.04C335.836 127.532 328.447 129.36 322.539 127.06C324.239 127.724 325.084 130.785 325.301 132.369C325.386 132.94 325.372 133.521 325.26 134.087C327.117 134.636 329.133 135.018 330.803 134.91C333.453 134.784 335.828 131.254 337.353 128.452Z" fill="#CD9160"/>
<path d="M341.67 112.078C346.761 110.936 345.873 101.186 341.317 104.236C342.57 99.5009 336.319 90.6732 332.208 88.7298C327.646 86.5723 318.693 87.8432 315.114 91.3649C305.552 100.772 307.628 123.234 323.633 130.099C325.998 131.111 329.445 132.116 332.051 131.971C335.422 131.781 338.36 126.116 339.635 123.442C342.027 118.452 341.832 112.042 341.67 112.078Z" fill="#FFC595"/>
<path d="M322.045 114.041C320.432 115.034 318.394 116.141 315.967 115.454C315.967 115.858 316.916 117.812 316.916 117.812C316.916 117.812 321.335 116.895 322.045 114.041Z" fill="#171657"/>
<path d="M328.291 111.06C330.142 110.67 332.383 110.069 333.675 107.903C333.949 108.178 334.605 110.267 334.605 110.267C334.605 110.267 330.767 112.641 328.291 111.06Z" fill="#171657"/>
<path d="M325.954 120.343H325.784C325.651 120.336 325.526 120.28 325.431 120.187C325.336 120.095 325.278 119.97 325.268 119.838C325.164 118.573 324.445 114.074 323.183 111.515C323.147 111.45 323.123 111.379 323.115 111.304C323.107 111.23 323.114 111.155 323.136 111.084C323.158 111.012 323.194 110.946 323.243 110.889C323.291 110.832 323.351 110.786 323.418 110.753C323.484 110.72 323.557 110.701 323.632 110.697C323.707 110.693 323.781 110.704 323.851 110.73C323.921 110.756 323.985 110.796 324.039 110.847C324.093 110.899 324.136 110.961 324.165 111.03C325.359 113.437 326.085 117.455 326.305 119.22C326.981 119.125 327.609 118.818 328.099 118.342C328.196 118.233 328.332 118.167 328.478 118.158C328.624 118.15 328.767 118.2 328.876 118.297C328.985 118.394 329.051 118.531 329.06 118.677C329.068 118.822 329.019 118.966 328.922 119.075C328.135 119.868 327.07 120.323 325.954 120.343Z" fill="#171657"/>
<path d="M328.313 125.605C327.073 125.576 325.871 125.176 324.862 124.455C324.804 124.413 324.754 124.36 324.716 124.298C324.678 124.237 324.653 124.169 324.641 124.097C324.629 124.026 324.632 123.953 324.648 123.883C324.665 123.813 324.695 123.746 324.737 123.688C324.779 123.629 324.833 123.58 324.894 123.542C324.955 123.504 325.024 123.478 325.095 123.466C325.166 123.455 325.239 123.457 325.309 123.474C325.379 123.491 325.445 123.521 325.504 123.563C326.417 124.224 327.907 124.738 329.174 124.386C331.064 123.879 331.429 122.116 331.497 121.589C331.515 121.444 331.591 121.311 331.706 121.221C331.822 121.131 331.969 121.091 332.114 121.109C332.26 121.127 332.392 121.202 332.482 121.318C332.572 121.434 332.612 121.581 332.594 121.727C332.411 123.168 331.497 124.902 329.465 125.446C329.09 125.551 328.702 125.605 328.313 125.605Z" fill="#171657"/>
<path d="M319.201 111.771C313.153 116.437 308.092 119.094 304.737 126.5C302.014 132.52 304.438 135.053 306.035 140.595C288.48 131.079 294.364 97.2775 307.011 85.8806C315.224 78.4692 325.745 84.2116 325.688 94.4722C325.649 101.422 325.098 107.203 319.201 111.771Z" fill="url(#paint3_linear_13_1262)"/>
<path d="M341.314 104.208C344.112 102.712 346.449 102.012 347.557 105.306C348.552 98.2959 347.425 91.3073 341.734 86.5064C336.991 82.496 331.659 84.7606 326.505 82.5537C323.779 81.3843 317.728 76.5148 318.507 83.1027C319.116 88.2055 322.462 92.8252 325.249 96.9508C329.053 102.572 335.409 107.371 341.314 104.208Z" fill="url(#paint4_linear_13_1262)"/>
<path d="M308.054 334.889C308.308 335.695 308.492 336.522 308.602 337.36C309.842 347.431 302.897 358.241 305.725 367.483C308.997 378.171 312.788 360.994 314.244 357.538C316.211 352.871 325.312 329.117 330.702 319.875C334.945 312.598 331.006 310.204 326.722 309.093C321.458 307.72 319.168 312.255 315.786 314.857C313.208 316.836 309.016 316.902 306.759 319.224C302.379 323.726 306.411 329.531 308.054 334.889Z" fill="#FFC595"/>
<path d="M357.45 353.173C357.844 353.836 358.175 354.533 358.44 355.257C361.529 363.961 356.496 375.783 360.909 383.428C366.022 392.272 366.219 375.742 366.924 372.366C367.961 367.381 373.359 346.78 375.669 335.655C376.911 329.666 373.617 326.567 370.002 326.462C364.809 326.311 363.531 330.799 360.857 333.791C358.819 336.072 354.905 336.976 353.232 339.498C349.998 344.392 354.886 348.74 357.45 353.173Z" fill="#FFC595"/>
<path d="M343.47 145.901C345.81 144.427 343.39 138.852 341.572 136.772C348.297 137.905 357.884 158.182 356.109 170.751C354.817 179.848 344.899 198.977 336.942 201.511C322.613 206.073 331.44 215.537 318.499 223.319C308.962 229.053 290.354 231.793 284.761 242.309C283.595 224.313 296.904 208.055 301.951 191.33C305.434 179.801 306.087 170.117 309.442 158.514C310.854 153.623 312.459 148.835 313.556 143.856C314.19 140.979 313.021 136.824 315.3 134.625C318.841 131.205 321.982 135.174 324.036 137.801C328.447 143.439 338.42 149.083 343.47 145.901Z" fill="#0D003A"/>
<path d="M424.039 194.272L423.93 194.25C425.194 197.316 425.611 200.701 425.197 204.503C424.648 209.405 422.728 215.046 419.278 221.749C412.953 234.052 402.074 248.951 388.486 267.005C380.924 283.614 366.62 320.695 363.191 330.687C366.208 336.844 370.542 337.788 375.005 339.032C394.553 313.449 433.639 251.282 434.742 209.745C434.94 202.211 430.504 195.744 424.039 194.272Z" fill="#0D003A"/>
<path d="M390.713 260.974C390.626 261.136 390.538 261.303 390.439 261.479C402.456 245.429 412.064 231.999 417.829 220.78C424.44 207.92 425.51 198.939 421.269 191.868C418.696 188.467 414.618 186.21 409.165 185.321C396.704 183.287 379.879 186.32 367.646 188.909C356.655 191.231 311.836 202.211 297.548 211.206C281.593 221.249 277.753 251.394 293.656 261.88C326.36 283.441 362.972 240.725 363.657 240.296C359.017 245.924 322.015 308.585 319.393 311.234C321.845 317.05 327.232 320.643 330.046 321.017C347.282 308.884 384.808 270.139 390.713 260.974Z" fill="#0D003A"/>
<path d="M300.083 161.41C301.857 154.303 305.099 137.073 313.117 133.931C328.71 127.818 323.814 153.42 318.457 166.189C312.837 179.601 305.409 192.474 299.833 205.716C296.405 213.852 294.191 219.204 291.41 227.541C289.745 232.539 282.572 254.112 279.24 256.489C275.742 258.987 258.619 262.687 258.789 262.056C259.271 260.285 264.351 259.585 263.726 257.348C263.366 256.651 262.651 256.596 261.578 256.708C258.599 257.024 247.428 257.499 246.155 256.665C243.505 254.93 252.897 254.438 259.252 251.998C265.503 249.596 271.483 250.9 275.844 251.592C278.014 244.686 284.152 213.553 286.215 206.556C294.136 179.741 294.224 184.876 300.083 161.41Z" fill="#FFC595"/>
<path opacity="0.3" d="M149.86 106.193C147.853 106.163 148.174 109.02 150.019 109.048C152.036 109.075 151.715 106.218 149.86 106.193Z" fill="#CDD2EE"/>
<path opacity="0.3" d="M283.568 319.63C281.56 319.603 281.881 322.46 283.727 322.485C285.735 322.515 285.414 319.658 283.568 319.63Z" fill="#CDD2EE"/>
<path opacity="0.3" d="M174.47 323.053C172.462 323.026 172.783 325.883 174.629 325.908C176.636 325.936 176.316 323.086 174.47 323.053Z" fill="#CDD2EE"/>
<path opacity="0.3" d="M293.785 127.765C292.26 127.743 292.502 129.917 293.909 129.937C295.434 129.959 295.19 127.785 293.785 127.765Z" fill="#CDD2EE"/>
<path opacity="0.3" d="M283.019 145.489C280.735 145.456 280.987 148.509 283.124 148.542C285.408 148.572 285.153 145.517 283.019 145.489Z" fill="#CDD2EE"/>
<path opacity="0.3" d="M87.5173 121.079C85.2297 121.046 85.4848 124.098 87.6215 124.131C89.9064 124.164 89.6513 121.109 87.5173 121.079Z" fill="#CDD2EE"/>
<path opacity="0.3" d="M281.039 58.961C278.57 59.3398 279.393 62.5816 281.703 62.2275C284.166 61.8514 283.343 58.6097 281.039 58.961Z" fill="#CDD2EE"/>
<path opacity="0.3" d="M496.498 166.837C493.755 167.257 494.674 170.861 497.233 170.468C499.973 170.048 499.057 166.444 496.498 166.837Z" fill="#CDD2EE"/>
<path opacity="0.3" d="M166.449 164.138C164.889 164.377 165.41 166.43 166.869 166.205C168.427 165.967 167.906 163.916 166.449 164.138Z" fill="#CDD2EE"/>
<path opacity="0.3" d="M413.924 308.294C412.363 308.533 412.887 310.586 414.343 310.361C415.904 310.122 415.372 308.071 413.924 308.294Z" fill="#CDD2EE"/>
<path opacity="0.3" d="M481.873 145.764C480.153 146.038 480.729 148.289 482.337 148.045C484.057 147.781 483.48 145.517 481.873 145.764Z" fill="#CDD2EE"/>
<path opacity="0.3" d="M186.439 116.827C186.371 116.747 186.287 116.682 186.193 116.635C186.098 116.588 185.996 116.56 185.891 116.552C185.661 116.533 185.431 116.594 185.241 116.725C185.204 116.751 185.169 116.78 185.137 116.81C184.965 116.836 184.806 116.912 184.677 117.028C184.549 117.144 184.458 117.296 184.415 117.464C184.395 117.565 184.397 117.669 184.42 117.769C184.444 117.869 184.489 117.963 184.552 118.044C184.616 118.125 184.696 118.191 184.787 118.239C184.879 118.286 184.979 118.313 185.082 118.317C185.347 118.33 185.612 118.299 185.866 118.224C186.045 118.162 186.204 118.053 186.326 117.908C186.448 117.763 186.529 117.588 186.56 117.401C186.581 117.302 186.581 117.2 186.56 117.101C186.539 117.002 186.498 116.909 186.439 116.827Z" fill="#CDD2EE"/>
<path opacity="0.3" d="M274.678 323.056C274.61 322.975 274.527 322.909 274.432 322.862C274.338 322.815 274.235 322.787 274.13 322.782C273.899 322.76 273.668 322.82 273.477 322.952L273.373 323.037C273.201 323.063 273.041 323.139 272.913 323.256C272.785 323.372 272.694 323.525 272.651 323.693C272.631 323.794 272.633 323.898 272.656 323.998C272.68 324.098 272.725 324.191 272.788 324.272C272.852 324.353 272.932 324.419 273.023 324.466C273.115 324.513 273.215 324.539 273.318 324.544C273.583 324.558 273.848 324.527 274.102 324.45C274.282 324.389 274.441 324.28 274.563 324.135C274.685 323.99 274.766 323.814 274.796 323.627C274.817 323.529 274.818 323.427 274.797 323.329C274.777 323.231 274.736 323.138 274.678 323.056Z" fill="#CDD2EE"/>
<path opacity="0.3" d="M246.136 102.669C246.088 102.584 246.021 102.512 245.94 102.458C245.86 102.404 245.768 102.369 245.672 102.356C245.569 102.346 245.466 102.358 245.368 102.392C245.27 102.427 245.181 102.481 245.107 102.553C245.075 102.583 245.045 102.615 245.017 102.649C244.851 102.7 244.704 102.797 244.592 102.93C244.481 103.062 244.41 103.224 244.388 103.396C244.309 103.865 244.591 104.357 244.964 104.362C245.196 104.376 245.427 104.339 245.642 104.252C245.812 104.16 245.956 104.026 246.062 103.864C246.167 103.701 246.23 103.515 246.245 103.322C246.282 103.098 246.243 102.868 246.136 102.669Z" fill="#CDD2EE"/>
<path opacity="0.3" d="M247.982 317.956C247.933 317.873 247.866 317.801 247.785 317.747C247.705 317.693 247.614 317.657 247.518 317.643C247.415 317.633 247.31 317.646 247.212 317.68C247.114 317.715 247.025 317.771 246.95 317.843C246.918 317.873 246.889 317.905 246.863 317.94C246.696 317.989 246.548 318.086 246.437 318.219C246.325 318.351 246.255 318.514 246.234 318.686C246.152 319.153 246.435 319.644 246.808 319.65C247.04 319.664 247.272 319.626 247.488 319.54C247.658 319.447 247.802 319.314 247.908 319.151C248.013 318.989 248.076 318.802 248.091 318.609C248.128 318.385 248.089 318.156 247.982 317.956Z" fill="#CDD2EE"/>
<path opacity="0.3" d="M78.2161 65.192C78.1666 65.1087 78.099 65.0375 78.0183 64.9839C77.9375 64.9302 77.8458 64.8953 77.7499 64.8819C77.647 64.8722 77.5433 64.8849 77.4458 64.919C77.3483 64.9531 77.2593 65.0078 77.1848 65.0795L77.0971 65.1755C76.9308 65.2248 76.7827 65.3219 76.6711 65.4546C76.5594 65.5873 76.4892 65.7499 76.4689 65.9222C76.3866 66.3888 76.6692 66.8829 77.0422 66.8884C77.2743 66.9026 77.5066 66.8651 77.7224 66.7786C77.892 66.6854 78.0358 66.5517 78.1411 66.3893C78.2464 66.2269 78.3099 66.041 78.3259 65.8481C78.362 65.6233 78.3235 65.3928 78.2161 65.192Z" fill="#CDD2EE"/>
<path opacity="0.3" d="M160.171 306.488C160.122 306.404 160.055 306.332 159.975 306.278C159.895 306.224 159.803 306.188 159.707 306.175C159.604 306.165 159.501 306.178 159.403 306.212C159.306 306.246 159.217 306.301 159.142 306.372C159.11 306.402 159.08 306.435 159.052 306.468C158.886 306.519 158.739 306.616 158.627 306.749C158.516 306.881 158.445 307.043 158.424 307.215C158.344 307.684 158.627 308.176 159 308.181C159.231 308.195 159.462 308.158 159.677 308.072C159.848 307.979 159.992 307.846 160.098 307.683C160.204 307.521 160.268 307.334 160.283 307.141C160.32 306.917 160.28 306.687 160.171 306.488Z" fill="#CDD2EE"/>
<path opacity="0.3" d="M266.982 102.704C267.404 102.561 268.019 102.353 268.191 102.282C268.252 102.007 268.381 101.579 268.529 101.082C268.783 100.314 268.985 99.5299 269.135 98.735C269.141 98.6716 269.169 98.6122 269.214 98.5672C269.259 98.5221 269.318 98.4941 269.382 98.488C269.439 98.4783 269.498 98.4892 269.548 98.5188C269.599 98.5484 269.637 98.5949 269.656 98.6499C269.766 98.9931 270.205 101.691 270.333 102.413C270.915 102.597 272.827 103.209 273.208 103.434C273.246 103.456 273.278 103.488 273.299 103.527C273.32 103.566 273.329 103.61 273.326 103.654C273.323 103.7 273.308 103.745 273.283 103.783C273.258 103.822 273.224 103.854 273.183 103.876C272.95 104.014 271.442 104.395 270.649 104.59C270.44 105.265 269.672 107.98 269.659 108.26C269.66 108.326 269.636 108.39 269.593 108.441C269.551 108.491 269.491 108.525 269.426 108.534H269.398C269.341 108.544 269.282 108.532 269.232 108.503C269.182 108.473 269.144 108.427 269.124 108.372C268.342 106.053 268.065 105.057 268.027 104.604C267.725 104.516 267.064 104.294 265.558 103.736C265.512 103.709 265.474 103.668 265.451 103.619C265.427 103.57 265.419 103.515 265.426 103.462C265.462 103.234 265.638 103.165 266.982 102.704Z" fill="#CDD2EE"/>
<path opacity="0.5" d="M478.362 80.8793C479.043 80.6487 480.033 80.3111 480.31 80.1986C480.406 79.7676 480.617 79.0649 480.858 78.2771C481.253 76.9486 481.747 75.2961 481.832 74.4974C481.847 74.3975 481.893 74.3049 481.964 74.2333C482.035 74.1617 482.127 74.1147 482.227 74.0993C482.324 74.0805 482.425 74.098 482.511 74.1486C482.596 74.1992 482.66 74.2793 482.691 74.3738C482.863 74.9228 483.588 79.2708 483.788 80.4319C484.723 80.7283 487.798 81.711 488.415 82.0789C488.476 82.1137 488.527 82.1652 488.56 82.2273C488.594 82.2895 488.609 82.3598 488.604 82.4302C488.599 82.5046 488.575 82.5765 488.535 82.6393C488.494 82.7021 488.439 82.7538 488.374 82.7898C488.001 83.0121 485.571 83.6133 484.295 83.9399C483.958 85.0379 482.723 89.3968 482.702 89.847C482.695 89.9499 482.655 90.0477 482.587 90.1252C482.519 90.2026 482.427 90.2554 482.326 90.2752H482.279C482.187 90.2895 482.094 90.2712 482.014 90.2236C481.934 90.176 481.874 90.102 481.843 90.0144C480.581 86.2786 480.137 84.6755 480.06 83.9454C479.572 83.8054 478.508 83.4486 476.064 82.551C475.99 82.5094 475.931 82.4471 475.893 82.3719C475.855 82.2967 475.84 82.212 475.85 82.1283C475.896 81.7302 476.179 81.6204 478.362 80.8793Z" fill="#8465EC"/>
<path opacity="0.5" d="M209.022 294.103C209.493 293.943 210.185 293.71 210.377 293.63C210.445 293.329 210.591 292.84 210.755 292.286C211.038 291.424 211.265 290.544 211.435 289.653C211.445 289.584 211.478 289.52 211.527 289.47C211.576 289.421 211.641 289.389 211.71 289.379C211.777 289.364 211.846 289.374 211.906 289.408C211.965 289.442 212.01 289.497 212.031 289.563C212.151 289.947 212.656 292.972 212.79 293.779C213.443 293.987 215.583 294.671 216.013 294.923C216.055 294.949 216.089 294.985 216.112 295.028C216.135 295.071 216.147 295.119 216.145 295.168C216.141 295.22 216.125 295.27 216.097 295.314C216.069 295.358 216.031 295.394 215.986 295.42C215.712 295.574 214.033 296.002 213.144 296.219C212.911 296.977 212.047 300.021 212.047 300.336C212.042 300.41 212.013 300.48 211.963 300.534C211.913 300.589 211.846 300.624 211.773 300.636H211.74C211.676 300.646 211.611 300.633 211.556 300.6C211.501 300.567 211.459 300.515 211.438 300.454C210.56 297.852 210.251 296.735 210.196 296.227C209.856 296.131 209.115 295.881 207.414 295.256C207.363 295.227 207.321 295.184 207.295 295.132C207.268 295.079 207.258 295.02 207.266 294.962C207.305 294.696 207.502 294.621 209.022 294.103Z" fill="#8465EC"/>
<path opacity="0.5" d="M495.3 103.665C495.621 103.555 496.084 103.39 496.216 103.344C496.26 103.141 496.361 102.811 496.471 102.435C496.663 101.854 496.816 101.261 496.929 100.659C496.936 100.612 496.958 100.569 496.991 100.535C497.025 100.502 497.068 100.48 497.115 100.473C497.16 100.463 497.207 100.471 497.247 100.494C497.287 100.516 497.317 100.553 497.332 100.596C497.414 100.857 497.755 102.896 497.845 103.443C498.583 103.664 499.309 103.922 500.02 104.217C500.049 104.233 500.073 104.257 500.089 104.286C500.104 104.315 500.111 104.348 500.108 104.381C500.105 104.416 500.094 104.45 500.076 104.48C500.057 104.51 500.031 104.534 500.001 104.552C499.372 104.772 498.731 104.955 498.081 105.101C497.922 105.611 497.343 107.667 497.332 107.878C497.329 107.927 497.31 107.973 497.278 108.01C497.245 108.046 497.202 108.07 497.154 108.079H497.135C497.091 108.086 497.047 108.077 497.009 108.055C496.972 108.032 496.943 107.997 496.929 107.955C496.336 106.201 496.128 105.446 496.09 105.103C495.862 105.04 495.36 104.87 494.213 104.447C494.179 104.428 494.151 104.399 494.133 104.364C494.115 104.329 494.107 104.289 494.112 104.25C494.142 104.066 494.274 104.014 495.3 103.665Z" fill="#8465EC"/>
<path opacity="0.3" d="M510.276 176.935C510.55 176.845 510.945 176.708 511.055 176.661C511.093 176.488 511.178 176.208 511.271 175.89C511.435 175.395 511.565 174.889 511.661 174.377C511.667 174.337 511.686 174.3 511.714 174.271C511.743 174.243 511.78 174.224 511.82 174.218C511.858 174.21 511.898 174.216 511.932 174.235C511.966 174.254 511.991 174.285 512.004 174.322C512.075 174.545 512.363 176.279 512.44 176.746C513.068 176.932 513.686 177.151 514.291 177.402C514.316 177.416 514.335 177.437 514.349 177.461C514.362 177.486 514.369 177.514 514.368 177.542C514.365 177.572 514.356 177.601 514.339 177.626C514.323 177.652 514.301 177.673 514.275 177.687C513.736 177.872 513.186 178.025 512.629 178.146C512.495 178.58 512.001 180.328 511.993 180.507C511.99 180.548 511.974 180.587 511.947 180.618C511.919 180.649 511.883 180.669 511.842 180.677H511.823C511.786 180.681 511.749 180.672 511.718 180.653C511.687 180.634 511.663 180.604 511.65 180.57C511.145 179.079 510.967 178.437 510.937 178.146C510.742 178.091 510.317 177.945 509.338 177.597C509.309 177.579 509.286 177.554 509.271 177.524C509.256 177.494 509.249 177.46 509.253 177.427C509.288 177.276 509.401 177.232 510.276 176.935Z" fill="#CDD2EE"/>
<path opacity="0.3" d="M393.599 332.845C393.991 332.71 394.564 332.515 394.723 332.449C394.778 332.202 394.902 331.793 395.039 331.335C395.274 330.616 395.462 329.882 395.601 329.139C395.61 329.081 395.636 329.028 395.677 328.986C395.718 328.945 395.771 328.918 395.829 328.908C395.885 328.896 395.944 328.904 395.995 328.932C396.045 328.96 396.084 329.005 396.103 329.059C396.202 329.38 396.622 331.889 396.731 332.562C397.28 332.732 399.052 333.3 399.408 333.512C399.443 333.533 399.472 333.562 399.491 333.598C399.51 333.634 399.519 333.674 399.518 333.715C399.514 333.758 399.499 333.799 399.476 333.835C399.452 333.871 399.421 333.902 399.384 333.923C398.61 334.188 397.823 334.41 397.025 334.588C396.833 335.216 396.117 337.741 396.106 338.002C396.101 338.061 396.078 338.117 396.039 338.162C396 338.206 395.947 338.237 395.889 338.249H395.862C395.809 338.257 395.754 338.247 395.708 338.219C395.662 338.192 395.627 338.149 395.609 338.098C394.88 335.941 394.625 335.013 394.578 334.59C394.304 334.511 393.681 334.316 392.269 333.783C392.227 333.759 392.193 333.724 392.171 333.681C392.149 333.638 392.14 333.59 392.145 333.542C392.173 333.336 392.332 333.273 393.599 332.845Z" fill="#CDD2EE"/>
<path opacity="0.8" d="M191.004 157.463C191.333 157.353 191.813 157.188 191.947 157.133C191.997 156.925 192.098 156.584 192.222 156.195C192.419 155.593 192.578 154.978 192.696 154.356C192.703 154.307 192.725 154.261 192.76 154.226C192.794 154.191 192.839 154.168 192.888 154.161C192.935 154.152 192.983 154.16 193.024 154.184C193.065 154.207 193.097 154.245 193.113 154.29C193.198 154.564 193.549 156.67 193.642 157.235C194.406 157.463 195.157 157.73 195.894 158.034C195.923 158.052 195.947 158.077 195.963 158.108C195.979 158.138 195.986 158.172 195.985 158.207C195.983 158.242 195.971 158.277 195.952 158.307C195.933 158.338 195.906 158.362 195.875 158.38C195.224 158.601 194.561 158.785 193.889 158.929C193.725 159.456 193.127 161.583 193.116 161.8C193.113 161.85 193.093 161.898 193.06 161.936C193.027 161.974 192.982 161.999 192.932 162.008H192.91C192.865 162.015 192.82 162.005 192.781 161.982C192.743 161.958 192.714 161.922 192.699 161.879C192.084 160.062 191.876 159.283 191.832 158.929C191.593 158.86 191.075 158.687 189.887 158.251C189.852 158.23 189.823 158.2 189.805 158.163C189.786 158.127 189.779 158.085 189.783 158.045C189.791 157.877 189.928 157.825 191.004 157.463Z" fill="white"/>
<path opacity="0.8" d="M535.475 164.682C535.84 164.558 536.369 164.377 536.517 164.317C536.569 164.086 536.682 163.708 536.811 163.279C537.029 162.616 537.203 161.94 537.332 161.254C537.339 161.199 537.364 161.149 537.403 161.11C537.441 161.072 537.491 161.047 537.546 161.039C537.597 161.029 537.65 161.038 537.696 161.064C537.741 161.091 537.776 161.133 537.793 161.182C537.886 161.476 538.275 163.806 538.377 164.429C539.219 164.68 540.048 164.974 540.859 165.311C540.892 165.329 540.92 165.357 540.938 165.39C540.956 165.424 540.964 165.462 540.961 165.5C540.958 165.54 540.945 165.578 540.923 165.612C540.902 165.645 540.872 165.673 540.837 165.692C540.118 165.938 539.385 166.144 538.643 166.31C538.462 166.892 537.798 169.236 537.787 169.477C537.784 169.533 537.762 169.585 537.725 169.626C537.688 169.668 537.639 169.695 537.584 169.705H537.559C537.51 169.711 537.461 169.701 537.419 169.676C537.376 169.65 537.344 169.611 537.326 169.565C536.652 167.561 536.413 166.702 536.372 166.31C536.097 166.236 535.549 166.035 534.227 165.56C534.188 165.538 534.157 165.505 534.136 165.465C534.116 165.425 534.107 165.38 534.112 165.335C534.153 165.138 534.304 165.08 535.475 164.682Z" fill="white"/>
<path opacity="0.8" d="M72.6316 89.1937C73.0156 89.0647 73.5752 88.8753 73.7288 88.8094C73.7836 88.5679 73.9016 88.1698 74.036 87.7114C74.2651 87.0142 74.4484 86.3026 74.5846 85.5814C74.5933 85.525 74.6195 85.4728 74.6593 85.4319C74.6991 85.3911 74.7506 85.3637 74.8067 85.3535C74.863 85.3402 74.9223 85.3482 74.973 85.3761C75.0237 85.404 75.0622 85.4498 75.081 85.5045C75.1798 85.8147 75.5857 88.2659 75.6954 88.9219C76.2248 89.0894 77.9611 89.6439 78.3067 89.8497C78.3415 89.869 78.3701 89.8979 78.389 89.9329C78.408 89.9679 78.4165 90.0077 78.4136 90.0474C78.4107 90.0893 78.3974 90.1298 78.3749 90.1653C78.3524 90.2008 78.3214 90.2301 78.2847 90.2505C77.5295 90.5097 76.7603 90.7259 75.9807 90.8983C75.7914 91.5104 75.0947 93.9781 75.0838 94.2306C75.0787 94.2889 75.0553 94.3439 75.0168 94.3879C74.9783 94.4318 74.9268 94.4623 74.8698 94.4749H74.8451C74.7933 94.482 74.7406 94.4711 74.6957 94.4442C74.6509 94.4172 74.6165 94.3758 74.5983 94.3267C73.8879 92.2186 73.6355 91.3073 73.5916 90.9038C73.3174 90.8242 72.7167 90.6293 71.337 90.116C71.2961 90.092 71.2629 90.0567 71.2415 90.0144C71.2201 89.972 71.2114 89.9244 71.2163 89.8772C71.241 89.6741 71.4138 89.6137 72.6316 89.1937Z" fill="white"/>
<path opacity="0.8" d="M231.631 37.8168C232.306 37.589 233.291 37.2541 233.565 37.1416C233.661 36.7134 233.87 36.0162 234.114 35.2201C234.509 33.8998 235 32.2584 235.082 31.4651C235.096 31.3657 235.142 31.2736 235.213 31.2024C235.283 31.1312 235.375 31.0847 235.474 31.0698C235.569 31.0503 235.669 31.066 235.753 31.1139C235.838 31.1618 235.903 31.2388 235.935 31.3306C236.108 31.8796 236.826 36.1946 237.032 37.3475C237.962 37.6412 241.018 38.6211 241.629 38.9807C241.689 39.016 241.739 39.0672 241.772 39.1287C241.804 39.1902 241.82 39.2596 241.816 39.3293C241.81 39.403 241.787 39.4743 241.747 39.5366C241.707 39.5989 241.653 39.6503 241.588 39.6861C241.218 39.9085 238.804 40.5096 237.537 40.8308C237.202 41.9068 235.976 46.252 235.954 46.6967C235.947 46.7992 235.907 46.8967 235.839 46.9737C235.771 47.0507 235.679 47.1029 235.578 47.1222H235.535C235.443 47.1342 235.351 47.1149 235.272 47.0675C235.194 47.0202 235.133 46.9475 235.101 46.8614C233.85 43.1502 233.409 41.5582 233.329 40.8225C232.847 40.6825 231.788 40.3285 229.36 39.4501C229.288 39.4083 229.229 39.3463 229.192 39.2717C229.154 39.1971 229.139 39.1131 229.149 39.0301C229.185 38.6623 229.465 38.5552 231.631 37.8168Z" fill="white"/>
<path opacity="0.8" d="M149.72 318.851C150.168 318.7 150.818 318.478 150.999 318.403C151.062 318.129 151.199 317.66 151.355 317.138C151.623 316.33 151.836 315.504 151.994 314.668C152.002 314.597 152.033 314.532 152.083 314.482C152.133 314.432 152.198 314.4 152.269 314.393C152.332 314.382 152.396 314.393 152.452 314.425C152.508 314.456 152.55 314.506 152.573 314.566C152.686 314.928 153.16 317.778 153.289 318.541C153.903 318.736 155.919 319.381 156.325 319.619C156.365 319.642 156.398 319.676 156.42 319.717C156.442 319.758 156.452 319.804 156.449 319.85C156.445 319.899 156.429 319.946 156.403 319.987C156.376 320.028 156.34 320.062 156.298 320.086C156.054 320.232 154.457 320.635 153.621 320.841C153.399 321.552 152.59 324.423 152.576 324.717C152.571 324.783 152.544 324.847 152.499 324.896C152.455 324.946 152.395 324.979 152.329 324.991H152.299C152.239 324.999 152.178 324.986 152.126 324.955C152.074 324.924 152.033 324.877 152.011 324.821C151.188 322.367 150.894 321.316 150.842 320.835C150.521 320.745 149.825 320.512 148.22 319.921C148.172 319.895 148.133 319.855 148.108 319.806C148.083 319.757 148.073 319.701 148.08 319.647C148.105 319.411 148.289 319.337 149.72 318.851Z" fill="white"/>
<path opacity="0.8" d="M106.449 79.4465C106.646 79.3806 106.934 79.2845 107.014 79.2516C107.041 79.1253 107.102 78.9222 107.173 78.7026C107.287 78.3426 107.378 77.9759 107.447 77.6046C107.45 77.5753 107.463 77.5479 107.483 77.5266C107.504 77.5053 107.53 77.4912 107.56 77.4866C107.587 77.4816 107.616 77.4866 107.641 77.5006C107.665 77.5147 107.684 77.5369 107.694 77.5634C107.746 77.7227 107.968 78.9826 108.012 79.3202C108.468 79.4548 108.915 79.6142 109.353 79.7978C109.371 79.808 109.386 79.8229 109.395 79.8408C109.405 79.8588 109.409 79.879 109.408 79.8994C109.406 79.921 109.399 79.9418 109.387 79.96C109.375 79.9782 109.359 79.9931 109.34 80.0037C108.952 80.1364 108.557 80.2473 108.158 80.3358C108.062 80.6515 107.702 81.9197 107.697 82.0487C107.695 82.0785 107.683 82.1069 107.663 82.1293C107.643 82.1517 107.616 82.1668 107.587 82.1722C107.56 82.1757 107.533 82.17 107.51 82.156C107.487 82.142 107.47 82.1206 107.461 82.0953C107.242 81.5237 107.069 80.9353 106.945 80.3358C106.803 80.2974 106.495 80.1931 105.785 79.9323C105.764 79.92 105.747 79.9017 105.736 79.8798C105.725 79.8578 105.721 79.8331 105.725 79.8088C105.736 79.6935 105.818 79.6633 106.449 79.4465Z" fill="white"/>
<path opacity="0.3" d="M302.669 89.8058C301.41 89.9979 301.847 91.6504 303.007 91.472C304.266 91.2798 303.846 89.6246 302.669 89.8058Z" fill="#CDD2EE"/>
<path opacity="0.3" d="M338.439 342.04C337.183 342.232 337.617 343.887 338.78 343.709C340.036 343.514 339.616 341.862 338.439 342.04Z" fill="#CDD2EE"/>
<path opacity="0.3" d="M185.691 327.86C184.435 328.052 184.868 329.707 186.031 329.526C187.287 329.334 186.867 327.679 185.691 327.86Z" fill="#CDD2EE"/>
<path opacity="0.8" d="M222.072 56.1063C222.264 56.0405 222.547 55.9444 222.621 55.9114C222.648 55.7907 222.709 55.5903 222.777 55.3625C222.892 55.0092 222.984 54.6488 223.052 54.2837C223.056 54.2551 223.069 54.2285 223.089 54.2078C223.109 54.1871 223.136 54.1733 223.164 54.1684C223.192 54.1636 223.22 54.1686 223.244 54.1827C223.268 54.1968 223.286 54.219 223.296 54.2453C223.345 54.4017 223.551 55.6424 223.608 55.9718C223.883 56.0569 224.752 56.3397 224.928 56.4412C224.945 56.452 224.959 56.4671 224.968 56.4848C224.978 56.5026 224.983 56.5226 224.983 56.5428C224.981 56.5638 224.974 56.5841 224.962 56.6018C224.951 56.6195 224.935 56.6341 224.917 56.6443C224.535 56.7753 224.147 56.8853 223.754 56.9737C223.658 57.2812 223.304 58.5301 223.298 58.6564C223.297 58.6859 223.285 58.7139 223.266 58.7363C223.247 58.7586 223.22 58.7739 223.191 58.7799C223.166 58.7834 223.139 58.778 223.117 58.7645C223.094 58.751 223.077 58.7303 223.068 58.7058C222.851 58.1432 222.681 57.564 222.558 56.9737C222.418 56.9326 222.116 56.831 221.417 56.5757C221.396 56.5634 221.38 56.5455 221.369 56.5241C221.358 56.5027 221.354 56.4787 221.356 56.4549C221.367 56.3506 221.45 56.3177 222.072 56.1063Z" fill="white"/>
<path opacity="0.3" d="M348.363 77.5278C346.86 77.5058 347.101 79.6414 348.481 79.6606C349.981 79.6825 349.74 77.547 348.363 77.5278Z" fill="#CDD2EE"/>
<path opacity="0.3" d="M201.876 84.9308C199.869 84.9034 200.19 87.7608 202.036 87.7855C204.043 87.8157 203.722 84.9582 201.876 84.9308Z" fill="#CDD2EE"/>
</g>
<defs>
<linearGradient id="paint0_linear_13_1262" x1="258.157" y1="204.185" x2="270.969" y2="357.311" gradientUnits="userSpaceOnUse">
<stop stop-color="#8465EC"/>
<stop offset="1" stop-color="#1A1851"/>
</linearGradient>
<linearGradient id="paint1_linear_13_1262" x1="457.42" y1="98.9609" x2="524.273" y2="204.582" gradientUnits="userSpaceOnUse">
<stop offset="0.241388" stop-color="#8465EC"/>
<stop offset="1" stop-color="#171657"/>
</linearGradient>
<linearGradient id="paint2_linear_13_1262" x1="161.834" y1="-0.376887" x2="236.198" y2="246.646" gradientUnits="userSpaceOnUse">
<stop stop-color="#8465EC"/>
<stop offset="1" stop-color="#171657"/>
</linearGradient>
<linearGradient id="paint3_linear_13_1262" x1="310.371" y1="82.5225" x2="316.398" y2="183.072" gradientUnits="userSpaceOnUse">
<stop stop-color="#5140A6"/>
<stop offset="1" stop-color="#2A2471"/>
<stop offset="1" stop-color="#3C3189"/>
</linearGradient>
<linearGradient id="paint4_linear_13_1262" x1="313.923" y1="79.7235" x2="356.862" y2="102.81" gradientUnits="userSpaceOnUse">
<stop stop-color="#5241A7"/>
<stop offset="1" stop-color="#423591"/>
</linearGradient>
<clipPath id="clip0_13_1262">
<rect width="561" height="386" fill="white"/>
</clipPath>
</defs>
</svg>
