<svg width="499" height="439" viewBox="0 0 499 439" fill="none" xmlns="http://www.w3.org/2000/svg">
<g clip-path="url(#clip0_13_1589)">
<path opacity="0.8" d="M156.302 78.1743C156.3 84.4747 158.166 90.6342 161.665 95.8738C165.164 101.113 170.138 105.198 175.958 107.61C181.778 110.022 188.182 110.654 194.362 109.426C200.541 108.198 206.217 105.165 210.673 100.71C215.128 96.2558 218.162 90.5799 219.392 84.4007C220.621 78.2214 219.991 71.8162 217.58 65.9954C215.169 60.1745 211.086 55.1993 205.848 51.6992C200.609 48.199 194.451 46.331 188.151 46.3315C179.705 46.3315 171.605 49.6861 165.633 55.6576C159.66 61.6291 156.304 69.7284 156.302 78.1743Z" fill="#8465EC"/>
<path d="M191.391 223.862C193.17 227.915 195.848 231.887 199.6 235.834C210.252 247.032 227.442 250.396 242.346 249.891C253.819 249.5 262.542 250.947 268.694 261.024C267.943 256.846 266.369 252.852 266.088 248.607C287.112 255.114 289.823 284.041 309.765 290.591C320.821 294.223 335.73 292.862 343.264 283.02C314.731 273.178 327.393 247.916 315.247 226.833C310.439 218.486 301.706 214.511 294.093 209.245C284.374 202.522 280.88 195.519 278.397 183.882C275.013 168.018 271.915 158.144 254.09 154.245C244.101 152.06 226.859 151.602 223.249 164.044C223.187 164.254 218.211 163.32 213.849 164.795C210.242 166.016 206.681 168.742 203.837 171.25C198.063 176.346 195.19 182.403 192.682 189.522C188.212 202.249 186.77 213.335 191.391 223.862Z" fill="#1B1952"/>
<path d="M228.182 254.056C227.947 256.724 226.948 259.44 224.4 260.253C225.477 261.307 228.185 263.815 230.497 264.686C232.878 265.536 235.394 265.944 237.921 265.887C240.451 265.852 243.012 265.136 245.046 263.564C245.997 262.834 247.034 260.901 247.474 260.023C243.665 257.064 243.647 249.921 246.223 242.792C245.407 245.045 237.398 245.03 235.543 244.887C232.022 244.619 228.535 242.81 225.194 242.6C226.931 246.459 228.578 249.64 228.182 254.056Z" fill="#FFC595"/>
<path d="M244.453 251.695C244.453 248.827 245.149 245.791 246.23 242.792C245.414 245.045 237.405 245.03 235.55 244.887C232.029 244.619 228.542 242.81 225.201 242.6C226.538 245.581 227.822 248.156 228.162 251.207L228.382 251.35C235.638 255.86 239.858 255.089 244.453 251.695Z" fill="#CD9160"/>
<path d="M263.186 212.601C263.242 212.327 263.269 212.048 263.269 211.768C263.572 205.606 257.823 204.572 252.724 203.103C246.718 201.376 235.049 198.5 233.18 191.198C229.175 194.678 226.104 197.796 221.384 200.324C216.706 202.822 214.078 204.519 212.416 207.578C211.477 209.302 210.847 211.46 210.331 214.441C209.423 213.793 208.975 213.215 207.153 212.809C197.98 211.345 208.126 231.884 213.507 225.812C214.841 233.233 222.725 242.439 228.93 246.296C238.613 252.319 243.098 248.852 249.926 242.429C253.978 238.62 258.478 231.416 260.869 226.263C268.943 228.803 274.855 207.45 263.802 212.223C263.585 212.328 263.378 212.455 263.186 212.601Z" fill="#FFC595"/>
<path opacity="0.4" d="M300.917 133.44C301.476 133.25 302.292 132.972 302.519 132.879C302.599 132.527 302.77 131.948 302.967 131.29C303.293 130.199 303.698 128.837 303.768 128.181C303.78 128.099 303.818 128.023 303.877 127.964C303.935 127.905 304.011 127.866 304.094 127.853C304.173 127.838 304.255 127.851 304.325 127.891C304.395 127.931 304.448 127.995 304.474 128.071C304.619 128.524 305.225 132.098 305.373 133.055C306.143 133.305 308.676 134.108 309.184 134.406C309.235 134.435 309.276 134.478 309.304 134.529C309.331 134.58 309.344 134.639 309.34 134.697C309.335 134.758 309.315 134.817 309.281 134.868C309.248 134.92 309.203 134.962 309.149 134.992C308.841 135.175 306.842 135.68 305.791 135.938C305.515 136.832 304.497 140.428 304.479 140.796C304.474 140.881 304.441 140.962 304.385 141.026C304.329 141.09 304.252 141.134 304.169 141.149H304.131C304.056 141.159 303.98 141.143 303.915 141.104C303.85 141.065 303.8 141.005 303.773 140.934C302.735 137.858 302.369 136.541 302.307 135.941C301.904 135.825 301.028 135.53 299.015 134.792C298.956 134.757 298.907 134.705 298.876 134.644C298.844 134.582 298.831 134.513 298.838 134.444C298.888 134.141 299.118 134.051 300.917 133.44Z" fill="#8465EC"/>
<path opacity="0.4" d="M160.655 174.709C161.075 174.566 161.688 174.359 161.859 174.289C161.919 174.023 162.049 173.588 162.194 173.095C162.446 172.331 162.647 171.552 162.797 170.762C162.805 170.698 162.834 170.639 162.88 170.594C162.925 170.549 162.984 170.52 163.047 170.512C163.107 170.5 163.168 170.51 163.22 170.54C163.273 170.569 163.313 170.617 163.333 170.674C163.44 171.015 163.888 173.7 164.008 174.416C164.587 174.601 166.489 175.21 166.869 175.432C166.907 175.454 166.938 175.486 166.959 175.525C166.98 175.563 166.989 175.607 166.987 175.65C166.983 175.696 166.968 175.74 166.943 175.779C166.918 175.818 166.884 175.85 166.844 175.873C166.611 176.008 165.11 176.389 164.321 176.581C164.114 177.255 163.35 179.955 163.338 180.233C163.332 180.294 163.305 180.352 163.263 180.397C163.221 180.443 163.166 180.473 163.105 180.483H163.075C163.019 180.491 162.962 180.479 162.913 180.45C162.864 180.421 162.827 180.376 162.807 180.323C162.026 178.013 161.751 177.024 161.703 176.569C161.4 176.481 160.742 176.261 159.233 175.705C159.19 175.68 159.154 175.644 159.13 175.599C159.107 175.555 159.097 175.505 159.1 175.455C159.13 175.235 159.306 175.167 160.655 174.709Z" fill="#8465EC"/>
<path opacity="0.4" d="M354.153 266.46C354.654 266.29 355.385 266.04 355.59 265.96C355.66 265.642 355.815 265.124 355.99 264.538C356.283 263.559 356.646 262.34 356.709 261.752C356.719 261.678 356.753 261.609 356.806 261.557C356.859 261.504 356.927 261.47 357.001 261.459C357.072 261.444 357.145 261.456 357.208 261.491C357.271 261.527 357.318 261.584 357.342 261.652C357.47 262.06 358.005 265.261 358.145 266.117C358.836 266.335 361.104 267.059 361.559 267.326C361.603 267.352 361.639 267.388 361.663 267.432C361.688 267.476 361.7 267.526 361.699 267.577C361.695 267.631 361.677 267.684 361.647 267.731C361.618 267.777 361.577 267.815 361.529 267.842C361.254 268.005 359.462 268.458 358.526 268.688C358.275 269.489 357.367 272.71 357.352 273.041C357.347 273.117 357.317 273.189 357.267 273.246C357.217 273.303 357.149 273.342 357.074 273.356H357.039C356.972 273.365 356.903 273.351 356.845 273.316C356.787 273.281 356.742 273.227 356.719 273.163C355.788 270.41 355.467 269.231 355.405 268.693C355.044 268.59 354.258 268.325 352.456 267.664C352.403 267.633 352.36 267.587 352.332 267.532C352.304 267.477 352.292 267.415 352.299 267.354C352.326 267.086 352.544 267.006 354.153 266.46Z" fill="#8465EC"/>
<path opacity="0.4" d="M314.932 186.596C313.033 186.57 313.336 189.269 315.083 189.294C316.98 189.321 316.677 186.621 314.932 186.596Z" fill="#8465EC"/>
<path opacity="0.4" d="M292.757 189.915C291.218 189.895 291.388 191.952 292.828 191.972C294.374 191.992 294.202 189.935 292.757 189.915Z" fill="#8465EC"/>
<path opacity="0.4" d="M326.978 219.039C325.439 219.017 325.611 221.074 327.051 221.094C328.59 221.117 328.417 219.059 326.978 219.039Z" fill="#8465EC"/>
<path opacity="0.8" d="M283.069 46.3315C282.841 46.3315 282.616 46.3315 282.391 46.3315C283.842 56.2008 284.661 67.3865 284.661 79.2381C284.688 89.5327 284.029 99.8177 282.688 110.025H283.069C291.467 109.95 299.496 106.562 305.408 100.596C311.321 94.6311 314.638 86.5721 314.638 78.1731C314.638 69.7741 311.321 61.715 305.408 55.7498C299.496 49.7846 291.467 46.396 283.069 46.3215V46.3315Z" fill="#8465EC"/>
<mask id="mask0_13_1589" style="mask-type:luminance" maskUnits="userSpaceOnUse" x="251" y="46" width="34" height="65">
<path d="M284.662 79.2457C284.662 67.3942 283.843 56.2184 282.392 46.3392C274.041 46.5211 266.096 49.9762 260.269 55.9602C254.441 61.9442 251.198 69.9781 251.237 78.3309C251.276 86.6837 254.594 94.6868 260.478 100.616C266.361 106.545 274.338 109.926 282.689 110.03C284.03 99.8236 284.689 89.5395 284.662 79.2457Z" fill="white"/>
</mask>
<g mask="url(#mask0_13_1589)">
<path opacity="0.85" d="M342.867 44.9525H237.029V110.648H342.867V44.9525Z" fill="#1C155B"/>
<path opacity="0.1" d="M260.88 87.1275C272.661 80.5497 282.96 72.1097 292.146 62.3281C297.792 56.321 300.508 48.9948 299.426 40.7049C298.245 31.6567 292.451 26.2528 284.239 32.5502C273.477 40.7925 268.221 54.4387 259.256 64.3029C252.726 71.4814 246.579 71.3112 237.606 71.8444C221.808 72.7905 214.58 87.2201 211.927 95.6051C211.111 98.1882 207.647 97.6075 206.763 98.6512C205.607 100.01 205.632 102.799 204.401 104.06C202.073 106.45 197.53 106.032 195.058 108.258C192.64 110.433 192.89 114.8 190.167 116.623C195.363 116.635 197.035 111.732 202.228 110.615C206.914 109.614 207.76 104.811 212.93 103.269C218.985 101.465 216.287 92.7567 227.532 91.7355C238.777 90.7143 250.661 92.8318 260.88 87.1275Z" fill="#FDCBFF"/>
<path opacity="0.1" d="M349.201 117.416C359.813 109.079 368.665 99.1267 376.214 88.0386C380.854 81.223 382.393 73.5639 380.028 65.5468C377.45 56.7865 370.885 52.3587 363.76 59.8601C354.427 69.6793 351.358 83.9787 344.037 95.1245C338.706 103.234 332.609 104.023 323.829 105.955C308.374 109.354 303.481 124.727 302.175 133.43C301.767 136.111 298.263 136.081 297.547 137.244C296.616 138.766 297.076 141.515 296.045 142.956C294.12 145.679 289.568 145.977 287.47 148.56C285.423 151.086 286.352 155.361 283.946 157.586C289.082 156.785 289.966 151.682 294.924 149.777C299.394 148.055 299.484 143.179 304.349 140.849C310.046 138.121 306.021 129.933 316.969 127.178C327.916 124.422 340 124.645 349.201 117.416Z" fill="#FDCBFF"/>
<path opacity="0.1" d="M231.826 77.1257C231.398 78.7661 231.08 80.4335 230.875 82.1166C230.292 86.5919 228.956 93.2724 225.076 95.9505C228.237 94.9694 230.833 93.8681 232.953 91.1499C237.02 85.9161 238.567 78.8102 246.123 78.7176C252.703 78.635 259.931 82.9426 266.03 78.7176C272.705 74.0996 272.085 65.4769 278.194 60.9765L280.977 59.2069C274.049 59.4572 270.798 62.7361 265.577 66.448C262.824 68.4054 256.817 67.5794 254.064 65.7497C251.188 63.8249 250.225 61.2944 246.235 61.6924C242.949 62.0178 239.778 64.6109 237.553 66.9712C234.522 70.2025 232.835 73.3713 231.826 77.1257Z" fill="#FDCBFF"/>
<path opacity="0.6" d="M227.501 123.133C227.212 124.942 227.08 126.772 227.108 128.604C227.138 133.377 226.523 140.731 221.547 145.327C225.829 142.783 229.306 140.396 231.769 136.631C236.524 129.373 237.355 121.496 248.022 117.674C257.315 114.347 268.358 115.096 276.182 107.857C284.739 99.9376 282.213 91.6053 289.997 84.0788L293.594 80.9351C283.833 84.6069 279.871 89.4927 273.196 95.7877C269.692 99.1042 261.009 101.244 256.797 100.761C252.362 100.261 250.515 98.1906 244.949 100.556C240.366 102.506 236.374 106.666 233.686 110.13C229.991 114.865 228.212 118.875 227.501 123.133Z" fill="#171345"/>
<path opacity="0.6" d="M275.735 76.1096C275.772 77.9412 275.969 79.766 276.323 81.5635C277.204 86.2566 277.907 93.6003 273.82 99.0092C277.575 95.7554 280.578 92.7768 282.33 88.6319C285.714 80.6474 285.128 72.7431 294.947 67.0813C303.494 62.153 314.497 60.9215 320.904 52.4039C327.912 43.0853 323.945 35.3361 330.262 26.5457L333.24 22.8113C324.3 28.1601 321.264 33.6767 315.816 41.0604C312.947 44.9501 304.803 48.6044 300.566 48.8772C296.111 49.1676 293.926 47.4681 288.87 50.7895C284.708 53.5227 281.522 58.3284 279.487 62.2181C276.716 67.5319 275.68 71.7944 275.735 76.1096Z" fill="#171345"/>
<path opacity="0.6" d="M297.329 22.7586C297.513 20.9362 297.538 19.1013 297.404 17.2746C297.097 12.519 297.287 5.13268 301.987 0.254395C297.857 3.0402 294.531 5.62577 292.286 9.5279C287.961 17.0368 287.586 24.9612 277.156 29.3915C268.074 33.2536 246.642 34.2122 244.729 44.6971C240.497 67.9097 216.447 62.8887 216.447 62.8887C240.747 71.8669 247.002 59.3696 253.302 52.6991C256.621 49.195 265.153 46.5443 269.388 46.7846C273.845 47.0349 275.807 48.9872 281.229 46.3016C285.689 44.0914 289.433 39.7037 291.926 36.0894C295.322 31.1561 296.866 27.0487 297.329 22.7586Z" fill="#171345"/>
<path opacity="0.1" d="M267.739 107.912C265.422 112.745 265.967 119.276 261.259 122.142C258.714 123.691 251.576 122.392 248.888 127.506C257.112 125.663 259.808 128.314 267.409 125.683C271.714 124.194 275.065 119.216 277.05 115.354C280.354 108.931 287.126 112.137 292.067 108.818C296.902 105.564 297.43 96.1983 302.937 95.1371C299.303 94.0283 295.486 96.5513 292.818 98.446C289.717 100.649 288.313 103.702 283.958 103.885C280.524 104.04 277.097 101.745 273.696 102.801C270.525 103.775 268.823 105.66 267.739 107.912Z" fill="#FDCBFF"/>
</g>
<path opacity="0.4" d="M248.675 137.745C248.402 136.962 247.576 135.96 246.673 135.948L245.634 135.933C244.723 135.92 244.545 136.781 244.798 137.51C245.071 138.293 245.899 139.294 246.813 139.307L247.851 139.322C248.75 139.324 248.93 138.463 248.675 137.745Z" fill="#8465EC"/>
<path opacity="0.4" d="M282.622 123.253C282.538 123.153 282.435 123.071 282.319 123.011C282.203 122.951 282.076 122.915 281.946 122.905C281.655 122.878 281.364 122.955 281.125 123.123C281.079 123.154 281.036 123.19 280.995 123.228C280.779 123.261 280.578 123.356 280.417 123.503C280.255 123.649 280.14 123.84 280.086 124.051C280.061 124.178 280.064 124.309 280.094 124.435C280.124 124.561 280.181 124.679 280.261 124.781C280.341 124.882 280.442 124.966 280.557 125.025C280.672 125.085 280.798 125.119 280.927 125.125C281.26 125.142 281.594 125.102 281.913 125.007C282.138 124.93 282.338 124.793 282.492 124.612C282.646 124.43 282.747 124.211 282.787 123.976C282.812 123.851 282.81 123.721 282.781 123.597C282.753 123.472 282.698 123.355 282.622 123.253Z" fill="#8465EC"/>
<path opacity="0.4" d="M287.25 161.308C287.207 161.031 287.068 160.778 286.856 160.595C286.644 160.411 286.374 160.309 286.093 160.307C285.305 160.349 284.952 160.993 284.94 161.709C284.923 161.989 285.004 162.267 285.169 162.495C285.333 162.723 285.571 162.887 285.843 162.96C285.968 162.991 286.099 162.994 286.225 162.97C286.352 162.947 286.472 162.896 286.577 162.821C286.683 162.747 286.771 162.651 286.836 162.54C286.901 162.429 286.941 162.305 286.954 162.177C287.072 162.068 287.16 161.931 287.212 161.78C287.263 161.628 287.276 161.466 287.25 161.308Z" fill="#8465EC"/>
<path opacity="0.4" d="M370.595 194.002C370.902 194.244 371.282 194.375 371.673 194.372C372.256 194.39 373.187 194.252 373.588 193.311L373.838 192.713C373.983 192.367 373.683 192.019 373.553 191.904C373.244 191.664 372.863 191.535 372.472 191.539C371.889 191.516 370.97 191.657 370.557 192.598L370.307 193.196C370.172 193.541 370.472 193.889 370.595 194.002Z" fill="#8465EC"/>
<path opacity="0.4" d="M128.319 210.331C130.647 211.332 131.63 207.828 129.49 206.93C127.163 205.941 126.179 209.423 128.319 210.331Z" fill="#8465EC"/>
<path opacity="0.4" d="M196.349 140.443C198.674 141.429 199.687 138.191 197.515 137.275C195.187 136.288 194.174 139.52 196.349 140.443Z" fill="#8465EC"/>
<path opacity="0.4" d="M160.857 131.738C162.273 132.339 162.891 130.369 161.567 129.806C160.148 129.205 159.533 131.175 160.857 131.738Z" fill="#8465EC"/>
<path opacity="0.4" d="M163.86 231.857C165.276 232.458 165.895 230.488 164.571 229.927C163.154 229.324 162.536 231.294 163.86 231.857Z" fill="#8465EC"/>
<path opacity="0.4" d="M90.5053 181.424C91.9244 182.025 92.5426 180.055 91.2161 179.492C89.7995 178.891 89.1813 180.861 90.5053 181.424Z" fill="#8465EC"/>
<path opacity="0.4" d="M180.38 238.227C180.464 238.478 180.644 238.686 180.881 238.805C181.14 238.939 181.439 238.978 181.724 238.915C181.778 238.901 181.832 238.884 181.884 238.865C182.097 238.915 182.319 238.903 182.524 238.828C182.729 238.753 182.908 238.62 183.038 238.445C183.109 238.336 183.155 238.214 183.175 238.086C183.194 237.959 183.186 237.828 183.15 237.704C183.115 237.58 183.053 237.464 182.97 237.366C182.886 237.267 182.782 237.188 182.665 237.133C182.363 236.991 182.039 236.902 181.707 236.87C181.469 236.857 181.233 236.908 181.022 237.018C180.811 237.127 180.633 237.292 180.508 237.493C180.436 237.6 180.388 237.72 180.366 237.847C180.344 237.973 180.349 238.102 180.38 238.227Z" fill="#8465EC"/>
<path opacity="0.4" d="M209.181 128.552C209.111 128.825 209.142 129.115 209.268 129.367C209.394 129.62 209.606 129.819 209.867 129.928C210.617 130.179 211.183 129.726 211.466 129.067C211.587 128.813 211.617 128.525 211.551 128.252C211.485 127.978 211.327 127.736 211.103 127.565C210.999 127.49 210.88 127.438 210.753 127.412C210.627 127.387 210.497 127.389 210.372 127.418C210.247 127.447 210.129 127.503 210.027 127.582C209.925 127.66 209.842 127.76 209.781 127.873C209.633 127.929 209.501 128.019 209.397 128.138C209.292 128.256 209.218 128.398 209.181 128.552Z" fill="#8465EC"/>
<path opacity="0.4" d="M145.558 271.904C145.489 272.178 145.521 272.467 145.646 272.72C145.772 272.972 145.984 273.171 146.244 273.281C146.995 273.531 147.56 273.076 147.843 272.417C147.966 272.164 147.997 271.876 147.931 271.602C147.866 271.328 147.707 271.086 147.483 270.916C147.379 270.84 147.259 270.788 147.133 270.763C147.007 270.738 146.877 270.739 146.752 270.768C146.626 270.797 146.509 270.853 146.406 270.931C146.304 271.009 146.22 271.108 146.159 271.221C146.01 271.277 145.878 271.368 145.773 271.487C145.668 271.607 145.594 271.75 145.558 271.904Z" fill="#8465EC"/>
<path d="M246.204 231.369C243.541 233.146 240.915 236.422 237.058 236.708C232.498 237.045 230.488 234.387 227.38 231.724C231.022 231.992 234.057 230.615 237.534 230.821C240.55 230.998 242.822 231.724 246.204 231.369Z" fill="#1B1952"/>
<path d="M235.189 225.164H233.955C233.849 225.179 233.74 225.171 233.637 225.141C233.534 225.11 233.439 225.058 233.357 224.988C233.276 224.917 233.211 224.83 233.166 224.732C233.122 224.634 233.099 224.528 233.099 224.421C233.099 224.313 233.122 224.207 233.166 224.109C233.211 224.011 233.276 223.924 233.357 223.853C233.439 223.783 233.534 223.731 233.637 223.7C233.74 223.67 233.849 223.662 233.955 223.677H234.554C235.229 223.677 235.92 223.677 236.603 223.677C236.075 221.009 235.823 216.389 237.049 214.371C237.163 214.23 237.325 214.135 237.504 214.104C237.683 214.073 237.867 214.108 238.023 214.202C238.178 214.297 238.294 214.444 238.348 214.617C238.403 214.791 238.393 214.978 238.32 215.145C237.319 216.809 237.57 221.785 238.253 224.2C238.281 224.309 238.285 224.422 238.264 224.532C238.243 224.642 238.198 224.746 238.131 224.837C238.065 224.927 237.979 225.001 237.88 225.054C237.781 225.107 237.671 225.136 237.56 225.141C236.769 225.159 235.97 225.164 235.189 225.164Z" fill="#1B1952"/>
<path d="M226.261 217.743C225.318 218.027 224.344 218.195 223.361 218.243C222.267 218.243 219.036 218.476 218.855 216.867C220.748 217.713 221.108 216.076 221.013 214.697C220.918 213.172 221.116 213.165 222.67 213.823C226.261 215.342 227.966 214.974 229.928 215.325C230.782 215.485 228.166 217.114 226.261 217.743Z" fill="#1B1952"/>
<path d="M245.703 217.743C246.646 218.027 247.62 218.195 248.604 218.243C249.698 218.243 252.929 218.476 253.109 216.867C251.215 217.713 250.857 216.076 250.949 214.697C251.044 213.172 250.847 213.165 249.292 213.823C245.701 215.342 243.999 214.974 242.047 215.325C241.183 215.485 243.799 217.114 245.703 217.743Z" fill="#1B1952"/>
<path d="M256.834 209.923C256.649 209.921 256.471 209.851 256.334 209.726C252.507 206.186 245.997 206.392 241.912 208.634C241.826 208.697 241.727 208.742 241.623 208.763C241.518 208.785 241.41 208.785 241.305 208.761C241.201 208.738 241.103 208.693 241.017 208.628C240.932 208.564 240.861 208.482 240.81 208.388C240.758 208.294 240.728 208.191 240.72 208.084C240.712 207.977 240.727 207.87 240.764 207.77C240.801 207.669 240.859 207.578 240.934 207.502C241.009 207.425 241.099 207.366 241.199 207.328C245.682 204.867 252.865 204.487 257.347 208.632C257.453 208.735 257.526 208.866 257.558 209.01C257.589 209.154 257.577 209.305 257.524 209.442C257.471 209.58 257.378 209.698 257.258 209.783C257.137 209.869 256.994 209.916 256.847 209.921L256.834 209.923Z" fill="#1B1952"/>
<path d="M217.239 209.831C217.092 209.827 216.95 209.781 216.829 209.697C216.709 209.614 216.615 209.497 216.56 209.361C216.505 209.225 216.492 209.076 216.521 208.932C216.55 208.788 216.62 208.656 216.723 208.552C220.705 204.727 228.609 205.007 233.014 207.816C233.113 207.86 233.202 207.924 233.273 208.005C233.345 208.086 233.398 208.182 233.43 208.285C233.461 208.389 233.469 208.498 233.455 208.605C233.44 208.713 233.402 208.815 233.344 208.907C233.286 208.998 233.208 209.075 233.117 209.134C233.026 209.193 232.924 209.231 232.817 209.246C232.71 209.261 232.6 209.253 232.497 209.222C232.393 209.192 232.297 209.139 232.216 209.067C228.356 206.607 221.203 206.314 217.752 209.62C217.615 209.755 217.431 209.831 217.239 209.831Z" fill="#1B1952"/>
<path d="M352.041 355.358C339.527 351.654 322.971 345.346 311.2 342.213C297.369 338.518 288.674 334.661 280.54 322.985C276.535 317.228 274.969 309.086 266.131 300.521C268.339 318.48 253.417 335.908 256.463 341.407C265.025 356.878 273.512 372.271 264.972 386.047C262.394 390.202 259.686 391.832 255.912 393.897C265.816 394.42 269.698 393.932 278.012 394.998C288.094 396.292 298.483 396.655 307.045 402.257C304.332 403.308 304.375 406.925 304.275 409.337C304.26 409.74 304.25 410.143 304.24 410.551C304.24 410.584 304.24 410.614 304.24 410.644C304.194 412.376 304.119 414.116 303.336 415.695C302.808 416.761 301.962 417.62 301.143 418.493C300.677 418.971 300.245 419.482 299.85 420.02C299.774 420.128 299.699 420.233 299.629 420.346C298.253 422.575 297.708 425.219 298.09 427.812C298.221 428.725 298.478 429.616 298.856 430.457C299.777 432.505 299.457 434.758 297.146 434.713C290.992 434.59 276.08 431.331 261.143 431.459C247.102 431.579 233.141 433.238 219.188 434.637C187.952 437.764 152.627 444.372 123.021 430.185C99.6966 419.009 104.477 402.184 121.098 387.359C135.435 374.576 151.768 361.413 170.122 355.055C179.525 351.802 199.155 348.092 208.118 343.624C219.028 338.185 199.555 333.678 196.527 298.418C190.382 301.322 184.598 306.12 179.873 310.996C169.286 321.916 161.004 330.163 147.031 336.251C140.098 339.269 133.1 342.158 126.319 345.479C119.652 348.733 110.391 354.808 102.84 354.357C102.057 350.443 100.73 346.598 99.3137 342.881C96.5005 335.465 96.1301 329.473 98.7505 321.784C100.53 316.55 103.09 306.618 99.2812 301.509C112.782 303.855 124.395 311.161 138.483 311.521C160.486 312.085 171.659 291.815 185.604 276.004C190.212 270.78 195.676 264.771 202.123 261.935C205.955 260.253 210.107 259.662 214.255 259.432C217.298 259.259 223.926 259.8 223.926 259.8C223.926 259.8 227.537 263.592 230.496 264.711C232.875 265.563 235.392 265.969 237.919 265.91C240.447 265.877 243.007 265.159 245.045 263.589C246.296 262.628 247.69 259.585 247.69 259.585C247.69 259.585 256.951 260.085 259.544 261.139C263.37 262.688 266.552 264.894 269.53 267.754C275.827 273.797 280.49 281.298 284.897 288.779C287.085 292.486 289.215 296.241 291.58 299.84C292.832 301.74 300.34 315.308 303.371 314.455C319.822 309.729 333.656 303.442 352.955 298.899C340.854 321.931 355.768 328.424 352.041 355.358Z" fill="#E3BC75"/>
<path d="M165.331 402.667C165.155 402.655 164.988 402.581 164.861 402.458C164.734 402.335 164.654 402.171 164.636 401.995C164.618 401.82 164.662 401.643 164.761 401.496C164.861 401.35 165.008 401.243 165.179 401.195C188.543 396.222 220.539 389.409 247.49 393.729C247.597 393.731 247.702 393.757 247.799 393.803C247.895 393.85 247.981 393.917 248.049 393.999C248.118 394.081 248.168 394.178 248.197 394.281C248.225 394.384 248.231 394.493 248.214 394.598C248.197 394.704 248.158 394.805 248.098 394.895C248.039 394.984 247.961 395.06 247.871 395.116C247.78 395.173 247.678 395.21 247.571 395.224C247.465 395.238 247.357 395.229 247.255 395.198C220.577 390.921 188.738 397.701 165.489 402.65C165.437 402.662 165.384 402.667 165.331 402.667Z" fill="#756039"/>
<path opacity="0.8" d="M120.142 117.383C120.37 117.383 120.595 117.383 120.821 117.383C119.369 127.253 118.551 138.436 118.551 150.29C118.523 160.585 119.182 170.87 120.523 181.077H120.142C115.936 181.114 111.764 180.318 107.867 178.734C103.97 177.15 100.425 174.809 97.4379 171.848C94.4502 168.887 92.0788 165.363 90.4604 161.48C88.842 157.597 88.0088 153.432 88.0088 149.225C88.0088 145.018 88.842 140.853 90.4604 136.97C92.0788 133.087 94.4502 129.563 97.4379 126.602C100.425 123.641 103.97 121.3 107.867 119.716C111.764 118.133 115.936 117.336 120.142 117.373V117.383Z" fill="#8465EC"/>
<mask id="mask1_13_1589" style="mask-type:luminance" maskUnits="userSpaceOnUse" x="118" y="117" width="34" height="65">
<path d="M118.557 150.298C118.557 138.443 119.376 127.27 120.828 117.391C129.178 117.573 137.123 121.028 142.95 127.012C148.778 132.996 152.021 141.03 151.982 149.383C151.943 157.736 148.625 165.739 142.742 171.668C136.858 177.597 128.882 180.978 120.53 181.082C119.189 170.875 118.53 160.591 118.557 150.298Z" fill="white"/>
</mask>
<g mask="url(#mask1_13_1589)">
<path opacity="0.85" d="M166.114 115.469H60.2764V181.164H166.114V115.469Z" fill="#1C155B"/>
<path opacity="0.1" d="M84.1246 157.641C95.9055 151.066 106.205 142.623 115.39 132.844C121.037 126.837 123.755 119.511 122.671 111.221C121.49 102.173 115.698 96.7688 107.486 103.066C96.7239 111.309 91.4679 124.955 82.5002 134.819C75.9703 141.997 69.8233 141.827 60.8506 142.36C45.0551 143.307 37.8244 157.736 35.1713 166.119C34.3554 168.704 30.894 168.121 30.008 169.167C28.8516 170.526 28.8767 173.312 27.6453 174.576C25.3176 176.964 20.7749 176.549 18.3021 178.774C15.8844 180.946 16.1347 185.316 13.4141 187.139C18.61 187.139 20.2794 182.248 25.4728 181.131C30.1581 180.13 31.0066 175.33 36.175 173.788C42.2294 171.981 39.5313 163.275 50.7766 162.254C62.0219 161.233 73.9079 163.345 84.1246 157.641Z" fill="#FDCBFF"/>
<path opacity="0.1" d="M172.447 187.929C183.056 179.595 191.909 169.643 199.458 158.555C204.098 151.739 205.637 144.08 203.274 136.06C200.694 127.3 194.129 122.875 187.006 130.376C177.673 140.195 174.607 154.495 167.283 165.641C161.95 173.75 155.848 174.539 147.07 176.468C131.615 179.87 126.722 195.241 125.418 203.946C125.015 206.627 121.504 206.597 120.791 207.761C119.862 209.285 120.323 212.033 119.301 213.475C117.377 216.196 112.824 216.493 110.729 219.079C108.679 221.602 109.61 225.88 107.205 228.09C112.338 227.291 113.224 222.188 118.18 220.28C122.653 218.561 122.74 213.685 127.606 211.355C133.302 208.627 129.278 200.439 140.228 197.684C151.178 194.928 163.244 195.161 172.447 187.929Z" fill="#FDCBFF"/>
<path opacity="0.1" d="M128.901 173.162C128.461 174.849 128.134 176.563 127.923 178.293C127.317 182.916 125.945 189.807 121.948 192.56C125.202 191.559 127.883 190.415 130.057 187.614C134.247 182.223 135.842 174.904 143.625 174.806C150.403 174.724 157.847 179.159 164.131 174.806C171.007 170.051 170.366 161.17 176.661 156.535L179.524 154.713C172.388 154.963 169.042 158.349 163.663 162.171C160.83 164.174 154.63 163.335 151.817 161.453C148.854 159.468 147.86 156.863 143.751 157.271C140.369 157.609 137.1 160.274 134.808 162.71C131.677 166.029 129.94 169.297 128.901 173.162Z" fill="#FDCBFF"/>
<path opacity="0.6" d="M153.811 169.998C153.521 171.806 153.39 173.636 153.418 175.467C153.448 180.243 152.832 187.594 147.856 192.192C152.139 189.649 155.615 187.261 158.076 183.497C162.831 176.238 163.662 168.361 174.344 164.539C183.635 161.213 194.677 161.961 202.501 154.723C211.058 146.803 208.536 138.471 216.319 130.944L219.913 127.801C210.16 131.487 206.18 136.363 199.503 142.656C195.999 145.972 187.316 148.115 183.104 147.632C178.669 147.131 176.822 145.061 171.256 147.426C166.673 149.374 162.681 153.536 159.993 157C156.301 161.731 154.522 165.741 153.811 169.998Z" fill="#171345"/>
<path opacity="0.6" d="M98.986 146.626C99.0248 148.457 99.2215 150.282 99.5741 152.08C100.455 156.77 101.161 164.116 97.0713 169.525C100.826 166.271 103.829 163.293 105.581 159.148C108.965 151.164 108.382 143.259 118.198 137.597C126.748 132.669 137.748 131.438 144.155 122.92C151.163 113.601 147.196 105.852 153.513 97.0618L156.491 93.3274C147.561 98.6787 144.523 104.205 139.079 111.579C136.208 115.469 128.067 119.123 123.827 119.396C119.372 119.686 117.189 117.987 112.131 121.308C107.966 124.041 104.79 128.847 102.745 132.739C99.9646 138.048 98.9259 142.311 98.986 146.626Z" fill="#171345"/>
<path opacity="0.6" d="M120.574 93.2722C120.757 91.4498 120.783 89.615 120.652 87.7881C120.344 83.0325 120.531 75.6487 125.234 70.7679C121.107 73.5538 117.781 76.1393 115.533 80.0289C111.208 87.5378 110.833 95.4623 100.403 99.895C91.3206 103.767 69.8887 104.728 67.9765 115.218C63.7442 138.431 39.6943 133.41 39.6943 133.41C63.9945 142.383 70.2516 129.886 76.5413 123.228C79.8576 119.724 88.3898 117.073 92.6246 117.311C97.0822 117.561 99.0444 119.513 104.466 116.83C108.928 114.62 112.67 110.232 115.163 106.618C118.557 101.67 120.111 97.5648 120.574 93.2722Z" fill="#171345"/>
<path opacity="0.1" d="M190.257 134.283C202.038 127.706 212.337 119.266 221.523 109.484C227.169 103.477 229.887 96.1531 228.806 87.8633C227.622 78.815 221.828 73.4111 213.616 79.7061C202.866 87.9509 197.598 101.595 188.633 111.459C182.103 118.637 175.956 118.467 166.983 119.003C151.185 119.949 143.957 134.376 141.304 142.761C140.488 145.347 137.024 144.763 136.14 145.807C134.984 147.166 135.009 149.954 133.778 151.218C131.45 153.606 126.907 153.188 124.435 155.416C122.017 157.589 122.267 161.956 119.544 163.778C124.742 163.778 126.412 158.888 131.603 157.771C136.291 156.77 137.136 151.967 142.307 150.425C148.362 148.62 145.664 139.913 156.909 138.894C168.154 137.875 180.038 139.998 190.257 134.283Z" fill="#FDCBFF"/>
<path opacity="0.1" d="M91.3442 180.095C89.0241 184.928 89.5722 191.459 84.8618 194.325C82.3164 195.874 75.1783 194.575 72.4902 199.686C80.7171 197.846 83.4102 200.497 91.0113 197.866C95.3137 196.365 98.665 191.399 100.652 187.534C103.954 181.111 110.726 184.32 115.669 181.001C120.502 177.747 121.031 168.381 126.537 167.318C122.903 166.209 119.086 168.734 116.418 170.629C113.317 172.832 111.913 175.885 107.558 176.068C104.126 176.221 100.697 173.928 97.2835 174.984C94.1299 175.958 92.4254 177.843 91.3442 180.095Z" fill="#FDCBFF"/>
</g>
<path opacity="0.8" d="M80.5411 203.793C81.6706 203.793 82.7993 203.853 83.9225 203.971C76.8279 206.018 70.665 210.467 66.4876 216.556C62.3103 222.645 60.378 229.996 61.0212 237.353C61.6645 244.709 64.8434 251.613 70.0142 256.885C75.185 262.156 82.0265 265.468 89.3687 266.253C84.9881 267.516 80.3874 267.823 75.8776 267.155C71.3678 266.487 67.054 264.858 63.2277 262.379C59.4014 259.9 56.1519 256.629 53.6987 252.786C51.2455 248.943 49.6458 244.618 49.0078 240.104C48.3698 235.59 48.7082 230.991 50.0004 226.619C51.2925 222.246 53.5081 218.202 56.4975 214.76C59.4869 211.318 63.1804 208.557 67.3284 206.665C71.4763 204.773 75.9821 203.794 80.5411 203.793Z" fill="#8465EC"/>
<mask id="mask2_13_1589" style="mask-type:luminance" maskUnits="userSpaceOnUse" x="60" y="203" width="53" height="64">
<path d="M89.3699 266.253C82.0277 265.468 75.1862 262.156 70.0154 256.885C64.8446 251.613 61.6658 244.709 61.0225 237.353C60.3792 229.996 62.3115 222.645 66.4889 216.556C70.6662 210.467 76.8292 206.018 83.9237 203.971C91.3564 204.767 98.2726 208.151 103.462 213.532C108.651 218.913 111.783 225.947 112.309 233.404C112.834 240.861 110.721 248.266 106.339 254.322C101.956 260.378 95.5837 264.699 88.3363 266.53C88.6817 266.443 89.0245 266.35 89.3699 266.253Z" fill="white"/>
</mask>
<g mask="url(#mask2_13_1589)">
<path opacity="0.85" d="M152.764 203.068H46.9258V268.761H152.764V203.068Z" fill="#1C155B"/>
<path opacity="0.1" d="M70.7765 245.235C82.5574 238.662 92.8566 230.217 102.042 220.441C107.689 214.434 110.407 207.11 109.323 198.82C108.142 189.772 102.35 184.368 94.1356 190.663C83.3858 198.905 78.1173 212.551 69.1521 222.416C62.6222 229.594 56.4752 229.424 47.5025 229.959C31.707 230.903 24.4763 245.33 21.8233 253.713C21.0073 256.298 17.5434 255.715 16.6599 256.761C15.5036 258.12 15.5286 260.906 14.2972 262.17C11.9695 264.561 7.42686 264.143 4.95405 266.368C2.53629 268.54 2.78658 272.91 0.0634766 274.733C5.2619 274.733 6.9313 269.842 12.1247 268.726C16.81 267.724 17.6585 262.924 22.8269 261.382C28.8813 259.575 26.1832 250.869 37.4285 249.848C48.6738 248.827 60.5574 250.939 70.7765 245.235Z" fill="#FDCBFF"/>
<path opacity="0.1" d="M159.105 275.524C169.717 267.189 178.57 257.237 186.118 246.149C190.758 239.338 192.298 231.679 189.933 223.66C187.355 214.899 180.79 210.474 173.664 217.975C164.331 227.795 161.265 242.092 153.942 253.235C148.613 261.344 142.514 262.133 133.734 264.063C118.278 267.464 113.385 282.835 112.079 291.54C111.676 294.221 108.167 294.191 107.454 295.355C106.525 296.879 106.986 299.627 105.964 301.069C104.04 303.79 99.4871 304.088 97.3897 306.673C95.3423 309.196 96.2709 313.474 93.8682 315.684C99.0015 314.885 99.875 309.782 104.843 307.875C109.313 306.155 109.403 301.279 114.269 298.949C119.965 296.221 115.941 288.034 126.891 285.278C137.841 282.522 149.897 282.755 159.105 275.524Z" fill="#FDCBFF"/>
<path opacity="0.1" d="M41.7228 235.238C41.2946 236.878 40.9769 238.544 40.7718 240.227C40.1886 244.702 38.8521 251.382 34.9727 254.061C38.1338 253.079 40.7292 251.978 42.8491 249.26C46.9163 244.026 48.463 236.923 56.0191 236.83C62.5991 236.75 69.8273 241.053 75.9268 236.83C82.6019 232.212 81.9812 223.589 88.0906 219.089L90.8713 217.339C83.9434 217.59 80.6922 220.869 75.4713 224.581C72.7181 226.535 66.7113 225.709 63.9582 223.882C61.0824 221.957 60.1188 219.424 56.1292 219.822C52.8455 220.15 49.6719 222.741 47.4469 225.104C44.4184 228.315 42.724 231.486 41.7228 235.238Z" fill="#FDCBFF"/>
<path opacity="0.1" d="M114.242 261.827C113.803 263.518 113.476 265.235 113.263 266.968C112.663 271.581 111.286 278.462 107.289 281.22C110.543 280.219 113.226 279.075 115.401 276.275C119.591 270.883 121.182 263.564 128.966 263.469C135.744 263.384 143.187 267.82 149.472 263.469C156.347 258.714 155.707 249.833 162.001 245.198L164.862 243.37C157.726 243.621 154.378 247.005 148.999 250.827C146.168 252.842 139.966 251.991 137.153 250.108C134.19 248.126 133.199 245.518 129.089 245.926C125.705 246.264 122.439 248.93 120.146 251.365C117.02 254.696 115.283 257.963 114.242 261.827Z" fill="#FDCBFF"/>
<path opacity="0.6" d="M37.3986 281.243C37.1091 283.052 36.9777 284.883 37.0057 286.714C37.0357 291.488 36.42 298.839 31.4443 303.437C35.7267 300.894 39.2032 298.506 41.6635 294.741C46.4189 287.483 47.2498 279.606 57.932 275.784C67.2226 272.457 78.2651 273.206 86.0891 265.967C94.6463 258.048 92.1234 249.715 99.9048 242.189L103.501 239.048C93.7403 242.717 89.7808 247.603 83.1032 253.895C79.5866 257.212 70.9168 259.354 66.7045 258.871C62.2694 258.371 60.4223 256.298 54.856 258.666C50.2733 260.613 46.2812 264.776 43.5932 268.24C39.8889 272.976 38.1094 276.985 37.3986 281.243Z" fill="#171345"/>
<path opacity="0.6" d="M85.6385 234.225C85.6759 236.055 85.8727 237.879 86.2267 239.676C87.1077 244.364 87.811 251.71 83.7363 257.119C87.4906 253.865 90.494 250.887 92.246 246.742C95.6249 238.765 95.0317 230.856 104.858 225.199C113.408 220.268 124.408 219.037 130.815 210.519C137.823 201.203 133.856 193.451 140.173 184.661C140.173 184.661 143.154 180.926 143.151 180.926C134.211 186.278 131.175 191.792 125.729 199.175C122.858 203.068 114.717 206.719 110.477 206.995C106.022 207.283 103.837 205.583 98.781 208.905C94.6187 211.638 91.4326 216.446 89.3978 220.333C86.6171 225.644 85.5784 229.907 85.6385 234.225Z" fill="#171345"/>
<path opacity="0.6" d="M107.226 180.871C107.41 179.049 107.435 177.214 107.301 175.387C106.994 170.632 107.184 163.248 111.884 158.367C107.757 161.15 104.428 163.736 102.183 167.628C97.8581 175.137 97.4827 183.061 87.0533 187.494C77.973 191.366 56.5411 192.325 54.6289 202.822C50.3966 226.035 26.3467 221.011 26.3467 221.014C50.6494 229.99 56.9015 217.492 63.2036 210.822C66.5199 207.318 75.0521 204.667 79.287 204.907C83.7445 205.158 85.7068 207.11 91.1279 204.424C95.5905 202.214 99.3323 197.829 101.825 194.215C105.219 189.269 106.763 185.161 107.226 180.871Z" fill="#171345"/>
<path opacity="0.1" d="M164.962 213.665C176.743 207.087 187.042 198.647 196.228 188.866C201.874 182.859 204.592 175.535 203.508 167.245C202.327 158.197 196.533 152.793 188.321 159.088C177.559 167.333 172.303 180.976 163.338 190.843C156.808 198.022 150.661 197.852 141.688 198.385C125.89 199.331 118.662 213.758 116.009 222.143C115.193 224.728 111.729 224.145 110.845 225.189C109.689 226.548 109.714 229.336 108.483 230.6C106.155 232.988 101.612 232.573 99.1396 234.798C96.7218 236.97 96.9721 241.338 94.249 243.158C99.4449 243.17 101.117 238.269 106.308 237.151C110.996 236.149 111.842 231.346 117.012 229.807C123.067 228 120.369 219.294 131.614 218.273C142.859 217.252 154.743 219.37 164.962 213.665Z" fill="#FDCBFF"/>
<path opacity="0.1" d="M72.5566 262.676C69.8835 268.247 70.5143 275.774 65.0856 279.078C62.1522 280.865 53.9229 279.371 50.8193 285.26C60.3001 283.138 63.4062 286.194 72.1737 283.16C77.1343 281.446 80.9987 275.706 83.2888 271.251C87.0931 263.847 94.902 267.547 100.589 263.72C106.162 259.965 106.771 249.172 113.118 247.951C108.928 246.672 104.528 249.583 101.452 251.765C97.8779 254.303 96.2661 257.813 91.2404 258.023C87.2834 258.201 83.3314 255.557 79.3969 256.771C75.7602 257.905 73.803 260.078 72.5566 262.676Z" fill="#FDCBFF"/>
</g>
<path d="M356.079 419.597C353.136 422.643 349.677 423.852 345.802 424.493C332.169 426.778 314.144 425.662 299.857 420.018C300.253 419.479 300.685 418.969 301.151 418.491C301.97 417.617 302.816 416.759 303.344 415.692C304.127 414.113 304.202 412.374 304.247 410.641C304.247 410.611 304.247 410.581 304.247 410.549C304.247 410.459 304.247 410.366 304.247 410.276C307.684 410.777 311.27 411.257 314.339 410.789C318.551 410.143 317.482 407.946 321.53 407.012C326.953 405.761 328.262 409.515 331.684 412.346C338.149 417.682 351.366 413.322 356.079 419.597Z" fill="#CD9160"/>
<path d="M355.534 428.05C352.14 430.953 348.211 431.982 343.826 432.44C330.263 433.859 312.935 432.477 298.093 427.809C297.712 425.217 298.257 422.573 299.633 420.343C300.075 419.68 300.577 419.06 301.134 418.491C302.55 418.822 304.009 418.927 305.457 418.804C310.212 418.368 312.302 414.484 316.887 413.75C323.034 412.769 324.418 416.591 328.208 419.59C335.368 425.249 350.378 421.537 355.534 428.05Z" fill="#FFC595"/>
<path d="M100.219 303.114C90.0201 301.507 87.2044 297.254 83.9507 296.496C82.0064 295.697 79.9526 295.195 77.8587 295.009C72.9231 294.509 68.3754 292.854 63.4023 292.193C63.3397 295.362 68.1902 296.043 70.3827 296.809C71.4714 297.171 72.5074 297.676 73.4637 298.311C72.5107 298.409 71.5493 298.391 70.6005 298.258C58.1338 296.894 55.1954 286.902 51.754 292.001C51.5638 292.284 52.1069 292.964 52.8753 293.698C52.6819 293.745 52.4999 293.83 52.3397 293.948C51.8792 295.282 56.0664 298.834 59.6155 301.792C63.8503 305.324 71.031 308.105 76.4346 309.186C82.6342 310.425 89.0089 308.46 95.2335 309.712C97.26 310.134 99.2317 310.787 101.11 311.657C101.426 308.583 101.288 305.532 100.219 303.114Z" fill="#FFC595"/>
<path d="M401.315 287.751C402.051 286.982 402.566 286.279 402.361 285.999C398.699 281.065 396.202 291.177 383.807 293.089C382.866 293.264 381.907 293.323 380.952 293.267C381.876 292.592 382.886 292.044 383.955 291.635C386.108 290.772 390.926 289.883 390.713 286.714C385.775 287.595 381.305 289.468 376.397 290.163C374.312 290.442 372.281 291.033 370.372 291.916C367.061 292.842 364.38 297.442 353.528 299.424L352.569 299.6C350.374 303.917 349.138 307.652 348.55 311.053C352.021 308.638 355.725 306.588 359.682 305.609C365.844 304.087 372.302 305.769 378.454 304.258C383.805 302.941 390.855 299.845 394.93 296.133C398.346 293.019 402.374 289.287 401.855 287.976C401.692 287.866 401.508 287.789 401.315 287.751Z" fill="#FFC595"/>
<path opacity="0.8" d="M354.296 117.383C353.166 117.383 352.036 117.443 350.912 117.561C358.007 119.608 364.17 124.057 368.347 130.146C372.525 136.234 374.457 143.586 373.814 150.942C373.172 158.298 369.993 165.202 364.823 170.474C359.652 175.746 352.811 179.057 345.469 179.843C349.849 181.106 354.45 181.413 358.96 180.745C363.47 180.077 367.783 178.448 371.61 175.969C375.436 173.491 378.686 170.219 381.139 166.376C383.592 162.533 385.192 158.208 385.83 153.694C386.468 149.18 386.129 144.581 384.837 140.209C383.545 135.836 381.329 131.792 378.34 128.35C375.351 124.908 371.657 122.147 367.509 120.255C363.361 118.363 358.855 117.384 354.296 117.383Z" fill="#8465EC"/>
<mask id="mask3_13_1589" style="mask-type:luminance" maskUnits="userSpaceOnUse" x="322" y="117" width="52" height="64">
<path d="M345.468 179.843C352.81 179.057 359.652 175.746 364.822 170.474C369.993 165.202 373.171 158.298 373.814 150.942C374.457 143.585 372.524 136.234 368.347 130.145C364.169 124.057 358.006 119.608 350.912 117.561C343.479 118.357 336.563 121.741 331.374 127.122C326.185 132.503 323.053 139.537 322.527 146.994C322.001 154.451 324.114 161.856 328.497 167.911C332.879 173.967 339.252 178.289 346.499 180.12C346.154 180.045 345.816 179.94 345.468 179.843Z" fill="white"/>
</mask>
<g mask="url(#mask3_13_1589)">
<path opacity="0.85" d="M417.107 117.061H311.269V182.754H417.107V117.061Z" fill="#1C155B"/>
<path opacity="0.1" d="M335.117 159.231C346.9 152.658 357.199 144.213 366.385 134.436C372.031 128.429 374.747 121.103 373.666 112.813C372.484 103.765 366.69 98.3608 358.478 104.658C347.729 112.901 342.46 126.547 333.495 136.411C326.965 143.589 320.818 143.419 311.845 143.952C296.047 144.899 288.819 159.323 286.166 167.708C285.35 170.294 281.886 169.71 281.003 170.754C279.846 172.113 279.871 174.902 278.64 176.163C276.312 178.553 271.77 178.135 269.297 180.361C266.879 182.536 267.129 186.903 264.406 188.726C269.602 188.738 271.274 183.835 276.465 182.718C281.153 181.717 281.999 176.914 287.17 175.372C293.224 173.568 290.523 164.86 301.771 163.841C313.019 162.822 324.9 164.935 335.117 159.231Z" fill="#FDCBFF"/>
<path opacity="0.1" d="M423.439 189.519C434.051 181.182 442.904 171.232 450.453 160.144C455.093 153.331 456.632 145.672 454.267 137.653C451.689 128.892 445.124 124.467 437.998 131.968C428.665 141.787 425.599 156.084 418.276 167.228C412.945 175.337 406.848 176.126 398.068 178.058C382.613 181.457 377.72 196.83 376.413 205.533C376.01 208.216 372.499 208.186 371.788 209.35C370.857 210.872 371.317 213.623 370.286 215.062C368.359 217.785 363.809 218.083 361.712 220.666C359.664 223.192 360.593 227.467 358.188 229.692C363.323 228.893 364.194 223.79 369.165 221.882C373.635 220.163 373.723 215.285 378.588 212.957C384.287 210.226 380.263 202.041 391.21 199.286C402.158 196.53 414.239 196.748 423.439 189.519Z" fill="#FDCBFF"/>
<path opacity="0.1" d="M306.066 149.231C305.637 150.872 305.32 152.539 305.115 154.222C304.531 158.697 303.195 165.378 299.315 168.054C302.477 167.072 305.072 165.971 307.189 163.253C311.257 158.017 312.806 150.916 320.362 150.823C326.942 150.741 334.168 155.046 340.27 150.823C346.945 146.208 346.324 137.585 352.433 133.085L355.214 131.315C348.286 131.565 345.037 134.844 339.817 138.556C337.063 140.511 331.057 139.687 328.303 137.858C325.428 135.933 324.464 133.402 320.475 133.798C317.191 134.126 314.017 136.719 311.792 139.079C308.774 142.308 307.074 145.479 306.066 149.231Z" fill="#FDCBFF"/>
<path opacity="0.1" d="M378.584 175.823C378.144 177.513 377.817 179.23 377.605 180.964C377.004 185.574 375.628 192.455 371.631 195.213C374.885 194.212 377.568 193.066 379.74 190.267C383.93 184.874 385.524 177.555 393.308 177.46C400.086 177.377 407.529 181.812 413.814 177.46C420.689 172.704 420.048 163.824 426.343 159.188L429.209 157.366C422.071 157.616 418.724 161 413.346 164.825C410.513 166.827 404.313 165.989 401.5 164.104C398.536 162.122 397.545 159.513 393.433 159.924C390.052 160.259 386.783 162.928 384.493 165.363C381.354 168.692 379.622 171.958 378.584 175.823Z" fill="#FDCBFF"/>
<path opacity="0.6" d="M301.74 195.236C301.451 197.045 301.32 198.876 301.347 200.707C301.377 205.48 300.762 212.834 295.786 217.432C300.069 214.889 303.545 212.501 306.008 208.737C310.763 201.478 311.594 193.601 322.261 189.782C331.554 186.453 342.597 187.201 350.421 179.963C358.978 172.046 356.453 163.711 364.237 156.184L367.838 153.048C358.077 156.715 354.118 161.601 347.44 167.896C343.936 171.212 335.254 173.355 331.041 172.869C326.606 172.369 324.759 170.299 319.193 172.667C314.61 174.614 310.618 178.776 307.93 182.24C304.231 186.971 302.451 190.978 301.74 195.236Z" fill="#171345"/>
<path opacity="0.6" d="M349.982 148.217C350.019 150.048 350.216 151.872 350.57 153.669C351.451 158.359 352.155 165.703 348.067 171.115C351.822 167.861 354.825 164.882 356.577 160.74C359.961 152.758 359.375 144.853 369.194 139.192C377.741 134.263 388.744 133.032 395.151 124.514C402.159 115.196 398.192 107.447 404.509 98.6561L407.488 94.9217C398.547 100.271 395.509 105.787 390.063 113.171C387.194 117.06 379.05 120.715 374.813 120.988C370.358 121.278 368.173 119.578 363.117 122.9C358.955 125.633 355.769 130.439 353.734 134.328C350.958 139.64 349.922 143.902 349.982 148.217Z" fill="#171345"/>
<path opacity="0.6" d="M371.569 94.8643C371.752 93.0419 371.777 91.207 371.644 89.3803C371.336 84.6246 371.526 77.2409 376.226 72.3601C372.097 75.1459 368.77 77.7315 366.525 81.6211C362.2 89.13 361.825 97.0544 351.396 101.487C342.313 105.347 320.881 106.308 318.969 116.793C314.734 140.005 290.687 134.984 290.687 134.984C314.979 143.975 321.234 131.488 327.543 124.807C330.862 121.303 339.394 118.653 343.627 118.89C348.087 119.141 350.049 121.095 355.47 118.41C359.93 116.2 363.675 111.812 366.167 108.198C369.561 103.262 371.106 99.1569 371.569 94.8643Z" fill="#171345"/>
<path opacity="0.1" d="M441.25 135.875C453.033 129.298 463.332 120.858 472.518 111.076C478.164 105.069 480.88 97.7451 479.798 89.4553C478.617 80.407 472.823 75.0031 464.611 81.2981C453.849 89.5429 448.593 103.187 439.625 113.051C433.098 120.232 426.951 120.059 417.976 120.595C402.18 121.541 394.949 135.968 392.299 144.353C391.483 146.939 388.019 146.355 387.133 147.399C385.977 148.758 386.004 151.546 384.773 152.81C382.445 155.196 377.902 154.78 375.427 157.003C373.012 159.178 373.262 163.546 370.539 165.368C375.735 165.368 377.404 160.477 382.598 159.361C387.283 158.36 388.132 153.559 393.3 152.02C399.357 150.212 396.656 141.507 407.902 140.486C419.147 139.465 431.033 141.58 441.25 135.875Z" fill="#FDCBFF"/>
<path opacity="0.1" d="M341.982 180.015C339.665 184.851 340.21 191.379 335.502 194.247C332.957 195.796 325.819 194.497 323.131 199.608C331.355 197.769 334.051 200.417 341.652 197.786C345.957 196.3 349.308 191.321 351.293 187.457C354.597 181.034 361.369 184.24 366.31 180.924C371.146 177.67 371.674 168.301 377.18 167.24C373.543 166.131 369.729 168.657 367.061 170.552C363.96 172.752 362.556 175.795 358.201 175.99C354.769 176.143 351.34 173.85 347.939 174.904C344.768 175.878 343.064 177.763 341.982 180.015Z" fill="#FDCBFF"/>
</g>
<mask id="mask4_13_1589" style="mask-type:luminance" maskUnits="userSpaceOnUse" x="358" y="203" width="65" height="65">
<path d="M358.354 235.644C358.353 241.944 360.221 248.102 363.72 253.341C367.22 258.579 372.194 262.662 378.014 265.074C383.834 267.485 390.238 268.116 396.417 266.887C402.596 265.659 408.271 262.625 412.726 258.17C417.181 253.716 420.215 248.04 421.444 241.861C422.673 235.682 422.042 229.278 419.632 223.457C417.221 217.637 413.139 212.662 407.901 209.162C402.663 205.662 396.504 203.793 390.205 203.793C381.758 203.793 373.657 207.149 367.683 213.122C361.71 219.095 358.354 227.196 358.354 235.644Z" fill="white"/>
</mask>
<g mask="url(#mask4_13_1589)">
<path opacity="0.85" d="M444.736 202.819H338.898V268.512H444.736V202.819Z" fill="#1C155B"/>
<path opacity="0.1" d="M362.744 244.99C374.527 238.417 384.826 229.972 394.012 220.195C399.658 214.188 402.374 206.864 401.293 198.572C400.109 189.526 394.317 184.122 386.105 190.417C375.343 198.66 370.087 212.306 361.119 222.17C354.592 229.349 348.445 229.178 339.472 229.711C323.674 230.658 316.446 245.082 313.793 253.467C312.977 256.053 309.513 255.47 308.63 256.513C307.471 257.872 307.498 260.661 306.267 261.925C303.939 264.313 299.397 263.897 296.921 266.12C294.506 268.295 294.756 272.665 292.033 274.485C297.229 274.485 298.899 269.594 304.092 268.478C308.78 267.476 309.626 262.673 314.797 261.131C320.851 259.327 318.15 250.619 329.396 249.6C340.641 248.581 352.527 250.694 362.744 244.99Z" fill="#FDCBFF"/>
<path opacity="0.1" d="M451.068 275.278C461.677 266.941 470.532 256.991 478.081 245.903C482.719 239.09 484.26 231.431 481.895 223.414C479.315 214.654 472.752 210.226 465.627 217.727C456.296 227.546 453.228 241.846 445.907 252.989C440.576 261.099 434.476 261.885 425.699 263.817C410.244 267.216 405.351 282.589 404.044 291.295C403.641 293.975 400.13 293.945 399.419 295.109C398.488 296.631 398.948 299.382 397.917 300.821C395.99 303.544 391.44 303.842 389.342 306.425C387.295 308.951 388.224 313.226 385.818 315.451C390.954 314.652 391.838 309.549 396.796 307.642C401.266 305.922 401.354 301.046 406.219 298.716C411.918 295.988 407.891 287.8 418.841 285.045C429.791 282.289 441.865 282.507 451.068 275.278Z" fill="#FDCBFF"/>
<path opacity="0.1" d="M333.689 234.993C333.263 236.633 332.945 238.299 332.738 239.981C332.157 244.457 330.82 251.137 326.938 253.815C330.1 252.834 332.695 251.733 334.812 249.014C338.88 243.778 340.429 236.677 347.985 236.585C354.565 236.502 361.791 240.807 367.893 236.585C374.568 231.967 373.945 223.344 380.056 218.844L382.837 217.077C375.909 217.327 372.658 220.603 367.437 224.315C364.684 226.272 358.677 225.446 355.924 223.617C353.048 221.692 352.085 219.161 348.095 219.559C344.809 219.885 341.638 222.478 339.413 224.838C336.384 228.07 334.7 231.238 333.689 234.993Z" fill="#FDCBFF"/>
<path opacity="0.1" d="M406.211 261.582C405.77 263.272 405.443 264.989 405.232 266.723C404.631 271.333 403.255 278.214 399.258 280.972C402.512 279.971 405.192 278.827 407.367 276.026C411.557 270.635 413.151 263.316 420.935 263.219C427.713 263.136 435.156 267.571 441.441 263.219C448.316 258.463 447.675 249.583 453.97 244.947L456.836 243.125C449.698 243.375 446.351 246.759 440.973 250.584C438.14 252.586 431.94 251.748 429.127 249.865C426.163 247.881 425.17 245.272 421.06 245.683C417.679 246.021 414.41 248.686 412.117 251.122C408.986 254.451 407.249 257.717 406.211 261.582Z" fill="#FDCBFF"/>
<path opacity="0.6" d="M329.365 280.997C329.077 282.806 328.947 284.635 328.974 286.466C329.004 291.239 328.389 298.593 323.413 303.191C327.695 300.651 331.172 298.26 333.635 294.496C338.39 287.237 339.219 279.36 349.888 275.541C359.179 272.212 370.224 272.963 378.045 265.724C386.605 257.805 384.08 249.472 391.864 241.946L395.46 238.805C385.699 242.474 381.737 247.357 375.062 253.652C371.558 256.969 362.876 259.111 358.663 258.626C354.226 258.125 352.381 256.055 346.815 258.423C342.232 260.37 338.24 264.533 335.552 267.997C331.858 272.73 330.076 276.737 329.365 280.997Z" fill="#171345"/>
<path opacity="0.6" d="M377.603 233.977C377.642 235.808 377.84 237.633 378.193 239.431C379.074 244.119 379.778 251.465 375.69 256.874C379.445 253.62 382.448 250.639 384.2 246.496C387.584 238.514 386.998 230.61 396.814 224.948C405.364 220.02 416.364 218.789 422.774 210.271C429.782 200.952 425.815 193.203 432.132 184.413C432.132 184.413 435.113 180.678 435.111 180.678C426.17 186.03 423.132 191.544 417.686 198.927C414.817 202.817 406.673 206.471 402.436 206.744C397.981 207.035 395.796 205.335 390.74 208.657C386.578 211.39 383.392 216.195 381.354 220.085C378.584 225.399 377.548 229.661 377.603 233.977Z" fill="#171345"/>
<path opacity="0.6" d="M399.196 180.626C399.378 178.803 399.403 176.968 399.271 175.142C398.963 170.386 399.153 163 403.854 158.121C399.727 160.907 396.4 163.493 394.155 167.395C389.83 174.904 389.455 182.828 379.026 187.261C369.943 191.121 348.511 192.079 346.599 202.564C342.364 225.777 318.316 220.756 318.316 220.758C342.617 229.734 348.871 217.237 355.171 210.566C358.49 207.062 367.022 204.411 371.254 204.652C375.714 204.902 377.676 206.854 383.095 204.169C387.558 201.959 391.302 197.573 393.795 193.959C397.186 189.023 398.733 184.916 399.196 180.626Z" fill="#171345"/>
<path opacity="0.1" d="M456.929 213.42C468.713 206.842 479.012 198.402 488.197 188.62C493.844 182.613 496.559 175.289 495.476 167C494.294 157.951 488.503 152.547 480.291 158.842C469.529 167.085 464.273 180.731 455.305 190.595C448.777 197.774 442.628 197.603 433.655 198.139C417.86 199.083 410.629 213.512 407.979 221.897C407.163 224.483 403.699 223.9 402.813 224.943C401.656 226.302 401.684 229.091 400.452 230.355C398.125 232.743 393.582 232.325 391.107 234.55C388.692 236.725 388.939 241.093 386.219 242.912C391.415 242.912 393.084 238.024 398.277 236.905C402.963 235.904 403.811 231.101 408.982 229.559C415.034 227.754 412.336 219.046 423.581 218.028C434.827 217.009 446.713 219.124 456.929 213.42Z" fill="#FDCBFF"/>
<path opacity="0.1" d="M364.526 262.43C361.853 268.002 362.484 275.528 357.055 278.832C354.122 280.619 345.893 279.125 342.789 285.015C352.272 282.892 355.378 285.946 364.146 282.915C369.107 281.2 372.968 275.461 375.259 271.006C379.065 263.602 386.874 267.299 392.561 263.474C398.135 259.72 398.743 248.924 405.075 247.705C400.885 246.429 396.485 249.337 393.409 251.522C389.835 254.06 388.223 257.567 383.198 257.78C379.241 257.955 375.289 255.312 371.354 256.528C367.737 257.66 365.773 259.832 364.526 262.43Z" fill="#FDCBFF"/>
</g>
</g>
<defs>
<clipPath id="clip0_13_1589">
<rect width="498.458" height="438.666" fill="white" transform="translate(0.0634766 0.254364)"/>
</clipPath>
</defs>
</svg>
