<svg width="118" height="30" viewBox="0 0 118 30" fill="none" xmlns="http://www.w3.org/2000/svg">
<path d="M69.3771 0.621823C66.9762 0.637543 64.6772 1.59476 62.9746 3.28766C61.272 4.98057 60.3016 7.27397 60.2721 9.6748C60.2721 16.3908 60.2721 23.1155 60.2721 29.9269C61.4427 29.4933 62.7001 29.5844 63.8187 29.0208C67.4217 27.2258 69.3771 24.4162 69.3771 20.319V0.621823ZM72.5942 29.3546C73.5015 29.5871 74.4511 29.5999 75.3643 29.3917C76.2775 29.1836 77.1278 28.7606 77.8448 28.158C80.2424 26.3066 81.7903 23.8222 81.8553 20.8349C81.9984 14.2273 81.8553 7.61099 81.8553 0.999029C81.8553 0.942664 81.7729 0.886307 81.7296 0.829943C81.6266 0.728605 81.5007 0.653615 81.3626 0.611344C81.2245 0.569073 81.0782 0.560772 80.9361 0.587144C77.034 0.925329 72.8023 4.77111 72.8413 9.01143C72.8789 13.1072 72.8789 17.2045 72.8413 21.3032C72.785 23.9523 72.9974 26.6058 72.5899 29.3546H72.5942ZM11.7468 29.3069C12.3787 29.4986 13.0432 29.559 13.6993 29.4844C14.3554 29.4099 14.9894 29.2019 15.5622 28.8733C18.8834 27.0177 20.8084 24.3338 20.8474 20.4144C20.9125 13.8891 20.622 7.35952 21.0599 0.838609C20.9512 0.750193 20.8299 0.678583 20.7 0.626163C20.4905 0.573106 20.2739 0.554073 20.0583 0.569797C18.7648 0.694905 17.5129 1.09455 16.3862 1.74203C15.2594 2.38952 14.2838 3.26995 13.5244 4.32453C12.137 6.19756 11.7901 8.40877 11.7641 10.6417C11.6991 14.5958 11.7641 18.5543 11.7641 22.5128L11.7468 29.3069ZM105.971 29.6451C106.378 27.2561 106.274 11.6779 105.84 10.1734C101.297 9.82655 97.0433 13.707 96.7355 18.6107C96.3496 24.698 100.048 29.8012 105.966 29.6451H105.971ZM57.5319 10.1561C54.3495 9.72249 52.2207 11.318 50.391 13.4209C48.5613 15.5237 48.479 18.1121 48.5353 20.7482C48.6134 24.3078 50.2219 26.9223 53.2439 28.6826C54.5446 29.45 55.9841 29.8706 57.5319 29.2809V10.1561ZM36.0138 29.8142C43.1981 28.5785 46.4759 23.9133 45.0061 17.0022C44.1042 12.7488 39.8032 9.51872 36.0138 10.3989V29.8142ZM0.0750317 0.569797C0.0750317 4.67572 -0.128745 8.48248 0.144405 12.2762C0.233685 13.5745 0.625163 14.834 1.28761 15.9541C1.95006 17.0743 2.86513 18.0241 3.95983 18.7278C5.58572 19.816 7.28099 20.6008 9.50955 20.2453C9.01094 19.0053 9.12367 17.8606 9.11933 16.7203C9.11933 14.353 9.07164 11.9814 9.11933 9.61409C9.16439 8.02577 8.73411 6.46017 7.88365 5.11796C6.15804 2.3431 3.74738 0.652176 0.0750317 0.569797ZM33.5251 29.7145C33.2476 26.3456 33.4123 23.1242 33.382 19.9071C33.3516 16.69 33.382 13.4859 33.382 10.3165C29.5189 9.71383 24.8406 13.4382 24.3594 17.4097C23.5833 23.7832 26.163 29.463 33.5251 29.7231V29.7145ZM93.5617 29.5844C93.5617 25.8774 93.7135 22.1486 93.5097 18.4373C93.4534 17.2079 93.1331 16.005 92.5705 14.9105C92.0079 13.816 91.2162 12.8554 90.2493 12.0941C88.5366 10.7154 86.6419 9.8569 84.4047 10.1214C84.6595 13.5408 84.6943 16.9731 84.5088 20.397C84.2443 25.7169 88.9659 30.005 93.5617 29.5931V29.5844ZM108.615 10.1908C108.993 13.5379 108.815 16.768 108.789 19.9938C108.789 22.5519 109.387 24.8411 111.143 26.7142C112.899 28.5872 115.045 29.7492 117.647 29.7231C117.745 29.5554 117.818 29.3743 117.863 29.1855C117.863 26.0898 117.824 22.9984 117.889 19.9028C117.907 18.3917 117.612 16.8934 117.022 15.502C116.364 13.8409 115.195 12.4319 113.684 11.4787C112.173 10.5256 110.398 10.0776 108.615 10.1994V10.1908Z" fill="#C49F5C"/>
<path d="M69.377 0.621826V20.319C69.377 24.3946 67.4259 27.2258 63.8403 29.0381C62.7217 29.6018 61.4643 29.502 60.2936 29.9443C60.2936 23.1242 60.2936 16.4082 60.2936 9.69215C60.3185 7.29202 61.2839 4.99741 62.9824 3.30139C64.6808 1.60537 66.9768 0.64327 69.377 0.621826Z" fill="#C49F5C"/>
<path d="M72.5898 29.3545C72.9973 26.6057 72.7849 23.9522 72.8066 21.3031C72.8441 17.2044 72.8441 13.1072 72.8066 9.01135C72.7675 4.77102 76.9862 0.925244 80.9013 0.587058C81.0434 0.560687 81.1897 0.568988 81.3278 0.611258C81.4659 0.653529 81.5918 0.728519 81.6948 0.829857C81.7381 0.886221 81.8205 0.942578 81.8205 0.998943C81.8509 7.61091 81.9853 14.2272 81.8205 20.8348C81.7555 23.8265 80.2076 26.3065 77.81 28.1579C77.0964 28.7558 76.2512 29.1761 75.3438 29.3841C74.4364 29.5921 73.4925 29.582 72.5898 29.3545Z" fill="#C49F5C"/>
<path d="M11.7423 29.3069V22.5259C11.7423 18.5674 11.6946 14.6088 11.7423 10.6547C11.7813 8.42178 12.1152 6.21056 13.5026 4.33753C14.2626 3.27847 15.2404 2.39431 16.3704 1.74444C17.5003 1.09458 18.7563 0.694063 20.0539 0.569797C20.2694 0.554073 20.4861 0.573106 20.6956 0.626163C20.8255 0.678583 20.9468 0.750193 21.0554 0.838609C20.6219 7.34218 20.908 13.8891 20.843 20.4144C20.804 24.3165 18.8789 27.0177 15.5578 28.8733C14.9849 29.2019 14.351 29.4099 13.6948 29.4844C13.0387 29.559 12.3743 29.4986 11.7423 29.3069Z" fill="#C49F5C"/>
<path d="M105.966 29.6451C100.048 29.8012 96.3495 24.698 96.731 18.6107C97.0389 13.707 101.292 9.82654 105.836 10.1734C106.27 11.6779 106.374 27.2561 105.966 29.6451Z" fill="#C49F5C"/>
<path d="M57.5318 10.156V29.2809C55.984 29.8705 54.5489 29.4499 53.2438 28.6825C50.2088 26.9222 48.6133 24.3078 48.5352 20.7482C48.4789 18.1121 48.5656 15.5193 50.3909 13.4208C52.2162 11.3223 54.3494 9.71377 57.5318 10.156Z" fill="#C49F5C"/>
<path d="M36.0137 29.8141V10.3988C39.8161 9.53166 44.1041 12.7487 45.006 17.0021C46.4758 23.9132 43.198 28.5785 36.0137 29.8141Z" fill="#C49F5C"/>
<path d="M0.0749466 0.569839C3.7473 0.643547 6.14495 2.33448 7.87923 5.10067C8.72984 6.44583 9.15867 8.01466 9.11058 9.60547C9.05855 11.9728 9.11058 14.3444 9.11058 16.7117C9.11058 17.852 9.00218 18.9966 9.50079 20.2366C7.27223 20.5922 5.59865 19.8031 3.95108 18.7191C2.85638 18.0154 1.9413 17.0656 1.27885 15.9455C0.616405 14.8254 0.224927 13.5659 0.135646 12.2676C-0.128832 8.4912 0.0749466 4.68443 0.0749466 0.569839Z" fill="#C49F5C"/>
<path d="M33.525 29.7231C26.1543 29.463 23.5832 23.7832 24.355 17.4184C24.8362 13.4469 29.5145 9.72248 33.3776 10.3251C33.3776 13.4946 33.3559 16.7073 33.3776 19.9157C33.3993 23.1242 33.2475 26.3543 33.525 29.7231Z" fill="#C49F5C"/>
<path d="M93.5616 29.5931C88.9658 30.005 84.2442 25.6909 84.5087 20.4057C84.6942 16.9818 84.6594 13.5495 84.4046 10.13C86.6418 9.86555 88.5365 10.724 90.2492 12.1028C91.2161 12.8641 92.0078 13.8246 92.5704 14.9191C93.133 16.0137 93.4533 17.2166 93.5096 18.4459C93.7134 22.1573 93.5616 25.886 93.5616 29.5931Z" fill="#C49F5C"/>
<path d="M108.615 10.1994C110.402 10.0734 112.183 10.5204 113.699 11.4755C115.215 12.4307 116.386 13.8441 117.044 15.5106C117.633 16.902 117.929 18.4003 117.911 19.9114C117.846 23.0071 117.911 26.0984 117.885 29.1941C117.839 29.3829 117.766 29.5641 117.668 29.7318C115.067 29.7318 112.899 28.5958 111.165 26.7228C109.43 24.8497 108.789 22.5605 108.81 20.0024C108.832 16.7766 108.992 13.5465 108.615 10.1994Z" fill="#C49F5C"/>
</svg>
